<svg width="306" height="277" viewBox="0 0 306 277" fill="none" xmlns="http://www.w3.org/2000/svg">
<path d="M283 158.448C283 223.923 212.963 277 147.867 277C82.7707 277 30 223.923 30 158.448C30 92.9737 53.319 34.0001 118.415 34.0001C183.511 34.0001 283 92.9737 283 158.448Z" fill="url(#paint0_linear_98_3022)"/>
<mask id="mask0_98_3022" style="mask-type:alpha" maskUnits="userSpaceOnUse" x="164" y="56" width="41" height="46">
<path d="M196.868 84.6782C196.868 93.7546 189.511 101.112 180.434 101.112C171.358 101.112 164 93.7546 164 84.6782C164 75.6019 192.889 56.0001 201.965 56.0001C211.041 56.0001 196.868 75.6019 196.868 84.6782Z" fill="#FFCB3C"/>
</mask>
<g mask="url(#mask0_98_3022)">
<path fill-rule="evenodd" clip-rule="evenodd" d="M178.476 82.4782C177.461 82.052 176.313 81.9671 175.048 82.3374C170.728 83.6016 168.959 86.968 168.722 90.9783C168.391 96.6149 171.203 103.554 173.721 107.001C174.016 107.404 174.581 107.492 174.984 107.198C175.385 106.904 175.474 106.338 175.179 105.936C172.844 102.739 170.217 96.3114 170.525 91.0848C170.715 87.852 172.073 85.0897 175.555 84.0702C176.308 83.8499 176.994 83.8806 177.61 84.0973C177.41 84.4992 177.218 84.9019 177.037 85.3046C176.312 86.9174 175.228 91.3955 175.633 94.6878C175.953 97.293 177.184 99.1613 179.723 99.0927C181.177 99.0539 182.25 98.1753 182.894 96.735C183.688 94.9587 183.796 92.2416 183.238 89.6364C182.775 87.4701 181.855 85.3913 180.566 83.9935C180.385 83.7975 180.198 83.6142 180.003 83.4445C184.237 75.9395 191.877 68.9755 199.722 66.0091C200.187 65.833 200.422 65.312 200.246 64.8451C200.07 64.3792 199.548 64.1444 199.082 64.3205C190.9 67.4142 182.925 74.6554 178.476 82.4782ZM179.127 85.1033C178.974 85.4166 178.826 85.7309 178.685 86.0451C178.034 87.4926 177.062 91.5119 177.425 94.4675C177.618 96.0315 178.151 97.3282 179.676 97.2876C180.423 97.2677 180.914 96.7386 181.245 95.9981C181.684 95.0165 181.84 93.6855 181.771 92.2687C181.661 90.0707 180.998 87.6651 179.829 85.9639C179.613 85.6496 179.379 85.3597 179.127 85.1033Z" fill="#CBD3FD"/>
<path fill-rule="evenodd" clip-rule="evenodd" d="M193.675 77.303C194.379 73.1953 197.073 68.8247 199.967 65.796C200.311 65.4357 200.299 64.8641 199.938 64.5191C199.578 64.1751 199.005 64.1877 198.661 64.548C195.534 67.8214 192.655 72.5595 191.895 76.9978C191.811 77.4891 192.142 77.9559 192.633 78.0399C193.124 78.1239 193.591 77.7943 193.675 77.303Z" fill="#CBD3FD"/>
<path fill-rule="evenodd" clip-rule="evenodd" d="M198.739 64.3759C195.764 66.0744 191.2 66.2966 187.873 65.4351C187.39 65.3105 186.897 65.6013 186.772 66.0835C186.648 66.5657 186.938 67.0587 187.421 67.1842C191.161 68.1514 196.289 67.8543 199.635 65.9444C200.067 65.6979 200.218 65.1452 199.971 64.7127C199.723 64.2802 199.172 64.1293 198.739 64.3759Z" fill="#CBD3FD"/>
</g>
<g opacity="0.52">
<g style="mix-blend-mode:multiply">
<path d="M150.421 226.99C179.373 226.99 202.843 225.912 202.843 224.582C202.843 223.252 179.373 222.174 150.421 222.174C121.47 222.174 98 223.252 98 224.582C98 225.912 121.47 226.99 150.421 226.99Z" fill="#CCE0F0"/>
</g>
<path d="M200.073 222.589H102.066V224.583H200.073V222.589Z" fill="#F8EFE9"/>
<path d="M200.073 212.782H102.066V214.776H200.073V212.782Z" fill="#F8EFE9"/>
<path d="M157.077 214.776H145.062V222.589H157.077V214.776Z" fill="#CCC2BC"/>
<path d="M114.981 214.776H102.966V222.589H114.981V214.776Z" fill="#CCC2BC"/>
<path d="M199.17 214.776H187.156V222.588H199.17V214.776Z" fill="#CCC2BC"/>
<path d="M177.061 139.491H126.582V144.837H177.061V139.491Z" fill="#E0DBDC"/>
<path d="M177.059 107H134.751V141.93H177.059V107Z" fill="#F5E4D5"/>
<path d="M160.656 129.955H151.156V141.93H160.656V129.955Z" fill="#CCC2BC"/>
<path d="M160.656 107H151.156V118.975H160.656V107Z" fill="#CCC2BC"/>
<path fill-rule="evenodd" clip-rule="evenodd" d="M144.07 138.289C144.07 138.289 144.07 138.287 144.068 138.289C144.07 138.294 144.072 138.297 144.07 138.289ZM143.597 139.237H143.672C143.773 139.232 143.854 139.206 143.92 139.146L144.042 138.965C144.065 138.934 144.094 138.894 144.108 138.854C144.12 138.822 144.122 138.784 144.106 138.747L143.937 138.421L143.911 138.373L143.958 138.344L144.037 138.292L143.359 138.163L143.144 138.799L143.221 138.749L143.273 138.715L143.306 138.766L143.603 139.237H143.597ZM142.749 139.237H143.454L143.232 138.882L143.133 138.946L143.126 138.951H143.12C143.107 138.958 143.092 138.96 143.076 138.958C143.056 138.956 143.037 138.946 143.021 138.929C143.009 138.913 143.001 138.894 143.001 138.868C143.001 138.846 143.004 138.816 143.018 138.78L143.258 138.075L143.275 138.025L143.327 138.035L144.058 138.175C144.142 138.192 144.18 138.225 144.189 138.264C144.199 138.309 144.172 138.344 144.136 138.371L144.132 138.375L144.067 138.416L144.211 138.696C144.244 138.766 144.241 138.835 144.22 138.896C144.201 138.951 144.168 138.999 144.139 139.037L143.578 139.929C143.492 140.083 143.387 140.133 143.263 140.127H142.619V139.384C142.619 139.268 142.664 139.244 142.749 139.241V139.237Z" fill="#9D9D9D"/>
<path d="M141.396 137.652C141.396 137.652 141.396 137.654 141.396 137.656C141.4 137.65 141.401 137.649 141.396 137.652ZM142.569 137.575L142.352 138.039L142.459 138.087L142.466 138.09L142.471 138.094C142.481 138.102 142.491 138.114 142.498 138.127C142.507 138.146 142.51 138.166 142.504 138.189C142.498 138.208 142.485 138.225 142.464 138.239C142.445 138.251 142.419 138.263 142.379 138.271L141.655 138.451L141.603 138.463L141.584 138.415L141.306 137.723C141.275 137.642 141.284 137.592 141.312 137.564C141.344 137.531 141.389 137.537 141.431 137.552H141.436L141.507 137.587L141.663 137.314C141.705 137.249 141.765 137.214 141.827 137.199C141.884 137.185 141.941 137.186 141.99 137.19H142.974L142.521 137.321L141.984 137.309H141.981C141.943 137.305 141.896 137.304 141.857 137.314C141.822 137.323 141.789 137.34 141.769 137.373L141.586 137.692L141.558 137.738L141.508 137.716L141.422 137.676L141.681 138.316L142.333 138.154L142.248 138.116L142.191 138.09L142.217 138.035L142.462 137.516L142.571 137.568L142.569 137.575Z" fill="#9D9D9D"/>
<path fill-rule="evenodd" clip-rule="evenodd" d="M142.911 138.252L142.412 137.476C142.348 137.386 142.276 137.329 142.179 137.312L142.507 137.203L143.038 137.181C143.216 137.169 143.314 137.231 143.376 137.34L143.723 137.881L143.097 138.283C142.999 138.345 142.956 138.321 142.907 138.252H142.911Z" fill="#9D9D9D"/>
<path fill-rule="evenodd" clip-rule="evenodd" d="M142.129 140.271H142.131C142.126 140.271 142.122 140.271 142.129 140.271ZM141.55 139.38L141.512 139.444C141.465 139.534 141.446 139.618 141.465 139.705L141.56 139.901V139.905C141.576 139.941 141.596 139.982 141.622 140.014C141.645 140.041 141.676 140.062 141.715 140.065L142.083 140.084L142.138 140.088V140.143L142.145 140.238L142.6 139.719L142.162 139.21L142.167 139.301L142.171 139.363H142.109L141.551 139.382L141.55 139.38ZM141.979 138.649L141.621 139.258L142.04 139.246L142.034 139.129V139.12V139.113C142.038 139.099 142.043 139.085 142.052 139.073C142.064 139.058 142.081 139.044 142.105 139.041C142.124 139.037 142.145 139.041 142.169 139.053C142.188 139.063 142.21 139.082 142.236 139.113L142.723 139.677L142.757 139.717L142.723 139.757L142.231 140.317C142.173 140.381 142.126 140.396 142.088 140.384C142.043 140.371 142.028 140.327 142.022 140.284V140.279L142.019 140.202L141.705 140.184C141.627 140.177 141.57 140.139 141.529 140.089C141.491 140.045 141.467 139.993 141.448 139.948L140.963 139.011C140.874 138.859 140.884 138.744 140.951 138.639L141.277 138.085L141.919 138.463C142.017 138.521 142.016 138.573 141.978 138.646L141.979 138.649Z" fill="#9D9D9D"/>
<path d="M144.284 136.555H140.855C140.618 136.555 140.425 136.757 140.425 137.002V140.571C140.425 140.817 140.62 141.017 140.855 141.017H144.284C144.518 141.017 144.712 140.817 144.712 140.571V137.002C144.712 136.757 144.518 136.555 144.284 136.555ZM144.455 140.514C144.455 140.643 144.351 140.75 144.229 140.75H140.91C140.784 140.75 140.682 140.643 140.682 140.514V137.06C140.682 136.929 140.784 136.824 140.91 136.824H144.229C144.353 136.824 144.455 136.929 144.455 137.06V140.514Z" fill="#9D9D9D"/>
<path d="M139.221 140.495H136.987C136.944 140.495 136.909 140.461 136.909 140.418C136.909 140.375 136.944 140.34 136.987 140.34H139.221C139.264 140.34 139.298 140.375 139.298 140.418C139.298 140.461 139.264 140.495 139.221 140.495Z" fill="#9D9D9D"/>
<path fill-rule="evenodd" clip-rule="evenodd" d="M137.761 137.676V140.007H137.289V137.675L137.058 137.673L137.534 137.076L138.01 137.676H137.761Z" fill="#9D9D9D"/>
<path fill-rule="evenodd" clip-rule="evenodd" d="M138.921 137.676V140.008H138.448V137.674H138.217L138.695 137.077L139.169 137.678L138.921 137.676Z" fill="#9D9D9D"/>
<path d="M139.819 136.555H136.39C136.154 136.555 135.96 136.757 135.96 137.002V140.571C135.96 140.817 136.155 141.017 136.39 141.017H139.819C140.054 141.017 140.247 140.817 140.247 140.571V137.002C140.247 136.757 140.054 136.555 139.819 136.555ZM139.99 140.514C139.99 140.643 139.887 140.75 139.764 140.75H136.445C136.319 140.75 136.217 140.643 136.217 140.514V137.06C136.217 136.929 136.319 136.824 136.445 136.824H139.764C139.888 136.824 139.99 136.929 139.99 137.06V140.514Z" fill="#9D9D9D"/>
<path d="M148.75 136.555H145.321C145.084 136.555 144.891 136.757 144.891 137.002V140.571C144.891 140.817 145.086 141.017 145.321 141.017H148.75C148.984 141.017 149.178 140.817 149.178 140.571V137.002C149.178 136.757 148.984 136.555 148.75 136.555ZM148.921 140.514C148.921 140.643 148.817 140.75 148.695 140.75H145.376C145.25 140.75 145.148 140.643 145.148 140.514V137.06C145.148 136.929 145.25 136.824 145.376 136.824H148.695C148.819 136.824 148.921 136.929 148.921 137.06V140.514Z" fill="#9D9D9D"/>
<path fill-rule="evenodd" clip-rule="evenodd" d="M147.014 137.714C146.283 137.714 145.669 138.223 145.507 138.906C145.562 138.849 145.66 138.813 145.772 138.813C145.938 138.813 146.073 138.894 146.086 138.998C146.102 138.896 146.236 138.817 146.399 138.817C146.561 138.817 146.699 138.898 146.713 139.001C146.728 138.899 146.863 138.82 147.025 138.82C147.187 138.82 147.325 138.901 147.339 139.005C147.354 138.903 147.489 138.824 147.651 138.824C147.813 138.824 147.955 138.906 147.965 139.012C147.975 138.906 148.112 138.824 148.279 138.824C148.374 138.824 148.46 138.851 148.517 138.894C148.351 138.218 147.741 137.716 147.013 137.716L147.014 137.714Z" fill="#9D9D9D"/>
<path d="M147.106 137.635C147.106 137.596 147.073 137.563 147.033 137.563C146.994 137.563 146.961 137.596 146.961 137.635L146.957 140.237C146.957 140.276 146.99 140.309 147.03 140.309C147.07 140.309 147.102 140.276 147.102 140.237L147.106 137.635Z" fill="#9D9D9D"/>
<path d="M146.573 140.06C146.6 140.033 146.602 139.988 146.573 139.958C146.545 139.931 146.5 139.929 146.471 139.958C146.399 140.031 146.361 140.126 146.361 140.221C146.361 140.315 146.395 140.41 146.468 140.485C146.54 140.557 146.635 140.595 146.73 140.595C146.825 140.595 146.92 140.56 146.994 140.488C147.03 140.453 147.058 140.41 147.077 140.365C147.095 140.321 147.106 140.271 147.104 140.221C147.104 140.181 147.071 140.15 147.032 140.15C146.992 140.15 146.961 140.183 146.961 140.222C146.961 140.253 146.956 140.283 146.944 140.312C146.932 140.34 146.914 140.365 146.894 140.388C146.849 140.431 146.79 140.453 146.732 140.453C146.673 140.453 146.616 140.429 146.571 140.384C146.528 140.34 146.506 140.281 146.506 140.222C146.506 140.164 146.528 140.107 146.575 140.062L146.573 140.06Z" fill="#9D9D9D"/>
<path d="M134.751 107H126.582V141.93H134.751V107Z" fill="#CCC2BC"/>
<path d="M197.878 174.987H147.399V180.332H197.878V174.987Z" fill="#DFDBDC"/>
<path d="M197.877 142.498H155.569V177.427H197.877V142.498Z" fill="#F5E4D5"/>
<path d="M181.474 165.45H171.974V177.425H181.474V165.45Z" fill="#CCC2BC"/>
<path d="M181.474 142.498H171.974V154.473H181.474V142.498Z" fill="#CCC2BC"/>
<path fill-rule="evenodd" clip-rule="evenodd" d="M164.888 173.786C164.888 173.786 164.888 173.785 164.886 173.786C164.888 173.791 164.889 173.795 164.888 173.786ZM164.415 174.735H164.489C164.591 174.73 164.672 174.704 164.737 174.644L164.86 174.462C164.882 174.431 164.912 174.392 164.926 174.352C164.938 174.319 164.939 174.281 164.924 174.245L164.755 173.919L164.731 173.871L164.777 173.841L164.856 173.79L164.179 173.66L163.963 174.297L164.041 174.247L164.092 174.212L164.125 174.264L164.422 174.735H164.415ZM163.566 174.735H164.272L164.049 174.38L163.951 174.443L163.944 174.449H163.937C163.925 174.456 163.909 174.457 163.894 174.456C163.873 174.454 163.854 174.443 163.839 174.426C163.827 174.411 163.818 174.392 163.818 174.366C163.818 174.343 163.821 174.314 163.835 174.278L164.075 173.572L164.092 173.522L164.144 173.533L164.875 173.672C164.96 173.69 164.998 173.722 165.007 173.762C165.017 173.807 164.989 173.841 164.953 173.869L164.95 173.872L164.884 173.914L165.029 174.193C165.062 174.264 165.058 174.333 165.038 174.393C165.019 174.449 164.986 174.497 164.957 174.535L164.396 175.427C164.31 175.58 164.204 175.63 164.08 175.625H163.437V174.882C163.437 174.766 163.482 174.742 163.566 174.738V174.735Z" fill="#9D9D9D"/>
<path d="M162.214 173.148C162.214 173.148 162.214 173.15 162.214 173.152C162.217 173.146 162.219 173.145 162.214 173.148ZM163.387 173.07L163.169 173.535L163.276 173.583L163.283 173.586L163.288 173.59C163.299 173.598 163.309 173.61 163.316 173.622C163.325 173.641 163.328 173.662 163.321 173.685C163.316 173.704 163.302 173.721 163.281 173.735C163.262 173.747 163.237 173.759 163.197 173.767L162.472 173.947L162.421 173.959L162.402 173.911L162.124 173.219C162.093 173.138 162.101 173.088 162.129 173.06C162.162 173.027 162.207 173.033 162.248 173.048H162.253L162.324 173.083L162.481 172.81C162.522 172.744 162.583 172.71 162.645 172.694C162.702 172.681 162.759 172.682 162.807 172.686H163.792L163.338 172.819L162.802 172.807H162.798C162.76 172.803 162.714 172.801 162.674 172.812C162.64 172.82 162.607 172.838 162.586 172.87L162.403 173.19L162.376 173.236L162.326 173.214L162.239 173.174L162.498 173.814L163.15 173.652L163.066 173.614L163.009 173.588L163.035 173.533L163.28 173.014L163.388 173.065L163.387 173.07Z" fill="#9D9D9D"/>
<path fill-rule="evenodd" clip-rule="evenodd" d="M163.728 173.749L163.23 172.973C163.166 172.883 163.094 172.826 162.997 172.809L163.325 172.7L163.856 172.678C164.034 172.665 164.132 172.728 164.194 172.836L164.541 173.378L163.915 173.78C163.816 173.842 163.773 173.818 163.725 173.749H163.728Z" fill="#9D9D9D"/>
<path fill-rule="evenodd" clip-rule="evenodd" d="M162.947 175.766H162.948C162.943 175.766 162.94 175.766 162.947 175.766ZM162.367 174.876L162.329 174.94C162.283 175.03 162.264 175.114 162.283 175.201L162.378 175.397V175.401C162.393 175.437 162.414 175.478 162.44 175.509C162.462 175.537 162.493 175.558 162.533 175.561L162.9 175.58L162.955 175.584V175.639L162.962 175.734L163.418 175.214L162.98 174.706L162.985 174.797L162.988 174.859H162.926L162.369 174.878L162.367 174.876ZM162.797 174.145L162.438 174.754L162.857 174.742L162.852 174.625V174.616V174.609C162.855 174.595 162.861 174.581 162.869 174.569C162.881 174.554 162.898 174.54 162.923 174.537C162.942 174.533 162.962 174.537 162.986 174.549C163.005 174.559 163.028 174.578 163.054 174.609L163.54 175.173L163.575 175.213L163.54 175.252L163.049 175.813C162.99 175.877 162.943 175.892 162.905 175.88C162.861 175.867 162.845 175.823 162.84 175.78V175.775L162.836 175.697L162.522 175.68C162.445 175.673 162.388 175.635 162.346 175.585C162.309 175.541 162.284 175.489 162.265 175.444L161.781 174.507C161.691 174.355 161.701 174.24 161.769 174.135L162.095 173.581L162.736 173.959C162.835 174.017 162.833 174.069 162.795 174.142L162.797 174.145Z" fill="#9D9D9D"/>
<path d="M165.101 172.05H161.672C161.436 172.05 161.243 172.252 161.243 172.497V176.066C161.243 176.313 161.438 176.513 161.672 176.513H165.101C165.336 176.513 165.529 176.313 165.529 176.066V172.497C165.529 172.252 165.336 172.05 165.101 172.05ZM165.272 176.009C165.272 176.139 165.169 176.246 165.046 176.246H161.727C161.601 176.246 161.5 176.139 161.5 176.009V172.556C161.5 172.425 161.601 172.319 161.727 172.319H165.046C165.17 172.319 165.272 172.425 165.272 172.556V176.009Z" fill="#9D9D9D"/>
<path d="M160.038 175.991H157.804C157.761 175.991 157.727 175.956 157.727 175.913C157.727 175.87 157.761 175.835 157.804 175.835H160.038C160.081 175.835 160.116 175.87 160.116 175.913C160.116 175.956 160.081 175.991 160.038 175.991Z" fill="#9D9D9D"/>
<path fill-rule="evenodd" clip-rule="evenodd" d="M158.579 173.172V175.504H158.106V173.17H157.873L158.351 172.573L158.826 173.174L158.579 173.172Z" fill="#9D9D9D"/>
<path fill-rule="evenodd" clip-rule="evenodd" d="M159.738 173.174V175.506H159.266V173.172H159.035L159.511 172.573L159.987 173.174H159.738Z" fill="#9D9D9D"/>
<path d="M160.637 172.05H157.208C156.971 172.05 156.778 172.252 156.778 172.497V176.066C156.778 176.313 156.973 176.513 157.208 176.513H160.637C160.872 176.513 161.065 176.313 161.065 176.066V172.497C161.065 172.252 160.872 172.05 160.637 172.05ZM160.808 176.009C160.808 176.138 160.704 176.245 160.582 176.245H157.263C157.137 176.245 157.035 176.138 157.035 176.009V172.556C157.035 172.424 157.137 172.319 157.263 172.319H160.582C160.706 172.319 160.808 172.424 160.808 172.556V176.009Z" fill="#9D9D9D"/>
<path d="M169.567 172.05H166.138C165.902 172.05 165.709 172.252 165.709 172.497V176.066C165.709 176.313 165.904 176.513 166.138 176.513H169.567C169.802 176.513 169.995 176.313 169.995 176.066V172.497C169.995 172.252 169.802 172.05 169.567 172.05ZM169.738 176.009C169.738 176.139 169.635 176.246 169.512 176.246H166.193C166.067 176.246 165.966 176.139 165.966 176.009V172.556C165.966 172.425 166.067 172.319 166.193 172.319H169.512C169.636 172.319 169.738 172.425 169.738 172.556V176.009Z" fill="#9D9D9D"/>
<path fill-rule="evenodd" clip-rule="evenodd" d="M167.83 173.21C167.099 173.21 166.485 173.719 166.323 174.402C166.378 174.345 166.476 174.309 166.588 174.309C166.754 174.309 166.889 174.39 166.902 174.493C166.918 174.392 167.052 174.312 167.215 174.312C167.377 174.312 167.515 174.393 167.529 174.497C167.544 174.395 167.679 174.316 167.841 174.316C168.003 174.316 168.141 174.397 168.155 174.5C168.17 174.399 168.305 174.319 168.467 174.319C168.629 174.319 168.771 174.402 168.781 174.507C168.791 174.402 168.927 174.319 169.095 174.319C169.19 174.319 169.276 174.347 169.333 174.39C169.167 173.714 168.557 173.212 167.829 173.212L167.83 173.21Z" fill="#9D9D9D"/>
<path d="M167.923 173.131C167.923 173.091 167.891 173.058 167.851 173.058C167.811 173.058 167.779 173.091 167.779 173.131L167.775 175.732C167.775 175.772 167.808 175.805 167.848 175.805C167.887 175.805 167.92 175.772 167.92 175.732L167.923 173.131Z" fill="#9D9D9D"/>
<path d="M167.391 175.558C167.418 175.53 167.42 175.484 167.391 175.456C167.363 175.429 167.318 175.427 167.289 175.456C167.216 175.529 167.178 175.624 167.178 175.718C167.178 175.813 167.213 175.908 167.285 175.982C167.358 176.055 167.453 176.093 167.548 176.093C167.642 176.093 167.737 176.058 167.812 175.986C167.848 175.951 167.875 175.908 167.894 175.863C167.913 175.819 167.924 175.769 167.922 175.718C167.922 175.679 167.889 175.648 167.849 175.648C167.81 175.648 167.779 175.681 167.779 175.72C167.779 175.751 167.774 175.781 167.761 175.81C167.749 175.838 167.732 175.863 167.711 175.886C167.667 175.929 167.608 175.951 167.549 175.951C167.491 175.951 167.434 175.927 167.389 175.882C167.346 175.838 167.323 175.779 167.323 175.72C167.323 175.662 167.347 175.605 167.392 175.56L167.391 175.558Z" fill="#9D9D9D"/>
<path d="M155.569 142.498H147.399V177.427H155.569V142.498Z" fill="#CCC2BC"/>
<path d="M197.877 177.854H155.569V212.784H197.877V177.854Z" fill="#F5E4D5"/>
<path d="M181.474 200.807H171.974V212.782H181.474V200.807Z" fill="#CCC2BC"/>
<path d="M181.474 177.854H171.974V189.829H181.474V177.854Z" fill="#CCC2BC"/>
<path fill-rule="evenodd" clip-rule="evenodd" d="M164.888 209.142C164.888 209.142 164.888 209.141 164.886 209.142C164.888 209.147 164.889 209.151 164.888 209.142ZM164.415 210.091H164.489C164.591 210.086 164.672 210.06 164.737 210L164.86 209.818C164.882 209.787 164.912 209.748 164.926 209.708C164.938 209.675 164.939 209.637 164.924 209.601L164.755 209.275L164.731 209.227L164.777 209.197L164.857 209.146L164.179 209.016L163.963 209.653L164.041 209.603L164.092 209.568L164.125 209.62L164.422 210.091H164.415ZM163.566 210.091H164.272L164.049 209.736L163.951 209.799L163.944 209.805H163.937C163.925 209.812 163.909 209.813 163.894 209.812C163.873 209.81 163.854 209.799 163.839 209.782C163.827 209.767 163.818 209.748 163.818 209.722C163.818 209.699 163.821 209.67 163.835 209.634L164.075 208.928L164.092 208.878L164.144 208.889L164.875 209.028C164.96 209.046 164.998 209.078 165.007 209.118C165.017 209.163 164.989 209.197 164.953 209.225L164.95 209.228L164.884 209.27L165.029 209.549C165.062 209.62 165.058 209.689 165.038 209.749C165.019 209.805 164.986 209.853 164.957 209.891L164.396 210.783C164.31 210.936 164.204 210.986 164.08 210.981H163.437V210.238C163.437 210.122 163.482 210.098 163.566 210.094V210.091Z" fill="#9D9D9D"/>
<path d="M162.214 208.504C162.214 208.504 162.214 208.506 162.214 208.508C162.217 208.502 162.219 208.501 162.214 208.504ZM163.387 208.426L163.169 208.891L163.276 208.939L163.283 208.942L163.288 208.946C163.299 208.954 163.309 208.966 163.316 208.978C163.325 208.997 163.328 209.018 163.321 209.041C163.316 209.06 163.302 209.077 163.281 209.091C163.262 209.103 163.237 209.115 163.197 209.123L162.472 209.303L162.421 209.315L162.402 209.267L162.124 208.575C162.093 208.494 162.102 208.444 162.129 208.416C162.162 208.383 162.207 208.389 162.248 208.404H162.253L162.324 208.439L162.481 208.166C162.522 208.1 162.583 208.066 162.645 208.05C162.702 208.037 162.759 208.038 162.807 208.042H163.792L163.338 208.175L162.802 208.163H162.798C162.76 208.159 162.714 208.157 162.674 208.168C162.64 208.176 162.607 208.194 162.586 208.226L162.403 208.546L162.376 208.592L162.326 208.57L162.24 208.53L162.498 209.17L163.15 209.008L163.066 208.97L163.009 208.944L163.035 208.889L163.28 208.37L163.388 208.421L163.387 208.426Z" fill="#9D9D9D"/>
<path fill-rule="evenodd" clip-rule="evenodd" d="M163.728 209.104L163.23 208.328C163.166 208.238 163.094 208.181 162.997 208.164L163.325 208.055L163.856 208.033C164.034 208.021 164.132 208.083 164.194 208.192L164.541 208.733L163.915 209.135C163.816 209.197 163.773 209.173 163.725 209.104H163.728Z" fill="#9D9D9D"/>
<path fill-rule="evenodd" clip-rule="evenodd" d="M162.947 211.122H162.948C162.943 211.122 162.94 211.122 162.947 211.122ZM162.367 210.232L162.329 210.296C162.283 210.386 162.264 210.47 162.283 210.557L162.378 210.753V210.757C162.393 210.793 162.414 210.834 162.44 210.865C162.462 210.893 162.493 210.914 162.533 210.917L162.9 210.936L162.955 210.94V210.995L162.962 211.09L163.418 210.57L162.98 210.062L162.985 210.153L162.988 210.215H162.926L162.369 210.234L162.367 210.232ZM162.797 209.501L162.438 210.11L162.857 210.098L162.852 209.981V209.972V209.965C162.855 209.951 162.861 209.937 162.869 209.925C162.881 209.91 162.898 209.896 162.923 209.893C162.942 209.889 162.962 209.893 162.986 209.905C163.005 209.915 163.028 209.934 163.054 209.965L163.54 210.529L163.575 210.569L163.54 210.608L163.049 211.169C162.99 211.233 162.943 211.248 162.905 211.236C162.861 211.223 162.845 211.181 162.84 211.136V211.131L162.836 211.053L162.522 211.036C162.445 211.029 162.388 210.991 162.346 210.941C162.309 210.897 162.284 210.845 162.265 210.8L161.781 209.863C161.691 209.711 161.701 209.594 161.769 209.491L162.095 208.937L162.736 209.315C162.835 209.373 162.833 209.425 162.795 209.498L162.797 209.501Z" fill="#9D9D9D"/>
<path d="M165.101 207.407H161.672C161.436 207.407 161.243 207.609 161.243 207.854V211.423C161.243 211.67 161.438 211.87 161.672 211.87H165.101C165.336 211.87 165.529 211.67 165.529 211.423V207.854C165.529 207.609 165.336 207.407 165.101 207.407ZM165.272 211.366C165.272 211.495 165.169 211.602 165.046 211.602H161.727C161.601 211.602 161.5 211.495 161.5 211.366V207.912C161.5 207.781 161.601 207.676 161.727 207.676H165.046C165.17 207.676 165.272 207.781 165.272 207.912V211.366Z" fill="#9D9D9D"/>
<path d="M160.038 211.346H157.804C157.761 211.346 157.727 211.312 157.727 211.269C157.727 211.226 157.761 211.191 157.804 211.191H160.038C160.081 211.191 160.116 211.226 160.116 211.269C160.116 211.312 160.081 211.346 160.038 211.346Z" fill="#9D9D9D"/>
<path fill-rule="evenodd" clip-rule="evenodd" d="M158.579 208.528V210.86H158.106V208.526H157.873L158.351 207.929L158.826 208.529L158.579 208.528Z" fill="#9D9D9D"/>
<path fill-rule="evenodd" clip-rule="evenodd" d="M159.738 208.529V210.862H159.266V208.528L159.035 208.526L159.511 207.929L159.987 208.529H159.738Z" fill="#9D9D9D"/>
<path d="M160.637 207.407H157.208C156.971 207.407 156.778 207.609 156.778 207.854V211.423C156.778 211.67 156.973 211.87 157.208 211.87H160.637C160.872 211.87 161.065 211.67 161.065 211.423V207.854C161.065 207.609 160.872 207.407 160.637 207.407ZM160.808 211.366C160.808 211.495 160.704 211.602 160.582 211.602H157.263C157.137 211.602 157.035 211.495 157.035 211.366V207.912C157.035 207.781 157.137 207.676 157.263 207.676H160.582C160.706 207.676 160.808 207.781 160.808 207.912V211.366Z" fill="#9D9D9D"/>
<path d="M169.567 207.407H166.138C165.902 207.407 165.709 207.609 165.709 207.854V211.423C165.709 211.67 165.904 211.87 166.138 211.87H169.567C169.802 211.87 169.995 211.67 169.995 211.423V207.854C169.995 207.609 169.802 207.407 169.567 207.407ZM169.738 211.366C169.738 211.495 169.635 211.602 169.512 211.602H166.193C166.067 211.602 165.966 211.495 165.966 211.366V207.912C165.966 207.781 166.067 207.676 166.193 207.676H169.512C169.636 207.676 169.738 207.781 169.738 207.912V211.366Z" fill="#9D9D9D"/>
<path fill-rule="evenodd" clip-rule="evenodd" d="M167.83 208.566C167.099 208.566 166.485 209.075 166.323 209.758C166.378 209.701 166.476 209.665 166.588 209.665C166.754 209.665 166.889 209.746 166.902 209.849C166.918 209.748 167.052 209.668 167.215 209.668C167.377 209.668 167.515 209.749 167.529 209.853C167.544 209.751 167.679 209.672 167.841 209.672C168.003 209.672 168.141 209.753 168.155 209.856C168.17 209.754 168.305 209.675 168.467 209.675C168.629 209.675 168.771 209.758 168.781 209.863C168.791 209.758 168.928 209.675 169.095 209.675C169.19 209.675 169.276 209.703 169.333 209.746C169.167 209.07 168.557 208.568 167.829 208.568L167.83 208.566Z" fill="#9D9D9D"/>
<path d="M167.923 208.486C167.923 208.447 167.891 208.414 167.851 208.414C167.811 208.414 167.779 208.447 167.779 208.486L167.775 211.088C167.775 211.127 167.808 211.16 167.848 211.16C167.887 211.16 167.92 211.127 167.92 211.088L167.923 208.486Z" fill="#9D9D9D"/>
<path d="M167.391 210.913C167.418 210.886 167.42 210.841 167.391 210.812C167.363 210.784 167.318 210.782 167.289 210.812C167.216 210.884 167.178 210.979 167.178 211.074C167.178 211.169 167.213 211.264 167.285 211.338C167.358 211.41 167.453 211.448 167.548 211.448C167.642 211.448 167.737 211.414 167.812 211.341C167.848 211.307 167.875 211.264 167.894 211.219C167.913 211.174 167.924 211.124 167.922 211.074C167.922 211.034 167.889 211.003 167.849 211.003C167.81 211.003 167.779 211.036 167.779 211.076C167.779 211.107 167.774 211.136 167.761 211.165C167.749 211.193 167.732 211.219 167.711 211.241C167.667 211.284 167.608 211.307 167.549 211.307C167.491 211.307 167.434 211.284 167.389 211.238C167.346 211.193 167.323 211.134 167.323 211.076C167.323 211.017 167.347 210.96 167.392 210.915L167.391 210.913Z" fill="#9D9D9D"/>
<path d="M155.569 177.854H147.399V212.784H155.569V177.854Z" fill="#CCC2BC"/>
<path d="M154.706 174.987H104.227V180.332H154.706V174.987Z" fill="#E0DBDC"/>
<path d="M154.705 142.498H112.397V177.427H154.705V142.498Z" fill="#F5E4D5"/>
<path d="M138.302 165.45H128.802V177.425H138.302V165.45Z" fill="#CCC2BC"/>
<path d="M138.302 142.498H128.802V154.473H138.302V142.498Z" fill="#CCC2BC"/>
<path fill-rule="evenodd" clip-rule="evenodd" d="M121.714 173.786C121.714 173.786 121.714 173.785 121.712 173.786C121.714 173.791 121.715 173.795 121.714 173.786ZM121.241 174.735H121.315C121.417 174.73 121.498 174.704 121.564 174.644L121.686 174.462C121.709 174.431 121.738 174.392 121.752 174.352C121.764 174.319 121.766 174.281 121.75 174.245L121.581 173.919L121.555 173.871L121.602 173.841L121.681 173.79L121.003 173.66L120.787 174.297L120.865 174.247L120.917 174.212L120.95 174.264L121.246 174.735H121.241ZM120.392 174.735H121.098L120.875 174.38L120.777 174.443L120.77 174.449H120.763C120.751 174.456 120.736 174.457 120.72 174.456C120.699 174.454 120.68 174.443 120.665 174.426C120.653 174.411 120.644 174.392 120.644 174.366C120.644 174.343 120.648 174.314 120.662 174.278L120.901 173.572L120.919 173.522L120.97 173.533L121.702 173.672C121.786 173.69 121.824 173.722 121.833 173.762C121.843 173.807 121.816 173.841 121.779 173.869L121.776 173.872L121.71 173.914L121.855 174.193C121.888 174.264 121.885 174.333 121.864 174.393C121.845 174.449 121.812 174.497 121.783 174.535L121.222 175.427C121.136 175.58 121.031 175.63 120.906 175.625H120.263V174.882C120.263 174.766 120.308 174.742 120.392 174.738V174.735Z" fill="#9D9D9D"/>
<path d="M119.042 173.148C119.042 173.148 119.042 173.15 119.042 173.152C119.045 173.146 119.047 173.145 119.042 173.148ZM120.215 173.07L119.997 173.535L120.104 173.583L120.111 173.586L120.116 173.59C120.127 173.598 120.137 173.61 120.144 173.622C120.153 173.641 120.156 173.662 120.149 173.685C120.144 173.704 120.132 173.721 120.11 173.735C120.091 173.747 120.065 173.759 120.025 173.767L119.301 173.947L119.249 173.959L119.23 173.911L118.952 173.219C118.921 173.138 118.93 173.088 118.957 173.06C118.99 173.027 119.035 173.033 119.076 173.048H119.081L119.152 173.083L119.309 172.81C119.351 172.744 119.411 172.71 119.473 172.694C119.53 172.681 119.587 172.682 119.635 172.686H120.62L120.167 172.819L119.63 172.807H119.627C119.589 172.803 119.542 172.801 119.502 172.812C119.468 172.82 119.435 172.838 119.414 172.87L119.232 173.19L119.204 173.236L119.154 173.214L119.068 173.174L119.326 173.814L119.978 173.652L119.894 173.614L119.837 173.588L119.863 173.533L120.108 173.014L120.217 173.065L120.215 173.07Z" fill="#9D9D9D"/>
<path fill-rule="evenodd" clip-rule="evenodd" d="M120.555 173.749L120.056 172.973C119.992 172.883 119.92 172.826 119.823 172.809L120.151 172.7L120.682 172.678C120.86 172.665 120.958 172.728 121.02 172.836L121.367 173.378L120.741 173.78C120.643 173.842 120.599 173.818 120.551 173.749H120.555Z" fill="#9D9D9D"/>
<path fill-rule="evenodd" clip-rule="evenodd" d="M119.773 175.766H119.775C119.77 175.766 119.766 175.766 119.773 175.766ZM119.194 174.876L119.156 174.94C119.109 175.03 119.09 175.114 119.109 175.201L119.204 175.397V175.401C119.219 175.437 119.24 175.478 119.266 175.509C119.288 175.537 119.319 175.558 119.359 175.561L119.727 175.58L119.782 175.584V175.639L119.789 175.734L120.244 175.214L119.806 174.706L119.811 174.797L119.815 174.859H119.752L119.195 174.878L119.194 174.876ZM119.623 174.145L119.264 174.754L119.683 174.742L119.678 174.625V174.616V174.609C119.682 174.595 119.687 174.581 119.696 174.569C119.708 174.554 119.725 174.54 119.749 174.537C119.768 174.533 119.789 174.537 119.813 174.549C119.832 174.559 119.854 174.578 119.88 174.609L120.367 175.173L120.401 175.213L120.367 175.252L119.875 175.813C119.816 175.877 119.77 175.892 119.732 175.88C119.687 175.867 119.671 175.823 119.666 175.78V175.775L119.663 175.697L119.349 175.68C119.271 175.673 119.214 175.635 119.171 175.585C119.133 175.541 119.109 175.489 119.09 175.444L118.605 174.507C118.516 174.355 118.526 174.24 118.593 174.135L118.919 173.581L119.561 173.959C119.659 174.017 119.658 174.069 119.62 174.142L119.623 174.145Z" fill="#9D9D9D"/>
<path d="M121.929 172.05H118.5C118.264 172.05 118.07 172.252 118.07 172.497V176.066C118.07 176.313 118.265 176.513 118.5 176.513H121.929C122.164 176.513 122.357 176.313 122.357 176.066V172.497C122.357 172.252 122.164 172.05 121.929 172.05ZM122.1 176.009C122.1 176.139 121.997 176.246 121.874 176.246H118.555C118.429 176.246 118.327 176.139 118.327 176.009V172.556C118.327 172.425 118.429 172.319 118.555 172.319H121.874C121.998 172.319 122.1 172.425 122.1 172.556V176.009Z" fill="#9D9D9D"/>
<path d="M116.865 175.991H114.631C114.588 175.991 114.553 175.956 114.553 175.913C114.553 175.87 114.588 175.835 114.631 175.835H116.865C116.908 175.835 116.942 175.87 116.942 175.913C116.942 175.956 116.908 175.991 116.865 175.991Z" fill="#9D9D9D"/>
<path fill-rule="evenodd" clip-rule="evenodd" d="M115.405 173.172V175.504H114.934V173.17H114.702L115.179 172.573L115.654 173.174L115.405 173.172Z" fill="#9D9D9D"/>
<path fill-rule="evenodd" clip-rule="evenodd" d="M116.566 173.174V175.506H116.094V173.172H115.861L116.339 172.573L116.813 173.174H116.566Z" fill="#9D9D9D"/>
<path d="M117.465 172.05H114.036C113.799 172.05 113.606 172.252 113.606 172.497V176.066C113.606 176.313 113.801 176.513 114.036 176.513H117.465C117.7 176.513 117.893 176.313 117.893 176.066V172.497C117.893 172.252 117.7 172.05 117.465 172.05ZM117.636 176.009C117.636 176.138 117.532 176.245 117.41 176.245H114.091C113.965 176.245 113.863 176.138 113.863 176.009V172.556C113.863 172.424 113.965 172.319 114.091 172.319H117.41C117.534 172.319 117.636 172.424 117.636 172.556V176.009Z" fill="#9D9D9D"/>
<path d="M126.394 172.05H122.964C122.728 172.05 122.535 172.252 122.535 172.497V176.066C122.535 176.313 122.73 176.513 122.964 176.513H126.394C126.628 176.513 126.822 176.313 126.822 176.066V172.497C126.822 172.252 126.628 172.05 126.394 172.05ZM126.565 176.009C126.565 176.139 126.461 176.246 126.339 176.246H123.02C122.894 176.246 122.792 176.139 122.792 176.009V172.556C122.792 172.425 122.894 172.319 123.02 172.319H126.339C126.463 172.319 126.565 172.425 126.565 172.556V176.009Z" fill="#9D9D9D"/>
<path fill-rule="evenodd" clip-rule="evenodd" d="M124.658 173.21C123.927 173.21 123.313 173.719 123.151 174.402C123.206 174.345 123.304 174.309 123.416 174.309C123.582 174.309 123.716 174.39 123.73 174.493C123.746 174.392 123.88 174.312 124.042 174.312C124.205 174.312 124.343 174.393 124.356 174.497C124.372 174.395 124.506 174.316 124.669 174.316C124.831 174.316 124.969 174.397 124.983 174.5C124.998 174.399 125.133 174.319 125.295 174.319C125.457 174.319 125.598 174.402 125.609 174.507C125.619 174.402 125.755 174.319 125.923 174.319C126.018 174.319 126.104 174.347 126.161 174.39C125.995 173.714 125.384 173.212 124.656 173.212L124.658 173.21Z" fill="#9D9D9D"/>
<path d="M124.751 173.131C124.751 173.091 124.719 173.058 124.679 173.058C124.639 173.058 124.606 173.091 124.606 173.131L124.603 175.732C124.603 175.772 124.636 175.805 124.675 175.805C124.715 175.805 124.748 175.772 124.748 175.732L124.751 173.131Z" fill="#9D9D9D"/>
<path d="M124.218 175.558C124.246 175.53 124.248 175.484 124.218 175.456C124.191 175.429 124.146 175.427 124.117 175.456C124.044 175.529 124.006 175.624 124.006 175.718C124.006 175.813 124.041 175.908 124.113 175.982C124.186 176.055 124.281 176.093 124.375 176.093C124.47 176.093 124.565 176.058 124.639 175.986C124.676 175.951 124.703 175.908 124.722 175.863C124.741 175.819 124.751 175.769 124.75 175.718C124.75 175.679 124.717 175.648 124.677 175.648C124.638 175.648 124.607 175.681 124.607 175.72C124.607 175.751 124.601 175.781 124.589 175.81C124.577 175.838 124.56 175.863 124.539 175.886C124.494 175.929 124.436 175.951 124.377 175.951C124.318 175.951 124.262 175.927 124.217 175.882C124.174 175.838 124.151 175.779 124.151 175.72C124.151 175.662 124.174 175.605 124.22 175.56L124.218 175.558Z" fill="#9D9D9D"/>
<path d="M112.397 142.498H104.227V177.427H112.397V142.498Z" fill="#CCC2BC"/>
<path d="M154.705 177.854H112.397V212.784H154.705V177.854Z" fill="#F5E4D5"/>
<path d="M138.302 200.807H128.802V212.782H138.302V200.807Z" fill="#CCC2BC"/>
<path d="M138.302 177.854H128.802V189.829H138.302V177.854Z" fill="#CCC2BC"/>
<path fill-rule="evenodd" clip-rule="evenodd" d="M121.714 209.142C121.714 209.142 121.714 209.141 121.712 209.142C121.714 209.147 121.716 209.151 121.714 209.142ZM121.241 210.091H121.315C121.417 210.086 121.498 210.06 121.564 210L121.686 209.818C121.709 209.787 121.738 209.748 121.752 209.708C121.764 209.675 121.766 209.637 121.75 209.601L121.581 209.275L121.555 209.227L121.602 209.197L121.681 209.146L121.003 209.016L120.788 209.653L120.865 209.603L120.917 209.568L120.95 209.62L121.246 210.091H121.241ZM120.393 210.091H121.098L120.876 209.736L120.777 209.799L120.77 209.805H120.763C120.751 209.812 120.736 209.813 120.72 209.812C120.7 209.81 120.681 209.799 120.665 209.782C120.653 209.767 120.644 209.748 120.644 209.722C120.644 209.699 120.648 209.67 120.662 209.634L120.901 208.928L120.919 208.878L120.97 208.889L121.702 209.028C121.786 209.046 121.824 209.078 121.833 209.118C121.843 209.163 121.816 209.197 121.779 209.225L121.776 209.228L121.71 209.27L121.855 209.549C121.888 209.62 121.885 209.689 121.864 209.749C121.845 209.805 121.812 209.853 121.783 209.891L121.222 210.783C121.136 210.936 121.031 210.986 120.907 210.981H120.263V210.238C120.263 210.122 120.308 210.098 120.393 210.094V210.091Z" fill="#9D9D9D"/>
<path d="M119.042 208.504C119.042 208.504 119.042 208.506 119.042 208.508C119.045 208.502 119.047 208.501 119.042 208.504ZM120.215 208.426L119.998 208.891L120.105 208.939L120.111 208.942L120.117 208.946C120.127 208.954 120.137 208.966 120.144 208.978C120.153 208.997 120.156 209.018 120.149 209.041C120.144 209.06 120.132 209.077 120.11 209.091C120.091 209.103 120.065 209.115 120.025 209.123L119.301 209.303L119.249 209.315L119.23 209.267L118.952 208.575C118.921 208.494 118.93 208.444 118.957 208.416C118.99 208.383 119.035 208.389 119.076 208.404H119.082L119.152 208.439L119.309 208.166C119.351 208.1 119.411 208.066 119.473 208.05C119.53 208.037 119.587 208.038 119.635 208.042H120.62L120.167 208.175L119.63 208.163H119.627C119.589 208.159 119.542 208.157 119.503 208.168C119.468 208.176 119.435 208.194 119.415 208.226L119.232 208.546L119.204 208.592L119.154 208.57L119.068 208.53L119.327 209.17L119.979 209.008L119.894 208.97L119.837 208.944L119.863 208.889L120.108 208.37L120.217 208.421L120.215 208.426Z" fill="#9D9D9D"/>
<path fill-rule="evenodd" clip-rule="evenodd" d="M120.555 209.104L120.056 208.328C119.992 208.238 119.92 208.181 119.823 208.164L120.151 208.055L120.682 208.033C120.86 208.021 120.958 208.083 121.021 208.192L121.367 208.733L120.741 209.135C120.643 209.197 120.6 209.173 120.551 209.104H120.555Z" fill="#9D9D9D"/>
<path fill-rule="evenodd" clip-rule="evenodd" d="M119.773 211.122H119.775C119.77 211.122 119.766 211.122 119.773 211.122ZM119.194 210.232L119.156 210.296C119.109 210.386 119.09 210.47 119.109 210.557L119.204 210.753V210.757C119.22 210.793 119.24 210.834 119.266 210.865C119.289 210.893 119.32 210.914 119.359 210.917L119.727 210.936L119.782 210.94V210.995L119.789 211.09L120.244 210.57L119.806 210.062L119.811 210.153L119.815 210.215H119.753L119.195 210.234L119.194 210.232ZM119.623 209.501L119.264 210.11L119.684 210.098L119.678 209.981V209.972V209.965C119.682 209.951 119.687 209.937 119.696 209.925C119.708 209.91 119.725 209.896 119.749 209.893C119.768 209.889 119.789 209.893 119.813 209.905C119.832 209.915 119.854 209.934 119.88 209.965L120.367 210.529L120.401 210.569L120.367 210.608L119.875 211.169C119.816 211.233 119.77 211.248 119.732 211.236C119.687 211.223 119.672 211.181 119.666 211.136V211.131L119.663 211.053L119.349 211.036C119.271 211.029 119.214 210.991 119.171 210.941C119.133 210.897 119.109 210.845 119.09 210.8L118.605 209.863C118.516 209.711 118.526 209.594 118.593 209.491L118.919 208.937L119.561 209.315C119.659 209.373 119.658 209.425 119.62 209.498L119.623 209.501Z" fill="#9D9D9D"/>
<path d="M121.93 207.407H118.5C118.264 207.407 118.071 207.609 118.071 207.854V211.423C118.071 211.67 118.266 211.87 118.5 211.87H121.93C122.164 211.87 122.357 211.67 122.357 211.423V207.854C122.357 207.609 122.164 207.407 121.93 207.407ZM122.1 211.366C122.1 211.495 121.997 211.602 121.874 211.602H118.555C118.429 211.602 118.328 211.495 118.328 211.366V207.912C118.328 207.781 118.429 207.676 118.555 207.676H121.874C121.999 207.676 122.1 207.781 122.1 207.912V211.366Z" fill="#9D9D9D"/>
<path d="M116.865 211.346H114.631C114.588 211.346 114.553 211.312 114.553 211.269C114.553 211.226 114.588 211.191 114.631 211.191H116.865C116.908 211.191 116.942 211.226 116.942 211.269C116.942 211.312 116.908 211.346 116.865 211.346Z" fill="#9D9D9D"/>
<path fill-rule="evenodd" clip-rule="evenodd" d="M115.406 208.528V210.86H114.935V208.526H114.702L115.18 207.929L115.654 208.529L115.406 208.528Z" fill="#9D9D9D"/>
<path fill-rule="evenodd" clip-rule="evenodd" d="M116.567 208.529V210.862H116.094V208.528L115.861 208.526L116.339 207.929L116.813 208.529H116.567Z" fill="#9D9D9D"/>
<path d="M117.465 207.407H114.036C113.8 207.407 113.606 207.609 113.606 207.854V211.423C113.606 211.67 113.801 211.87 114.036 211.87H117.465C117.7 211.87 117.893 211.67 117.893 211.423V207.854C117.893 207.609 117.7 207.407 117.465 207.407ZM117.636 211.366C117.636 211.495 117.533 211.602 117.41 211.602H114.091C113.965 211.602 113.863 211.495 113.863 211.366V207.912C113.863 207.781 113.965 207.676 114.091 207.676H117.41C117.534 207.676 117.636 207.781 117.636 207.912V211.366Z" fill="#9D9D9D"/>
<path d="M126.394 207.407H122.964C122.728 207.407 122.535 207.609 122.535 207.854V211.423C122.535 211.67 122.73 211.87 122.964 211.87H126.394C126.628 211.87 126.822 211.67 126.822 211.423V207.854C126.822 207.609 126.628 207.407 126.394 207.407ZM126.565 211.366C126.565 211.495 126.461 211.602 126.339 211.602H123.02C122.894 211.602 122.792 211.495 122.792 211.366V207.912C122.792 207.781 122.894 207.676 123.02 207.676H126.339C126.463 207.676 126.565 207.781 126.565 207.912V211.366Z" fill="#9D9D9D"/>
<path fill-rule="evenodd" clip-rule="evenodd" d="M124.659 208.566C123.927 208.566 123.313 209.075 123.151 209.758C123.206 209.701 123.304 209.665 123.417 209.665C123.582 209.665 123.717 209.746 123.731 209.849C123.746 209.748 123.881 209.668 124.043 209.668C124.205 209.668 124.343 209.749 124.357 209.853C124.372 209.751 124.507 209.672 124.669 209.672C124.831 209.672 124.969 209.753 124.983 209.856C124.998 209.754 125.133 209.675 125.295 209.675C125.457 209.675 125.599 209.758 125.609 209.863C125.619 209.758 125.756 209.675 125.923 209.675C126.018 209.675 126.104 209.703 126.161 209.746C125.995 209.07 125.385 208.568 124.657 208.568L124.659 208.566Z" fill="#9D9D9D"/>
<path d="M124.752 208.486C124.752 208.447 124.719 208.414 124.679 208.414C124.64 208.414 124.607 208.447 124.607 208.486L124.603 211.088C124.603 211.127 124.636 211.16 124.676 211.16C124.715 211.16 124.748 211.127 124.748 211.088L124.752 208.486Z" fill="#9D9D9D"/>
<path d="M124.219 210.913C124.246 210.886 124.248 210.841 124.219 210.812C124.191 210.784 124.146 210.782 124.117 210.812C124.044 210.884 124.006 210.979 124.006 211.074C124.006 211.169 124.041 211.264 124.113 211.338C124.186 211.41 124.281 211.448 124.376 211.448C124.47 211.448 124.565 211.414 124.64 211.341C124.676 211.307 124.703 211.264 124.722 211.219C124.741 211.174 124.752 211.124 124.75 211.074C124.75 211.034 124.717 211.003 124.677 211.003C124.638 211.003 124.607 211.036 124.607 211.076C124.607 211.107 124.602 211.136 124.589 211.165C124.577 211.193 124.56 211.219 124.539 211.241C124.495 211.284 124.436 211.307 124.377 211.307C124.319 211.307 124.262 211.284 124.217 211.238C124.174 211.193 124.151 211.134 124.151 211.076C124.151 211.017 124.174 210.96 124.22 210.915L124.219 210.913Z" fill="#9D9D9D"/>
<path d="M112.397 177.854H104.227V212.784H112.397V177.854Z" fill="#CCC2BC"/>
</g>
<rect x="8.5" y="152.5" width="16" height="35" rx="8" stroke="#FFD9CE"/>
<rect x="201.5" y="9.50006" width="16" height="27" rx="8" stroke="#FFD9CE"/>
<rect x="286.5" y="93.5001" width="16" height="20" rx="8" stroke="#EEF1FF"/>
<rect x="6" y="65.0001" width="8" height="8" rx="4" fill="#E2E7FF"/>
<path d="M81.7177 10.1671C81.3192 8.68 82.68 7.31917 84.1671 7.71765L93.6138 10.2489C95.101 10.6474 95.5991 12.5063 94.5104 13.595L87.595 20.5104C86.5063 21.5991 84.6474 21.101 84.2489 19.6138L81.7177 10.1671Z" fill="#A0ADF8"/>
<path d="M296.411 47.386C297.783 46.6874 299.397 47.736 299.316 49.2734L299.042 54.4624C298.961 55.9999 297.246 56.8731 295.955 56.0342L291.598 53.203C290.307 52.3641 290.408 50.4423 291.78 49.7437L296.411 47.386Z" fill="#FFCEC0"/>
<line x1="16" y1="225.5" x2="286" y2="225.5" stroke="#E2E4E5"/>
<g style="mix-blend-mode:multiply">
<path d="M250.819 226C276.513 226 297.343 223.533 297.343 220.49C297.343 217.447 276.513 214.98 250.819 214.98C225.124 214.98 204.294 217.447 204.294 220.49C204.294 223.533 225.124 226 250.819 226Z" fill="#FCFCFC"/>
</g>
<path d="M249.603 46.8869L248.827 65.7196L263.076 66.3069L263.852 47.4742L249.603 46.8869Z" fill="#FAAF9E"/>
<path d="M242.72 42.2512C242.723 42.2779 242.727 42.3047 242.734 42.3337C242.774 42.5343 242.885 42.755 243.021 42.9979C243.26 43.4259 243.565 43.923 243.668 44.5204C243.868 45.7263 243.329 47.8594 243.378 48.5549C243.605 51.7068 245.596 59.4638 248.202 59.5218C253.703 59.6444 256.672 57.7586 259.16 54.3571C260.002 53.2047 260.39 51.2075 260.932 49.8834C262.813 45.2738 263.303 40.5148 262.606 35.5842C262.454 34.5098 262.218 33.3975 261.538 32.5504C258.413 28.6585 250.542 30.9723 248.652 31.6588C245.647 32.7533 243.659 35.359 243.26 37.8756C243.142 38.6379 242.54 40.2986 242.72 42.2512Z" fill="#FEBAA5"/>
<path d="M254.01 33.9754C255 33.9419 256.17 34.1448 256.614 35.0297C257.002 35.8054 256.65 36.726 256.337 37.5351C256.025 38.3443 255.78 39.3362 256.322 40.0138C256.868 40.7004 257.962 40.7071 258.551 41.3579C259.2 42.0734 258.983 43.2638 259.558 44.0395C260.149 44.833 261.299 44.8798 262.289 44.8531C263.143 44.8308 264.025 44.7996 264.797 44.434C266.558 43.5981 267.072 41.563 267.291 39.6862C267.703 36.1242 267.293 33.0303 264.714 29.8896C262.013 26.5995 256.647 25.933 249.639 27.7541C247.002 28.4407 243.512 30.6898 243.206 33.398C243.159 33.8104 243.681 35.6293 243.917 35.9704C244.791 34.6196 245.161 34.5616 245.803 34.5683C246.643 34.5772 246.84 35.2058 247.68 35.2147C248.353 35.2214 249.011 35.3106 249.633 35.0275C251.019 34.3967 252.481 34.0311 254.01 33.9776V33.9754Z" fill="#15181D"/>
<path d="M261.723 48.1972C261.707 48.0144 261.696 47.8227 261.689 47.6243C261.602 45.1679 262.14 41.5703 264.547 41.4856C265.969 41.4365 266.553 42.074 266.598 43.3312C266.66 45.1345 264.645 50.0495 262.844 50.1142C262.015 50.1431 261.808 49.3273 261.779 48.4981C261.761 48.0055 261.812 47.495 261.794 46.9913C261.79 46.8754 261.783 46.7595 261.77 46.6436L261.723 48.1994V48.1972Z" fill="#FEBAA5"/>
<path d="M252.035 52.664L246.224 52.8646C246.224 52.8646 246.572 54.6968 248.768 54.8952C251.447 55.1382 252.033 52.664 252.033 52.664H252.035Z" fill="white"/>
<path d="M248.302 46.2289C248.143 47.7424 246.761 49.4699 248.119 50.7226C248.368 50.9611 248.71 51.1171 249.037 51.0882C249.106 51.0815 249.046 50.9968 249.053 51.0191C247.517 50.0071 248.689 47.4972 248.652 46.24C248.62 45.3907 248.21 44.3988 248.099 44.4657C248.007 44.5214 248.435 45.1166 248.302 46.2289Z" fill="#FAAB9B"/>
<path d="M252.125 45.4242C252.154 45.8923 252.419 46.2557 252.715 46.2356C253.012 46.2155 253.228 45.8232 253.199 45.3551C253.17 44.887 252.905 44.5237 252.608 44.5438C252.312 44.5638 252.096 44.9561 252.125 45.4242Z" fill="#251611"/>
<path d="M244.35 45.4482C244.379 45.9163 244.644 46.2796 244.941 46.2596C245.237 46.2395 245.453 45.8472 245.424 45.3791C245.395 44.911 245.13 44.5477 244.834 44.5677C244.537 44.5878 244.321 44.9801 244.35 45.4482Z" fill="#251611"/>
<path d="M242.731 42.3345C242.772 42.5351 242.883 42.7558 243.019 42.9988C243.612 42.9453 244.388 42.9252 245.406 42.9654C246.122 42.9943 246.206 42.2454 245.493 42.1919C244.459 42.1139 243.514 42.1874 242.731 42.3345Z" fill="#15181D"/>
<path d="M251.372 43.1504C250.861 43.1727 250.83 42.4259 251.338 42.3769C253.558 42.1651 255.172 43.3465 254.74 43.6697C254.327 43.9773 254.486 43.0166 251.372 43.1504Z" fill="#15181D"/>
<path d="M245.128 76.3425C239.738 85.7758 223.312 107.424 223.312 107.424L215.689 98.5794C215.689 98.5794 228.644 71.0843 233.118 65.7078C234.926 63.5345 239.368 62.3197 239.368 62.3197L245.128 76.3403V76.3425Z" fill="#FA3719"/>
<path d="M269.689 123.631L239.114 124.262C235.197 103.079 233.548 65.317 234.758 64.3987C238.601 62.0203 244.109 60.4377 248.968 60.0788C248.968 60.0788 249.728 64.3741 254.779 64.5012C262.36 64.6907 262.993 60.9637 262.993 60.9637C269.438 63.4268 273.153 66.6322 275.177 69.4586C275.177 69.4586 268.918 99.3566 268.301 106.447C267.683 113.538 269.692 123.631 269.692 123.631H269.689Z" fill="#FC5126"/>
<path d="M266.91 43.5773C268.189 34.2154 267.251 30.7782 264.182 28.2015C260.209 24.8668 260.178 24.9448 255.437 23.1594C254.191 25.6448 256.741 36.5871 259.766 38.0627C262.568 39.4313 265.038 40.3854 266.91 43.5773Z" fill="#E5483F"/>
<path d="M259.766 38.0636C259.322 27.0366 259.169 23.7554 255.212 23.1202C250.498 22.3645 245.808 25.2979 244.223 28.4542C242.977 30.9396 243.122 35.819 243.256 39.1804C248.955 32.0185 259.766 38.0614 259.766 38.0614V38.0636Z" fill="#A7171F"/>
<path d="M238.869 31.3185C238.037 31.4657 235.006 31.8045 235.443 35.975C235.882 40.1767 239.636 39.4545 242.544 40.1277C242.522 40.1232 244.254 37.4662 248.255 35.9215C248.126 35.518 247.279 34.885 246.967 34.5952C242.823 30.7501 241.388 30.875 238.871 31.3185H238.869Z" fill="#A7171F"/>
<path d="M253.496 33.8347C251.128 32.7759 248.623 32.0648 246.122 31.3783C244.383 30.9013 241.807 30.5001 240.117 31.1331C242.027 31.0885 244.495 32.1295 245.872 33.4714C247.25 34.8132 248.447 36.3825 250.09 37.3833C251.505 38.2437 251.884 38.2415 253.542 38.2281C258.054 38.1924 258.81 38.1345 259.766 38.0632C259.764 37.9584 257.294 35.5332 253.496 33.8347Z" fill="#FF685D"/>
<path d="M263.618 213.791C266.286 212.935 267.828 212.686 270.543 213.831C270.853 213.963 270.878 214.393 270.989 214.823C270.989 214.99 270.835 215.528 270.668 215.528H263.417C263.25 215.528 262.824 215.191 262.853 215.028C262.991 214.268 263.134 213.945 263.618 213.789V213.791Z" fill="#2D3A64"/>
<path d="M270.695 209.41H263.241V216.768H270.695V209.41Z" fill="white"/>
<path d="M270.969 215.533C271.509 216.852 272.153 220.084 272.153 220.78C272.153 225.403 267.077 225.452 264.106 225.452C262.931 225.452 259.866 225.278 259.866 224.119C259.866 224.039 259.828 223.551 259.866 223.359C260.227 221.529 262.225 215.58 263.301 215.58C265.007 215.58 268.397 215.515 270.969 215.533Z" fill="#1A223B"/>
<path d="M270.969 214.772C271.509 216.091 272.153 219.324 272.153 220.019C272.153 224.642 267.077 224.691 264.106 224.691C262.931 224.691 259.866 224.517 259.866 223.358C259.866 222.507 262.153 214.504 263.301 214.819C265.011 215.287 267.862 215.53 270.969 214.772Z" fill="#2D3A64"/>
<path d="M266.582 218.961C268.426 218.961 269.921 217.646 269.921 216.025C269.921 214.404 268.426 213.089 266.582 213.089C264.738 213.089 263.243 214.404 263.243 216.025C263.243 217.646 264.738 218.961 266.582 218.961Z" fill="#2D3A64"/>
<path d="M243.857 205.908H233.66V213.266H243.857V205.908Z" fill="white"/>
<path d="M244.002 212.272C243.966 213.242 244.002 215.397 244.002 217.437C236.914 219.127 234.183 222.86 225.454 222.86C224.737 222.86 219.643 222.57 219.643 220.95C219.643 216.476 232.897 213.483 233.659 213.483C236.883 213.483 240.066 212.335 244.002 212.272Z" fill="#1A223B"/>
<path d="M244.002 210.89C243.966 211.86 244.002 214.777 244.002 216.817C236.914 218.506 234.183 222.24 225.454 222.24C224.737 222.24 219.643 221.95 219.643 220.33C219.643 215.856 232.966 211.186 233.659 211.505C236 212.586 240.037 213.266 244.002 210.89Z" fill="#2D3A64"/>
<path d="M228.671 215.771C229.442 217.106 231.715 217.238 233.748 216.063C235.781 214.888 235.946 212.225 235.175 210.889C234.718 210.096 233.287 210.145 232.139 211.451C231.345 212.205 231.428 212.035 229.076 212.916C228.396 213.892 228.202 214.962 228.671 215.773V215.771Z" fill="#2D3A64"/>
<path d="M260.936 81.0702C261.705 72.4014 262.485 66.2181 271.421 65.2886C270.298 64.475 268.163 63.4229 266.774 62.5915C258.754 65.7322 256.712 72.3814 256.458 81.0702H260.936Z" fill="#30419F"/>
<path d="M241.446 82.3224L236.97 82.2578C237.199 77.6526 236.419 68.5804 237.779 62.8139C239.029 62.3325 240.639 61.5166 242.134 61.296C240.529 67.8137 241.314 76.897 241.443 82.3202L241.446 82.3224Z" fill="#30419F"/>
<path d="M270.871 122.497C267.991 108.626 272.534 90.7577 272.534 90.7577C272.534 90.7577 271.714 90.8379 270.838 90.8647C270.251 94.8435 269.616 104.462 266.458 104.056C261.605 103.432 261.975 86.1815 262.18 81.2575C262.209 80.5465 261.641 79.9558 260.93 79.9558H235.173C234.805 79.9558 234.515 80.2656 234.542 80.6334C234.825 84.5409 235.438 104.653 237.984 122.617L270.873 122.497H270.871Z" fill="#30419F"/>
<path d="M231.221 90.158C232.516 90.0844 233.831 90.5525 234.79 91.4263C235.035 91.6492 235.262 91.91 235.358 92.2265C235.452 92.5431 235.38 92.9309 235.115 93.1271C234.955 93.2452 234.75 93.2831 234.553 93.3099C233.822 93.4124 233.08 93.4369 232.342 93.3834C231.598 93.3299 230.86 93.2006 230.144 92.9956C229.785 92.893 229.433 92.7727 229.088 92.6322C228.765 92.5029 228.372 92.3714 228.091 92.1619C227.519 91.7317 228.693 91.0229 228.992 90.8468C229.592 90.4901 230.267 90.2583 230.962 90.1803C231.049 90.1714 231.136 90.1625 231.223 90.158H231.221Z" fill="#FAA48A"/>
<path d="M224.995 96.3906L222.708 96.9077L224.13 95.0264L224.445 94.828L225.309 96.19L224.995 96.3906Z" fill="#E6E6E6"/>
<path d="M224.995 96.3899L224.574 95.7256L224.13 95.0257L237.077 86.8162C238.082 86.1787 238.945 87.5428 237.942 88.1781L224.995 96.3876V96.3899Z" fill="#1A305C"/>
<path d="M226.763 91.6915C225.925 91.7361 225.381 92.4806 225.323 92.9264C225.274 93.3053 226.139 94.0097 229.105 94.2147C228.365 94.3574 227.209 94.7185 227.202 95.4719C227.195 96.2298 228.082 96.5173 228.767 96.6533C228.031 96.9609 227.719 96.8606 227.692 97.536C227.681 97.8124 228.27 98.5346 228.88 98.5391C228.044 98.7865 227.739 98.9938 227.784 99.6179C227.822 100.155 230.592 102.569 232.65 102.843C235.079 103.167 236.002 103.182 238.285 103.358C239.216 99.0228 239.725 97.8079 239.876 97.0924C239.014 96.6711 238.641 95.5009 238.291 95.0417C237.257 93.6865 236.114 91.7851 234.542 91.6358C230.759 91.2791 226.854 91.687 226.761 91.6915H226.763Z" fill="#FEBAA5"/>
<path d="M276.784 68.6544C276.784 68.6544 282.859 70.5424 281.686 78.9771C280.772 85.5572 273.74 104.308 267.438 107.992C263.236 110.449 237.837 103.603 237.837 103.603L239.622 96.2655C239.622 96.2655 260 97.8592 260.693 96.9074C261.658 95.5789 263.022 89.38 266.83 79.1755C267.385 77.6909 271.602 63.7996 276.787 68.6544H276.784Z" fill="#FB7752"/>
<path d="M263.64 122.618C263.64 122.618 255.856 142.325 251.567 155.61C250.125 160.074 249.078 163.815 248.855 165.837C247.963 173.877 248.609 178.968 248.095 187.041C247.58 195.115 246.291 210.952 246.291 210.952L232.725 211.22C232.725 211.22 232.991 177.347 234.31 161.1C235.601 145.178 237.981 122.62 237.981 122.62H263.64V122.618Z" fill="#30419F"/>
<path d="M263.64 122.618C263.64 122.618 255.856 142.325 251.568 155.61C248.73 147.525 245.674 138.038 244.727 122.497L263.64 122.618Z" fill="#254787"/>
<path d="M270.808 122.19C270.808 122.19 273.662 132.219 273.461 140.658C273.347 145.397 273.882 148.85 274.616 187.3C274.769 195.394 271.274 214.383 271.274 214.383H263.009C263.009 214.383 258.393 178.87 257.98 173.427C256.799 157.83 247.14 149.982 244.729 122.498C249.477 121.047 267.249 122.719 270.811 122.193L270.808 122.19Z" fill="#30419F"/>
<path d="M210.373 100.875C210.56 100.79 210.765 100.665 210.796 100.46C210.834 100.224 210.622 100.03 210.433 99.8851C209.559 99.2142 208.685 98.5432 207.812 97.8723C207.335 97.5067 206.773 97.1189 206.184 97.2392C205.605 97.3574 205.217 97.9793 205.237 98.5722C205.259 99.1651 205.616 99.7046 206.073 100.081C206.347 100.309 206.655 100.474 206.967 100.641C207.183 100.757 207.375 100.904 207.575 101.042C208.034 101.361 208.643 101.307 209.169 101.227C209.584 101.165 209.989 101.046 210.373 100.875Z" fill="#FAB099"/>
<path d="M204.337 83.945C204.337 84.7764 205.554 85.4496 207.054 85.4496C208.554 85.4496 209.771 84.7764 209.771 83.945C209.771 83.1136 208.554 82.4404 207.054 82.4404C205.554 82.4404 204.337 83.1136 204.337 83.945Z" fill="#CC2D25"/>
<path d="M213.892 86.0952L212.86 84.1827C212.782 84.0378 212.631 83.9464 212.466 83.9464H202.33C202.112 83.9464 201.974 84.1782 202.076 84.3721L203.006 86.0952H213.89H213.892Z" fill="#E5483F"/>
<path d="M216.186 84.799H200.344C199.731 84.799 199.35 85.4611 199.656 85.9916L216.467 115.098C216.585 115.306 216.792 115.446 217.026 115.486L233.572 118.194C234.228 118.301 234.718 117.608 234.397 117.026L216.881 85.2114C216.741 84.9573 216.476 84.799 216.186 84.799Z" fill="#6A7DEB"/>
<path d="M215.522 104.041C215.738 103.689 215.883 103.06 215.635 102.728C215.388 102.396 215.014 102.349 214.681 102.585C214.844 102.242 215.022 101.674 214.86 101.268C214.695 100.862 214.331 100.664 213.895 100.637C214.372 100.243 214.657 99.4914 214.436 99.1258C214.115 98.602 213.478 98.6332 212.99 98.8316C213.257 98.5463 213.117 98.1227 212.994 98.0001C212.809 97.8129 211.726 97.8352 211.351 98.0113C206.169 100.421 206.044 100.584 205.467 101.232C205.012 101.743 204.784 102.523 205.11 103.125C205.435 103.727 206.418 103.909 206.811 103.348C206.354 104.259 206.351 105.273 206.677 105.697C206.893 105.978 207.464 106.127 208.186 105.991C208.003 106.624 207.941 107.081 208.445 107.614C208.951 108.147 209.813 108.287 210.348 107.552C210.348 108.414 210.419 108.931 211.117 109.257C211.935 109.638 212.553 108.624 213.027 107.971C213.676 107.077 214.171 106.248 215.519 104.043L215.522 104.041Z" fill="#FEBAA5"/>
<g style="mix-blend-mode:multiply">
<path d="M56.4715 226.9C87.3706 226.9 112.419 225.463 112.419 223.691C112.419 221.918 87.3706 220.481 56.4715 220.481C25.5725 220.481 0.523926 221.918 0.523926 223.691C0.523926 225.463 25.5725 226.9 56.4715 226.9Z" fill="#FCFCFC"/>
</g>
<path d="M48.5007 69.0303L50.3629 71.9891L52.248 74.9571C53.5124 76.9296 54.7723 78.909 56.0505 80.8677C57.3241 82.8287 58.6184 84.7736 59.9105 86.7048C61.2048 88.6313 62.5152 90.5417 63.8417 92.3648C64.1727 92.82 64.5038 93.2683 64.8348 93.7051C65.1659 94.1419 65.4946 94.5672 65.8165 94.9627C66.1338 95.3558 66.4556 95.7328 66.6855 95.988C66.7476 96.0593 66.7821 96.096 66.8211 96.1443C66.8211 96.1489 66.7913 96.1328 66.789 96.1374C66.7982 96.1466 66.7959 96.1535 66.8119 96.1696C66.8717 96.234 67.0257 96.3489 67.1982 96.4639C67.3683 96.5811 67.5683 96.7053 67.7798 96.8317C67.989 96.9582 68.2166 97.0846 68.4442 97.2133C68.904 97.4685 69.3891 97.7214 69.8857 97.9743C70.8788 98.4778 71.9087 98.9674 72.9525 99.4502C75.0422 100.413 77.178 101.365 79.3298 102.285L82.5668 103.664L85.806 105.018L85.8474 105.034C87.4727 105.715 88.2383 107.582 87.5601 109.207C86.9486 110.671 85.3692 111.437 83.8749 111.078L82.1185 110.658L80.3758 110.223C79.2149 109.931 78.0562 109.635 76.8975 109.322C75.7388 109.012 74.5825 108.694 73.4238 108.366C72.2651 108.037 71.1041 107.701 69.9408 107.338C68.7776 106.977 67.6097 106.6 66.4234 106.186C65.8303 105.979 65.2326 105.761 64.6187 105.522C64.3107 105.4 64.0026 105.278 63.6831 105.14C63.3635 105.005 63.0393 104.86 62.6922 104.692C62.3451 104.524 61.9864 104.342 61.5542 104.08C61.4462 104.016 61.3243 103.936 61.2117 103.862C61.0898 103.779 60.945 103.673 60.8277 103.588C60.6415 103.446 60.4461 103.296 60.2921 103.168C59.6415 102.634 59.1357 102.168 58.6437 101.701C58.154 101.237 57.6988 100.781 57.2506 100.326C56.8046 99.8732 56.3677 99.4203 55.9424 98.9697C54.2389 97.1651 52.6273 95.3604 51.0342 93.5442C49.441 91.7326 47.8938 89.898 46.3489 88.0658C44.8109 86.2289 43.2797 84.392 41.7716 82.5391L39.514 79.7527L38.3921 78.3526L37.2679 76.9342C34.9069 73.957 35.4081 69.6304 38.3875 67.2693C41.3647 64.9083 45.6914 65.4095 48.0524 68.3889C48.2064 68.5843 48.349 68.7843 48.4777 68.989L48.5007 69.0257V69.0303Z" fill="#FECDAC"/>
<path d="M102.582 111.807C100.832 110.948 97.7515 110.21 94.8594 108.044C94.418 107.713 93.9697 106.954 94.2916 106.816C94.9261 106.541 95.6801 106.752 96.3583 106.626C97.34 106.444 99.1125 105.416 98.9424 104.265C98.8481 103.63 98.3745 103.697 97.7814 103.911C95.0456 104.899 94.1743 104.182 92.1811 104.159C91.2041 104.147 91.5443 104.439 88.8936 104.867C88.397 104.947 87.7786 105.203 87.2912 105.117C87.0222 105.072 85.3647 104.835 84.7876 104.628C83.3439 107.205 83.3278 110.952 83.3278 110.952C84.2819 111.263 84.8382 111.081 85.6452 111.916C86.2912 112.585 86.3418 112.84 87.0751 113.421C88.0867 114.221 90.1396 115.644 92.6731 116.419C93.9628 116.815 94.7238 115.424 93.441 114.92C93.1421 114.803 92.8777 114.686 92.6639 114.541C92.8616 114.64 93.3605 114.833 95.8089 115.594C96.7699 115.893 97.7814 114.546 96.4871 114.051C95.8089 113.794 95.287 113.516 94.7606 113.191C95.179 113.465 97.0457 114.212 98.632 114.663C99.9033 115.026 100.874 113.389 99.7815 112.971C98.7056 112.559 97.7147 112.113 96.6204 111.435C96.6204 111.435 96.6204 111.433 96.625 111.43C97.0963 111.725 99.3976 112.828 101.552 113.523C102.529 113.837 103.825 112.417 102.579 111.805L102.582 111.807Z" fill="#FECDAC"/>
<path d="M18.519 199.178L14.1935 204.928L20.8646 209.946L25.1901 204.196L18.519 199.178Z" fill="white"/>
<path d="M32.3322 223.368C31.8103 223.653 31.1161 223.72 30.47 223.679C29.6861 223.623 23.8421 219.469 20.3799 217.513C19.2258 216.858 18.4189 216.676 18.2855 216.439C18.0855 216.083 17.7039 215.034 16.7797 214.49C15.8486 213.942 14.9084 214.159 14.9084 214.159C14.9084 214.159 8.1356 210.135 8.17928 208.466C8.19997 207.772 7.72409 207.823 8.54712 206.921C8.78161 206.664 9.0345 206.409 9.28738 206.167C10.8898 204.657 13.8968 201.62 15.5245 202.51C16.0923 202.815 17.3361 206.105 20.0236 206.535C21.6029 206.788 22.2283 205.855 24.1318 205.818C26.2124 205.788 26.0124 207.28 26.0009 209.565C26.0009 209.703 26.0009 209.843 26.0009 209.988C26.0055 210.623 26.0353 211.312 26.1342 212.041C26.1526 212.177 26.1733 212.315 26.1986 212.455C26.2928 213.007 26.4331 213.579 26.6331 214.165C26.64 214.186 26.6492 214.209 26.6561 214.228C26.702 214.359 26.7549 214.487 26.817 214.616C27.0584 215.136 27.4055 215.644 27.8124 216.14C27.9021 216.251 27.9941 216.359 28.0883 216.467C29.1183 217.639 30.4402 218.736 31.4724 219.724C32.5943 220.8 33.3759 221.754 33.0725 222.543C32.9276 222.922 32.6633 223.187 32.3322 223.366V223.368Z" fill="#2D3A64"/>
<path d="M32.3323 223.37C31.7622 223.952 30.1322 225.434 28.5437 224.338C23.4331 220.809 18.4259 217.558 14.3292 214.535C14.3292 214.535 7.25064 210.017 7.3472 209.197C7.45065 208.309 8.14034 207.259 9.28753 206.169C9.72203 206.353 10.1519 206.647 10.5428 207.04C12.2831 208.79 14.0096 210.535 15.8672 212.162C19.5409 215.383 23.5043 218.275 27.6953 220.793C29.2127 221.703 30.7599 222.563 32.3346 223.368L32.3323 223.37Z" fill="#1A223B"/>
<path d="M51.9009 166.934C49.1881 172.847 38.0335 192.025 27.9434 208.593C23.1684 206.895 18.8487 205.416 14.2163 202.168C14.5588 201.393 14.9174 200.605 15.2945 199.805C22.3477 184.714 33.8241 164.975 34.5575 162.235C35.8242 157.497 33.9851 128.831 34.4609 120.775C45.6569 117.722 55.6298 121.851 62.6417 119.865C60.1588 135.493 56.3931 157.147 51.9032 166.936L51.9009 166.934Z" fill="#3C4EB1"/>
<path d="M60.1383 51.0267C60.0831 51.8681 60.1061 52.79 60.1521 53.3418C60.1728 53.5763 60.1958 53.7418 60.221 53.8107C60.4946 54.5786 60.8946 55.8384 60.6877 56.3534C60.5222 56.7603 60.2578 57.0569 59.9176 57.2753C58.7428 58.0362 56.7289 57.8822 55.3495 58.4363C54.1357 58.9282 52.8184 60.1099 53.3058 63.3446C53.5334 64.8458 53.8621 68.9356 54.115 71.0392C53.6253 70.9219 49.6849 71.4599 49.1814 71.122C31.8265 71.0392 36.9693 67.9287 36.9762 67.9172C37.7027 66.393 42.2891 57.0546 42.1029 55.466C42.0983 55.443 42.0937 55.42 42.0914 55.397C41.5856 51.8129 37.6774 49.714 36.2957 46.3667C34.9462 43.1045 36.3785 39.1502 39.0568 36.849C41.7374 34.5477 45.395 33.6833 48.9239 33.6304C50.8826 33.6005 52.9057 33.8166 54.6185 34.7615C56.4852 35.7938 57.4462 37.5801 58.06 39.5112C58.175 39.8744 58.2784 40.24 58.3727 40.6078C58.7382 42.0354 58.621 42.4745 58.8049 43.8654C59.0716 45.9 61.5521 47.1369 61.7246 48.0541C61.9637 49.3025 60.4417 49.3209 60.3406 49.6519C60.2325 50.0037 60.1682 50.5002 60.136 51.0267H60.1383Z" fill="#F3AE84"/>
<path d="M56.3381 45.2328C56.4002 45.5616 56.7197 45.7777 57.0485 45.7156C57.3772 45.6535 57.5933 45.334 57.5313 45.0052C57.4692 44.6765 57.1496 44.4604 56.8209 44.5224C56.4921 44.5845 56.276 44.9041 56.3381 45.2328Z" fill="#5A392A"/>
<path d="M54.5723 43.3535C54.0665 43.6938 53.5952 44.8479 53.7171 44.88C53.7171 44.88 54.5309 44.1812 55.5608 43.8961C56.1747 43.726 56.8115 43.6547 57.4391 43.5535C57.7173 43.5099 58.0483 43.4478 58.2161 43.1926C58.3472 42.9949 58.3564 42.7121 58.1288 42.5972C57.7701 42.4155 55.3562 42.8248 54.5723 43.3535Z" fill="#15181D"/>
<g style="mix-blend-mode:multiply">
<path d="M48.317 52.7332C49.0619 54.5563 50.6689 55.8851 52.3356 56.9334C53.2851 57.5289 54.292 58.0668 55.3473 58.4392C56.7244 57.8852 58.7405 58.0392 59.9153 57.2783C59.6486 57.276 59.2003 57.407 59.0026 57.4185C58.644 57.4438 58.2853 57.4484 57.9244 57.4392C56.4738 57.3978 55.0346 57.0806 53.6897 56.5357C51.639 55.7058 49.8137 54.3609 48.3124 52.7355L48.317 52.7332Z" fill="#F2E9E6"/>
</g>
<path d="M53.3747 38.6747C52.4069 38.5413 51.3746 38.4172 50.4872 38.8287C49.0941 39.4747 48.5653 41.1989 48.5423 42.7346C48.5193 44.2703 48.8458 45.8313 48.4963 47.3257C48.4458 47.5418 48.3423 47.7923 48.1239 47.8314C47.8664 47.8774 47.6779 47.6038 47.5676 47.367C47.179 46.5141 46.8687 45.5876 46.1974 44.937C45.5238 44.2864 44.326 44.0473 43.6846 44.7301C43.1145 45.3348 43.2639 46.3302 43.6616 47.059C44.0593 47.7877 44.6617 48.4039 44.9697 49.1763C45.4249 50.3235 45.1444 51.6569 44.526 52.7236C43.9076 53.7903 42.988 54.6456 42.0822 55.4824C40.3603 53.1535 36.8843 49.6361 36.0222 46.7762C35.1853 44.0037 35.5831 42.5576 36.1578 39.7184C36.3969 38.5367 37.0337 37.2286 38.22 37.0102C37.7648 35.8078 38.3533 34.4009 39.3281 33.5618C40.3028 32.7226 41.588 32.3456 42.8478 32.0812C45.9836 31.4237 49.3033 31.3479 52.3494 32.3456C53.8253 32.8284 54.6622 34.148 56.0277 34.886C56.791 35.2998 57.2117 35.1411 57.8094 35.7734C58.4072 36.4033 58.7106 37.2953 58.5727 38.1528C58.3796 39.346 58.4348 39.7736 57.4186 39.3735C56.1726 38.8816 54.6966 38.8563 53.3747 38.6747Z" fill="#15181D"/>
<path d="M60.1519 53.3438C60.0163 53.2979 57.2874 52.33 56.4713 50.4885C57.4736 51.0058 59.4369 51.0403 60.1381 51.0265C60.1312 51.1207 60.1266 51.2173 60.122 51.3139C60.0944 51.9116 60.1036 52.5231 60.1289 52.9944C60.1358 53.1231 60.1427 53.2381 60.1519 53.3438Z" fill="#ED9D6D"/>
<path d="M60.1291 52.9946C59.8256 52.8934 58.0968 52.2635 57.0209 50.8312C58.0049 51.337 59.4716 51.3347 60.1222 51.3163C60.0946 51.9141 60.1038 52.5256 60.1291 52.9969V52.9946Z" fill="white"/>
<path d="M47.3192 30.0191L46.0639 30.0812C45.7835 30.095 45.5421 29.8766 45.5283 29.5984C45.5145 29.3179 45.7329 29.0788 46.0111 29.0628L47.2663 29.0007C47.5468 28.9869 47.7859 29.2053 47.802 29.4835C47.8157 29.7639 47.5973 30.003 47.3192 30.0191Z" fill="#41396B"/>
<path d="M60.7244 41.3365C59.5151 35.2902 53.4596 29.1566 47.011 29.4784C40.3463 29.8095 35.1967 36.6052 34.8886 43.0262C34.8886 43.0262 60.5312 41.3802 60.7244 41.3365Z" fill="#E5483F"/>
<path d="M59.1519 37.3687C61.2302 37.1848 69.941 37.1043 68.6673 38.9067C67.9891 39.8653 66.4833 40.978 64.897 41.2999C62.5866 41.7712 50.5354 42.0149 50.5354 42.0149C50.5354 42.0149 58.1151 40.4746 59.1519 37.3687Z" fill="#A7171F"/>
<path d="M61.0991 117.474C61.2623 119.194 62.7889 120.941 62.6141 121.468C57.069 123.394 39.6682 124.346 35.1967 123.898C34.461 122.661 33.8334 113.04 34.0794 110.683C35.3783 98.531 28.0216 88.9259 30.9344 73.9735C31.6793 70.1779 34.0219 64.3063 38.298 62.1936C44.5857 59.0785 57.4162 69.4468 58.9841 76.7897C59.7795 80.5232 59.1496 91.9146 60.8209 98.4C61.2417 100.051 61.644 101.671 62.0003 103.242C62.0003 103.242 62.0003 103.248 62.0095 103.248C63.359 109.102 60.7842 114.217 61.0991 117.474Z" fill="#FC5126"/>
<path d="M39.4754 60.2039L38.8638 61.9258C38.8638 61.9258 50.3725 63.7351 54.7221 70.0205C54.7221 70.0205 55.2003 66.1628 49.9885 62.3144C48.0528 60.8844 43.3905 59.8292 41.126 59.3832C40.4179 59.2429 39.6892 59.6062 39.4754 60.2039Z" fill="#FFC194"/>
<path d="M76.4693 210.32L76.6715 217.513L85.0157 217.279L84.8136 210.086L76.4693 210.32Z" fill="white"/>
<path d="M102.354 220.63C102.124 221.177 101.623 221.665 101.089 222.033C100.441 222.479 93.2822 222.872 89.3579 223.502C88.0452 223.708 87.3026 224.069 87.052 223.968C86.675 223.814 85.7232 223.233 84.6588 223.382C83.5898 223.534 82.9875 224.29 82.9875 224.29C82.9875 224.29 75.1825 225.366 74.1778 224.033C73.7617 223.476 73.4192 223.814 73.5019 222.596C73.5272 222.249 73.564 221.892 73.6123 221.543C73.9249 219.363 74.3824 215.115 76.2101 214.795C76.8446 214.68 79.8678 216.476 82.2357 215.138C83.6266 214.352 83.5346 213.232 85.0013 212.016C86.6083 210.696 87.3831 211.986 88.7992 213.782C88.8843 213.89 88.9717 214 89.0613 214.113C89.4613 214.605 89.9142 215.126 90.4453 215.634C90.5441 215.729 90.6476 215.825 90.7534 215.917C91.1695 216.29 91.6362 216.651 92.1603 216.984C92.1787 216.998 92.1994 217.007 92.2178 217.018C92.335 217.092 92.4569 217.159 92.5856 217.221C93.0983 217.476 93.6868 217.658 94.3144 217.793C94.4524 217.823 94.5926 217.851 94.7352 217.876C96.2709 218.152 97.9882 218.186 99.4135 218.315C100.961 218.458 102.168 218.715 102.421 219.522C102.545 219.911 102.501 220.281 102.356 220.628L102.354 220.63Z" fill="#2D3A64"/>
<path d="M102.352 220.63C102.269 221.442 101.917 223.616 99.993 223.748C93.7973 224.173 87.8568 224.754 82.7669 224.943C82.7669 224.943 74.4148 225.823 73.9803 225.122C73.509 224.364 73.3917 223.113 73.6101 221.545C74.0653 221.419 74.5826 221.38 75.1343 221.446C77.585 221.729 80.0242 222.016 82.491 222.134C87.3717 222.361 92.2731 222.154 97.1193 221.511C98.8735 221.276 100.618 220.984 102.352 220.632V220.63Z" fill="#1A223B"/>
<path d="M81.1601 162.991C82.6728 168.753 86.0752 193.002 88.7306 212.219C83.9579 213.923 79.6749 215.509 74.0333 215.92C73.808 215.102 73.5873 214.267 73.3735 213.408C69.2974 197.255 64.4972 171.465 63.9293 168.688C61.9752 159.141 34.2796 140.705 33.3324 119.019C33.1991 115.996 32.1645 106.343 31.2748 91.9441C32.3691 91.9372 34.9256 91.8705 35.4658 91.9441C39.0752 110.63 39.4798 115.182 48.8665 114.904C62.0764 114.511 50.2528 83.5345 53.0437 83.4862C55.0346 83.4517 56.4784 83.6356 59.6417 83.4908C61.9338 97.4823 63.2488 111.182 62.6442 120.336C62.4005 124.031 78.8841 154.324 81.1624 162.996L81.1601 162.991Z" fill="#30419F"/>
<path d="M119.89 79.6896H63.9866V126.676H119.89V79.6896Z" fill="#6A7DEB"/>
<path d="M98.1148 110.568H85.7647V126.676H98.1148V110.568Z" fill="#30419F"/>
<path d="M98.1148 79.6898H85.7647V95.7986H98.1148V79.6898Z" fill="#30419F"/>
<path fill-rule="evenodd" clip-rule="evenodd" d="M106.791 122.059C106.791 122.059 106.789 122.059 106.789 122.061C106.786 122.07 106.789 122.066 106.791 122.059ZM107.922 122.771L107.97 122.693L108.046 122.744L108.159 122.82L107.839 121.877L106.839 122.068L106.956 122.144L107.023 122.188L106.986 122.259L106.738 122.742C106.713 122.794 106.717 122.85 106.733 122.9C106.754 122.958 106.793 123.015 106.825 123.059V123.063L107.007 123.332C107.101 123.422 107.223 123.461 107.372 123.468H107.48L107.917 122.769L107.922 122.771ZM108.924 123.684V124.788H107.977C107.795 124.795 107.639 124.721 107.513 124.493L106.687 123.169C106.646 123.114 106.598 123.043 106.568 122.96C106.536 122.87 106.531 122.767 106.579 122.663L106.793 122.25L106.697 122.188L106.69 122.183C106.637 122.142 106.595 122.091 106.611 122.024C106.623 121.967 106.678 121.919 106.805 121.893L107.883 121.686L107.959 121.673L107.984 121.746L108.338 122.792C108.359 122.847 108.366 122.891 108.363 122.923C108.363 122.962 108.35 122.992 108.331 123.013C108.308 123.04 108.281 123.054 108.251 123.057C108.228 123.059 108.207 123.057 108.186 123.05H108.177L108.166 123.04L108.021 122.946L107.692 123.473H108.731C108.855 123.477 108.92 123.514 108.922 123.684H108.924Z" fill="#30419F"/>
<path d="M110.727 121.119C110.727 121.119 110.727 121.119 110.727 121.114C110.72 121.107 110.723 121.112 110.727 121.119ZM109.162 120.921L109.523 121.691L109.562 121.774L109.479 121.811L109.355 121.866L110.316 122.105L110.695 121.155L110.569 121.213L110.495 121.247L110.456 121.178L110.187 120.707C110.155 120.656 110.109 120.631 110.058 120.62C109.998 120.606 109.932 120.608 109.874 120.613H109.87L109.079 120.629L108.41 120.433H109.861C109.929 120.427 110.015 120.424 110.1 120.445C110.192 120.468 110.281 120.519 110.341 120.615L110.571 121.02L110.674 120.971H110.681C110.743 120.946 110.808 120.939 110.858 120.988C110.9 121.029 110.911 121.1 110.865 121.222L110.456 122.247L110.426 122.319L110.35 122.3L109.283 122.034C109.226 122.022 109.187 122.004 109.159 121.985C109.127 121.965 109.109 121.937 109.102 121.909C109.09 121.875 109.095 121.843 109.109 121.817C109.118 121.797 109.134 121.781 109.15 121.767L109.157 121.76L109.169 121.755L109.325 121.684L109.003 120.997L109.164 120.921H109.162Z" fill="#30419F"/>
<path fill-rule="evenodd" clip-rule="evenodd" d="M108.497 122.004L109.23 120.852C109.325 120.721 109.43 120.636 109.573 120.611L109.088 120.45L108.304 120.417C108.044 120.399 107.897 120.493 107.805 120.652L107.292 121.454L108.214 122.05C108.359 122.142 108.423 122.105 108.495 122.004H108.497Z" fill="#30419F"/>
<path fill-rule="evenodd" clip-rule="evenodd" d="M109.644 124.996C109.644 124.996 109.644 124.996 109.649 124.996C109.658 124.994 109.653 124.994 109.644 124.996ZM109.678 123.654H109.589L109.593 123.559L109.6 123.424L108.954 124.178L109.626 124.948L109.633 124.808L109.637 124.727L109.718 124.723L110.258 124.693C110.318 124.688 110.361 124.656 110.396 124.617C110.435 124.571 110.465 124.509 110.485 124.456V124.451L110.628 124.159C110.658 124.031 110.628 123.907 110.559 123.773L110.504 123.679L109.683 123.654H109.678ZM109.95 122.323L110.895 121.764L111.375 122.587C111.474 122.741 111.49 122.913 111.359 123.139L110.644 124.527C110.616 124.592 110.582 124.67 110.527 124.736C110.465 124.81 110.38 124.865 110.267 124.877L109.805 124.902L109.8 125.017V125.024C109.791 125.091 109.768 125.153 109.704 125.173C109.649 125.192 109.58 125.169 109.492 125.072L108.768 124.242L108.718 124.185L108.768 124.125L109.485 123.288C109.522 123.242 109.554 123.215 109.584 123.198C109.619 123.18 109.649 123.175 109.676 123.18C109.711 123.187 109.738 123.205 109.754 123.228C109.768 123.247 109.777 123.267 109.78 123.288V123.297V123.309L109.77 123.481L110.389 123.5L109.86 122.598C109.803 122.488 109.8 122.415 109.945 122.327L109.95 122.323Z" fill="#30419F"/>
<path d="M106.472 119.485C106.124 119.485 105.842 119.784 105.842 120.147V125.437C105.842 125.803 106.124 126.099 106.472 126.099H111.525C111.872 126.099 112.159 125.803 112.159 125.437V120.147C112.159 119.784 111.872 119.485 111.525 119.485H106.472ZM106.219 120.232C106.219 120.037 106.37 119.883 106.552 119.883H111.442C111.628 119.883 111.778 120.039 111.778 120.232V125.352C111.778 125.543 111.628 125.702 111.442 125.702H106.552C106.37 125.702 106.219 125.543 106.219 125.352V120.232Z" fill="#30419F"/>
<path d="M113.934 125.328H117.224C117.288 125.328 117.339 125.275 117.339 125.21C117.339 125.146 117.286 125.095 117.224 125.095H113.934C113.87 125.095 113.819 125.148 113.819 125.21C113.819 125.273 113.872 125.328 113.934 125.328Z" fill="#30419F"/>
<path fill-rule="evenodd" clip-rule="evenodd" d="M116.084 121.148V124.606H116.778V121.146H117.12L116.417 120.261L115.718 121.15L116.084 121.148Z" fill="#30419F"/>
<path fill-rule="evenodd" clip-rule="evenodd" d="M114.375 121.15V124.608H115.07V121.148L115.412 121.146L114.709 120.261L114.01 121.15H114.375Z" fill="#30419F"/>
<path d="M113.051 119.485C112.704 119.485 112.421 119.784 112.421 120.147V125.437C112.421 125.803 112.704 126.099 113.051 126.099H118.104C118.452 126.099 118.739 125.803 118.739 125.437V120.147C118.739 119.784 118.452 119.485 118.104 119.485H113.051ZM112.798 120.232C112.798 120.037 112.95 119.883 113.132 119.883H118.022C118.208 119.883 118.357 120.039 118.357 120.232V125.352C118.357 125.543 118.208 125.702 118.022 125.702H113.132C112.95 125.702 112.798 125.543 112.798 125.352V120.232Z" fill="#30419F"/>
<path d="M48.6134 73.2014L48.9721 74.8268L49.3468 76.4728L50.117 79.765C50.6388 81.9582 51.1607 84.1514 51.7101 86.3262C52.2596 88.5033 52.8297 90.6666 53.4206 92.8024C53.7171 93.8691 54.0229 94.9266 54.3402 95.9658C54.6574 97.0026 54.9862 98.0256 55.3287 98.9889C55.4988 99.4717 55.6736 99.9384 55.846 100.368C56.0161 100.794 56.1954 101.194 56.3081 101.44C56.3403 101.511 56.3518 101.536 56.3656 101.58C56.3564 101.571 56.3334 101.552 56.3288 101.555C56.3334 101.566 56.3288 101.571 56.3403 101.587C56.377 101.658 56.4989 101.805 56.6276 101.95C56.8943 102.251 57.2461 102.598 57.6116 102.945C58.3519 103.644 59.1726 104.359 60.0094 105.065C60.8485 105.773 61.7106 106.477 62.5843 107.176C64.3269 108.582 66.1086 109.976 67.9064 111.353L70.6099 113.42L73.3204 115.466L73.348 115.486C74.7527 116.548 75.0331 118.548 73.971 119.953C73.0124 121.224 71.2835 121.574 69.9226 120.843C65.8258 118.654 61.8302 116.399 57.8231 113.98C56.8253 113.371 55.8276 112.751 54.8275 112.104C53.8252 111.456 52.8274 110.792 51.7975 110.045C51.2802 109.668 50.7607 109.277 50.1951 108.796C49.9078 108.55 49.6204 108.297 49.2755 107.943C49.1882 107.854 49.0939 107.75 49.0066 107.654C48.91 107.546 48.802 107.415 48.7031 107.293C48.5537 107.104 48.3927 106.897 48.2732 106.73C47.7628 106.019 47.395 105.415 47.0478 104.821C46.7053 104.231 46.3972 103.665 46.103 103.102C45.5167 101.98 44.9857 100.886 44.4753 99.7935C43.9672 98.7038 43.4799 97.6187 43.0063 96.5336C42.0568 94.368 41.1694 92.2024 40.305 90.0367C39.4429 87.8688 38.5969 85.7032 37.7853 83.5284L36.5807 80.2592L35.9875 78.6178L35.3967 76.9533C34.1231 73.3715 35.9967 69.4357 39.5785 68.1621C43.1603 66.8885 47.0961 68.7621 48.3698 72.3439C48.4617 72.6014 48.5376 72.8612 48.5974 73.1233L48.6134 73.2014Z" fill="#FECDAC"/>
<path d="M40.4152 91.2039C44.8499 89.0705 53.5124 85.3945 53.5285 85.3853C51.864 79.2907 48.6524 64.2463 39.3301 67.9407C28.4836 72.2398 38.0703 85.8244 40.4152 91.2039Z" fill="#FB7752"/>
<path d="M87.6823 126.145C86.2064 124.874 83.4085 123.387 81.1532 120.563C80.8084 120.134 80.5647 119.285 80.9118 119.232C81.5946 119.127 82.2728 119.517 82.9602 119.568C83.9557 119.639 85.9282 119.088 86.0546 117.931C86.1236 117.292 85.6454 117.239 85.0178 117.297C82.1211 117.566 81.4567 116.655 79.5348 116.131C78.5922 115.874 78.8497 116.244 76.176 115.991C75.6748 115.943 75.0127 116.037 74.5621 115.832C74.3138 115.72 72.7689 115.076 72.2631 114.731C70.2194 116.862 69.263 120.488 69.263 120.488C70.109 121.028 70.6929 120.991 71.2654 122.003C71.7229 122.812 71.7068 123.072 72.2723 123.819C73.0494 124.849 74.6793 126.738 76.9369 128.127C78.0864 128.833 79.1715 127.679 78.0565 126.867C77.7967 126.679 77.5714 126.499 77.399 126.304C77.5646 126.449 78.0014 126.761 80.1785 128.113C81.0337 128.644 82.351 127.594 81.2222 126.789C80.6314 126.368 80.1946 125.971 79.767 125.525C80.1049 125.895 81.7234 127.086 83.1464 127.922C84.2867 128.594 85.6362 127.251 84.6844 126.573C83.7465 125.904 82.9004 125.223 82.0107 124.292C82.0107 124.292 82.013 124.292 82.0153 124.29C82.397 124.692 84.3488 126.341 86.2592 127.552C87.1259 128.104 88.7375 127.053 87.6869 126.148L87.6823 126.145Z" fill="#FECDAC"/>
<path d="M32.2794 92.134C31.2702 83.2531 28.9459 67.4133 38.7395 65.5074C50.4987 63.2177 57.1726 73.8963 57.6278 83.683L55.3173 83.552C54.8782 74.1033 48.3906 64.2683 38.9878 66.8983C29.4333 69.5697 34.3646 84.9866 35.5003 92.1363H32.2794V92.134Z" fill="#3C4EB1"/>
<defs>
<linearGradient id="paint0_linear_98_3022" x1="156.5" y1="34.0001" x2="156.5" y2="277" gradientUnits="userSpaceOnUse">
<stop stop-color="#30419F"/>
<stop offset="1" stop-color="#92A2FF" stop-opacity="0"/>
</linearGradient>
</defs>
</svg>
