<svg width="306" height="277" viewBox="0 0 306 277" fill="none" xmlns="http://www.w3.org/2000/svg">
<path d="M283 158.448C283 223.922 212.963 277 147.867 277C82.7707 277 30 223.922 30 158.448C30 92.9736 53.319 34 118.415 34C183.511 34 283 92.9736 283 158.448Z" fill="url(#paint0_linear_104_579)"/>
<mask id="mask0_104_579" style="mask-type:alpha" maskUnits="userSpaceOnUse" x="164" y="56" width="41" height="46">
<path d="M196.868 84.6782C196.868 93.7545 189.511 101.112 180.434 101.112C171.358 101.112 164 93.7545 164 84.6782C164 75.6018 192.889 56 201.965 56C211.041 56 196.868 75.6018 196.868 84.6782Z" fill="#FFCB3C"/>
</mask>
<g mask="url(#mask0_104_579)">
<path fill-rule="evenodd" clip-rule="evenodd" d="M178.477 82.4784C177.461 82.0522 176.313 81.9673 175.048 82.3376C170.728 83.6018 168.959 86.9682 168.722 90.9785C168.391 96.6151 171.203 103.554 173.721 107.001C174.016 107.404 174.581 107.492 174.984 107.198C175.385 106.904 175.474 106.339 175.18 105.936C172.844 102.739 170.218 96.3117 170.525 91.085C170.715 87.8523 172.073 85.09 175.555 84.0705C176.308 83.8501 176.994 83.8808 177.61 84.0975C177.41 84.4994 177.219 84.9021 177.037 85.3049C176.312 86.9176 175.228 91.3957 175.633 94.6881C175.953 97.2932 177.184 99.1616 179.724 99.0929C181.177 99.0541 182.25 98.1755 182.894 96.7352C183.688 94.959 183.796 92.2418 183.238 89.6366C182.775 87.4703 181.856 85.3916 180.566 83.9937C180.385 83.7977 180.198 83.6144 180.003 83.4447C184.237 75.9398 191.877 68.9757 199.722 66.0093C200.188 65.8333 200.422 65.3122 200.246 64.8453C200.07 64.3794 199.548 64.1446 199.082 64.3207C190.9 67.4144 182.925 74.6557 178.477 82.4784ZM179.128 85.1035C178.974 85.4168 178.826 85.7311 178.685 86.0453C178.034 87.4929 177.062 91.5122 177.425 94.4677C177.618 96.0317 178.151 97.3284 179.676 97.2878C180.423 97.2679 180.915 96.7388 181.245 95.9983C181.684 95.0167 181.84 93.6857 181.771 92.2689C181.661 90.071 180.998 87.6653 179.829 85.9641C179.613 85.6498 179.38 85.3599 179.128 85.1035Z" fill="#CBD3FD"/>
<path fill-rule="evenodd" clip-rule="evenodd" d="M193.675 77.3034C194.379 73.1956 197.073 68.825 199.967 65.7963C200.311 65.436 200.299 64.8644 199.938 64.5194C199.578 64.1754 199.006 64.188 198.662 64.5483C195.534 67.8218 192.656 72.5598 191.895 76.9981C191.811 77.4894 192.142 77.9562 192.633 78.0402C193.124 78.1242 193.591 77.7946 193.675 77.3034Z" fill="#CBD3FD"/>
<path fill-rule="evenodd" clip-rule="evenodd" d="M198.739 64.3762C195.764 66.0748 191.2 66.2969 187.873 65.4355C187.39 65.3109 186.897 65.6016 186.772 66.0838C186.648 66.5661 186.938 67.0591 187.421 67.1846C191.161 68.1517 196.289 67.8546 199.635 65.9448C200.067 65.6983 200.218 65.1456 199.971 64.7131C199.723 64.2805 199.172 64.1297 198.739 64.3762Z" fill="#CBD3FD"/>
</g>
<g opacity="0.52">
<g style="mix-blend-mode:multiply">
<path d="M150.421 226.99C179.373 226.99 202.843 225.912 202.843 224.582C202.843 223.252 179.373 222.174 150.421 222.174C121.47 222.174 98 223.252 98 224.582C98 225.912 121.47 226.99 150.421 226.99Z" fill="#CCE0F0"/>
</g>
<path d="M200.072 222.589H102.066V224.583H200.072V222.589Z" fill="#F8EFE9"/>
<path d="M200.073 212.782H102.066V214.776H200.073V212.782Z" fill="#F8EFE9"/>
<path d="M157.077 214.776H145.062V222.589H157.077V214.776Z" fill="#CCC2BC"/>
<path d="M114.981 214.776H102.966V222.589H114.981V214.776Z" fill="#CCC2BC"/>
<path d="M199.17 214.776H187.156V222.589H199.17V214.776Z" fill="#CCC2BC"/>
<path d="M177.061 139.491H126.582V144.837H177.061V139.491Z" fill="#E0DBDC"/>
<path d="M177.059 107H134.751V141.93H177.059V107Z" fill="#F5E4D5"/>
<path d="M160.656 129.955H151.156V141.93H160.656V129.955Z" fill="#CCC2BC"/>
<path d="M160.656 107H151.156V118.975H160.656V107Z" fill="#CCC2BC"/>
<path fill-rule="evenodd" clip-rule="evenodd" d="M144.07 138.289C144.07 138.289 144.07 138.287 144.068 138.289C144.07 138.294 144.072 138.297 144.07 138.289ZM143.597 139.238H143.672C143.773 139.232 143.854 139.207 143.92 139.146L144.042 138.965C144.065 138.934 144.094 138.894 144.108 138.855C144.12 138.822 144.122 138.784 144.106 138.748L143.937 138.422L143.911 138.373L143.958 138.344L144.037 138.292L143.359 138.163L143.144 138.799L143.221 138.749L143.273 138.715L143.306 138.767L143.603 139.238H143.597ZM142.749 139.238H143.454L143.232 138.882L143.133 138.946L143.126 138.951H143.12C143.107 138.958 143.092 138.96 143.076 138.958C143.056 138.956 143.037 138.946 143.021 138.929C143.009 138.913 143 138.894 143 138.868C143 138.846 143.004 138.817 143.018 138.78L143.258 138.075L143.275 138.025L143.327 138.035L144.058 138.175C144.142 138.192 144.18 138.225 144.189 138.265C144.199 138.31 144.172 138.344 144.136 138.372L144.132 138.375L144.067 138.416L144.211 138.696C144.244 138.767 144.241 138.836 144.22 138.896C144.201 138.951 144.168 139 144.139 139.037L143.578 139.929C143.492 140.083 143.387 140.133 143.263 140.128H142.619V139.384C142.619 139.269 142.664 139.244 142.749 139.241V139.238Z" fill="#9D9D9D"/>
<path d="M141.396 137.652C141.396 137.652 141.396 137.654 141.396 137.656C141.4 137.651 141.401 137.649 141.396 137.652ZM142.569 137.575L142.352 138.039L142.459 138.087L142.466 138.09L142.471 138.094C142.481 138.102 142.492 138.115 142.498 138.127C142.507 138.146 142.511 138.166 142.504 138.189C142.498 138.208 142.485 138.225 142.464 138.239C142.445 138.251 142.419 138.263 142.379 138.272L141.655 138.451L141.603 138.463L141.584 138.415L141.306 137.723C141.275 137.642 141.284 137.592 141.312 137.564C141.344 137.531 141.389 137.537 141.431 137.552H141.436L141.507 137.587L141.664 137.314C141.705 137.249 141.765 137.214 141.827 137.199C141.884 137.185 141.941 137.186 141.99 137.19H142.975L142.521 137.321L141.984 137.309H141.981C141.943 137.306 141.896 137.304 141.857 137.314C141.822 137.323 141.789 137.34 141.769 137.373L141.586 137.692L141.558 137.738L141.508 137.716L141.422 137.676L141.681 138.316L142.333 138.154L142.248 138.116L142.191 138.09L142.217 138.035L142.462 137.516L142.571 137.568L142.569 137.575Z" fill="#9D9D9D"/>
<path fill-rule="evenodd" clip-rule="evenodd" d="M142.911 138.252L142.412 137.476C142.348 137.386 142.276 137.33 142.179 137.312L142.507 137.204L143.038 137.181C143.216 137.169 143.314 137.231 143.376 137.34L143.723 137.882L143.097 138.283C142.999 138.346 142.956 138.321 142.907 138.252H142.911Z" fill="#9D9D9D"/>
<path fill-rule="evenodd" clip-rule="evenodd" d="M142.129 140.271H142.131C142.126 140.271 142.122 140.271 142.129 140.271ZM141.55 139.38L141.512 139.444C141.465 139.534 141.446 139.618 141.465 139.705L141.56 139.901V139.905C141.576 139.941 141.596 139.982 141.622 140.014C141.645 140.041 141.676 140.062 141.715 140.065L142.083 140.084L142.138 140.088V140.143L142.145 140.238L142.6 139.719L142.162 139.21L142.167 139.301L142.171 139.363H142.109L141.551 139.382L141.55 139.38ZM141.979 138.649L141.62 139.258L142.04 139.246L142.034 139.129V139.12V139.113C142.038 139.099 142.043 139.085 142.052 139.073C142.064 139.058 142.081 139.044 142.105 139.041C142.124 139.037 142.145 139.041 142.169 139.053C142.188 139.063 142.21 139.082 142.236 139.113L142.723 139.677L142.757 139.717L142.723 139.757L142.231 140.317C142.172 140.381 142.126 140.396 142.088 140.384C142.043 140.371 142.028 140.327 142.022 140.284V140.279L142.019 140.202L141.705 140.184C141.627 140.177 141.57 140.139 141.529 140.089C141.491 140.045 141.467 139.993 141.448 139.948L140.963 139.011C140.874 138.859 140.884 138.744 140.951 138.639L141.277 138.085L141.919 138.463C142.017 138.521 142.015 138.573 141.978 138.646L141.979 138.649Z" fill="#9D9D9D"/>
<path d="M144.284 136.555H140.855C140.618 136.555 140.425 136.757 140.425 137.001V140.571C140.425 140.817 140.62 141.017 140.855 141.017H144.284C144.519 141.017 144.712 140.817 144.712 140.571V137.001C144.712 136.757 144.519 136.555 144.284 136.555ZM144.455 140.514C144.455 140.643 144.351 140.75 144.229 140.75H140.91C140.784 140.75 140.682 140.643 140.682 140.514V137.06C140.682 136.929 140.784 136.824 140.91 136.824H144.229C144.353 136.824 144.455 136.929 144.455 137.06V140.514Z" fill="#9D9D9D"/>
<path d="M139.221 140.495H136.987C136.944 140.495 136.909 140.461 136.909 140.417C136.909 140.374 136.944 140.34 136.987 140.34H139.221C139.264 140.34 139.298 140.374 139.298 140.417C139.298 140.461 139.264 140.495 139.221 140.495Z" fill="#9D9D9D"/>
<path fill-rule="evenodd" clip-rule="evenodd" d="M137.762 137.676V140.006H137.289V137.674L137.058 137.673L137.534 137.076L138.01 137.676H137.762Z" fill="#9D9D9D"/>
<path fill-rule="evenodd" clip-rule="evenodd" d="M138.921 137.676V140.008H138.448V137.674H138.217L138.695 137.077L139.169 137.677L138.921 137.676Z" fill="#9D9D9D"/>
<path d="M139.819 136.555H136.39C136.154 136.555 135.961 136.757 135.961 137.001V140.571C135.961 140.817 136.155 141.017 136.39 141.017H139.819C140.054 141.017 140.247 140.817 140.247 140.571V137.001C140.247 136.757 140.054 136.555 139.819 136.555ZM139.99 140.514C139.99 140.643 139.887 140.75 139.764 140.75H136.445C136.319 140.75 136.218 140.643 136.218 140.514V137.06C136.218 136.929 136.319 136.824 136.445 136.824H139.764C139.888 136.824 139.99 136.929 139.99 137.06V140.514Z" fill="#9D9D9D"/>
<path d="M148.75 136.555H145.321C145.084 136.555 144.891 136.757 144.891 137.001V140.571C144.891 140.817 145.086 141.017 145.321 141.017H148.75C148.985 141.017 149.178 140.817 149.178 140.571V137.001C149.178 136.757 148.985 136.555 148.75 136.555ZM148.921 140.514C148.921 140.643 148.817 140.75 148.695 140.75H145.376C145.25 140.75 145.148 140.643 145.148 140.514V137.06C145.148 136.929 145.25 136.824 145.376 136.824H148.695C148.819 136.824 148.921 136.929 148.921 137.06V140.514Z" fill="#9D9D9D"/>
<path fill-rule="evenodd" clip-rule="evenodd" d="M147.015 137.714C146.283 137.714 145.669 138.223 145.507 138.906C145.562 138.849 145.66 138.813 145.773 138.813C145.938 138.813 146.073 138.894 146.087 138.998C146.102 138.896 146.237 138.817 146.399 138.817C146.561 138.817 146.699 138.898 146.713 139.001C146.728 138.899 146.863 138.82 147.025 138.82C147.187 138.82 147.325 138.901 147.339 139.005C147.354 138.903 147.489 138.824 147.651 138.824C147.813 138.824 147.955 138.906 147.965 139.012C147.975 138.906 148.112 138.824 148.279 138.824C148.374 138.824 148.46 138.851 148.517 138.894C148.352 138.218 147.741 137.716 147.013 137.716L147.015 137.714Z" fill="#9D9D9D"/>
<path d="M147.106 137.635C147.106 137.595 147.073 137.562 147.033 137.562C146.994 137.562 146.961 137.595 146.961 137.635L146.958 140.236C146.958 140.276 146.99 140.309 147.03 140.309C147.07 140.309 147.102 140.276 147.102 140.236L147.106 137.635Z" fill="#9D9D9D"/>
<path d="M146.573 140.06C146.6 140.033 146.602 139.988 146.573 139.958C146.545 139.931 146.5 139.929 146.471 139.958C146.399 140.031 146.361 140.126 146.361 140.221C146.361 140.315 146.395 140.41 146.468 140.484C146.54 140.557 146.635 140.595 146.73 140.595C146.825 140.595 146.92 140.56 146.994 140.488C147.03 140.453 147.058 140.41 147.077 140.365C147.096 140.321 147.106 140.271 147.104 140.221C147.104 140.181 147.071 140.15 147.032 140.15C146.992 140.15 146.961 140.183 146.961 140.222C146.961 140.253 146.956 140.283 146.944 140.312C146.932 140.34 146.914 140.365 146.894 140.388C146.849 140.431 146.79 140.453 146.732 140.453C146.673 140.453 146.616 140.429 146.571 140.384C146.528 140.34 146.506 140.281 146.506 140.222C146.506 140.164 146.528 140.107 146.575 140.062L146.573 140.06Z" fill="#9D9D9D"/>
<path d="M134.751 107H126.582V141.93H134.751V107Z" fill="#CCC2BC"/>
<path d="M197.878 174.986H147.399V180.332H197.878V174.986Z" fill="#DFDBDC"/>
<path d="M197.877 142.498H155.569V177.427H197.877V142.498Z" fill="#F5E4D5"/>
<path d="M181.474 165.45H171.974V177.425H181.474V165.45Z" fill="#CCC2BC"/>
<path d="M181.474 142.498H171.974V154.473H181.474V142.498Z" fill="#CCC2BC"/>
<path fill-rule="evenodd" clip-rule="evenodd" d="M164.887 173.785C164.887 173.785 164.887 173.784 164.886 173.785C164.887 173.791 164.889 173.794 164.887 173.785ZM164.415 174.734H164.489C164.591 174.729 164.672 174.703 164.737 174.643L164.86 174.462C164.882 174.431 164.912 174.391 164.925 174.351C164.938 174.318 164.939 174.28 164.924 174.244L164.755 173.918L164.731 173.87L164.777 173.841L164.856 173.789L164.179 173.659L163.963 174.296L164.041 174.246L164.092 174.211L164.125 174.263L164.422 174.734H164.415ZM163.566 174.734H164.272L164.049 174.379L163.951 174.443L163.944 174.448H163.937C163.925 174.455 163.909 174.456 163.894 174.455C163.873 174.453 163.854 174.443 163.839 174.425C163.827 174.41 163.818 174.391 163.818 174.365C163.818 174.343 163.821 174.313 163.835 174.277L164.075 173.572L164.092 173.521L164.144 173.532L164.875 173.672C164.96 173.689 164.998 173.722 165.007 173.761C165.017 173.806 164.989 173.841 164.953 173.868L164.95 173.872L164.884 173.913L165.029 174.193C165.062 174.263 165.058 174.332 165.038 174.393C165.019 174.448 164.986 174.496 164.956 174.534L164.396 175.426C164.31 175.579 164.204 175.629 164.08 175.624H163.437V174.881C163.437 174.765 163.482 174.741 163.566 174.738V174.734Z" fill="#9D9D9D"/>
<path d="M162.214 173.147C162.214 173.147 162.214 173.149 162.214 173.151C162.217 173.146 162.219 173.144 162.214 173.147ZM163.387 173.07L163.169 173.534L163.276 173.582L163.283 173.586L163.288 173.589C163.299 173.598 163.309 173.61 163.316 173.622C163.325 173.641 163.328 173.661 163.321 173.684C163.316 173.703 163.302 173.72 163.281 173.734C163.262 173.746 163.237 173.758 163.197 173.767L162.472 173.946L162.421 173.958L162.402 173.91L162.124 173.218C162.093 173.137 162.102 173.087 162.129 173.059C162.162 173.027 162.207 173.032 162.248 173.047H162.253L162.324 173.082L162.481 172.809C162.522 172.744 162.583 172.709 162.645 172.694C162.702 172.68 162.759 172.682 162.807 172.685H163.792L163.338 172.818L162.802 172.806H162.798C162.76 172.802 162.714 172.801 162.674 172.811C162.64 172.82 162.607 172.837 162.586 172.87L162.403 173.189L162.376 173.235L162.326 173.213L162.24 173.173L162.498 173.813L163.15 173.651L163.066 173.613L163.009 173.587L163.035 173.532L163.28 173.013L163.388 173.065L163.387 173.07Z" fill="#9D9D9D"/>
<path fill-rule="evenodd" clip-rule="evenodd" d="M163.728 173.748L163.23 172.972C163.166 172.882 163.094 172.825 162.997 172.808L163.325 172.699L163.856 172.677C164.034 172.665 164.132 172.727 164.194 172.835L164.541 173.377L163.915 173.779C163.816 173.841 163.773 173.817 163.725 173.748H163.728Z" fill="#9D9D9D"/>
<path fill-rule="evenodd" clip-rule="evenodd" d="M162.947 175.766H162.948C162.943 175.766 162.94 175.766 162.947 175.766ZM162.367 174.876L162.329 174.939C162.283 175.029 162.264 175.114 162.283 175.2L162.377 175.397V175.4C162.393 175.436 162.414 175.478 162.44 175.509C162.462 175.536 162.493 175.557 162.533 175.56L162.9 175.579L162.955 175.583V175.638L162.962 175.733L163.418 175.214L162.979 174.705L162.985 174.796L162.988 174.858H162.926L162.369 174.877L162.367 174.876ZM162.797 174.144L162.438 174.753L162.857 174.741L162.852 174.624V174.615V174.608C162.855 174.594 162.86 174.581 162.869 174.569C162.881 174.553 162.898 174.539 162.923 174.536C162.942 174.532 162.962 174.536 162.986 174.548C163.005 174.558 163.028 174.577 163.054 174.608L163.54 175.172L163.575 175.212L163.54 175.252L163.049 175.812C162.99 175.876 162.943 175.892 162.905 175.88C162.86 175.866 162.845 175.823 162.84 175.779V175.774L162.836 175.697L162.522 175.679C162.445 175.673 162.388 175.635 162.346 175.585C162.308 175.54 162.284 175.488 162.265 175.443L161.781 174.506C161.691 174.355 161.701 174.239 161.769 174.134L162.095 173.58L162.736 173.958C162.835 174.017 162.833 174.068 162.795 174.141L162.797 174.144Z" fill="#9D9D9D"/>
<path d="M165.102 172.05H161.672C161.436 172.05 161.243 172.252 161.243 172.497V176.066C161.243 176.312 161.438 176.512 161.672 176.512H165.102C165.336 176.512 165.529 176.312 165.529 176.066V172.497C165.529 172.252 165.336 172.05 165.102 172.05ZM165.272 176.009C165.272 176.138 165.169 176.245 165.046 176.245H161.727C161.601 176.245 161.5 176.138 161.5 176.009V172.555C161.5 172.424 161.601 172.319 161.727 172.319H165.046C165.171 172.319 165.272 172.424 165.272 172.555V176.009Z" fill="#9D9D9D"/>
<path d="M160.038 175.99H157.804C157.761 175.99 157.727 175.956 157.727 175.913C157.727 175.869 157.761 175.835 157.804 175.835H160.038C160.081 175.835 160.116 175.869 160.116 175.913C160.116 175.956 160.081 175.99 160.038 175.99Z" fill="#9D9D9D"/>
<path fill-rule="evenodd" clip-rule="evenodd" d="M158.579 173.171V175.504H158.106V173.17H157.873L158.351 172.573L158.826 173.173L158.579 173.171Z" fill="#9D9D9D"/>
<path fill-rule="evenodd" clip-rule="evenodd" d="M159.738 173.173V175.505H159.266V173.171H159.035L159.511 172.573L159.987 173.173H159.738Z" fill="#9D9D9D"/>
<path d="M160.637 172.05H157.208C156.971 172.05 156.778 172.252 156.778 172.497V176.066C156.778 176.312 156.973 176.512 157.208 176.512H160.637C160.872 176.512 161.065 176.312 161.065 176.066V172.497C161.065 172.252 160.872 172.05 160.637 172.05ZM160.808 176.009C160.808 176.138 160.704 176.245 160.582 176.245H157.263C157.137 176.245 157.035 176.138 157.035 176.009V172.555C157.035 172.424 157.137 172.319 157.263 172.319H160.582C160.706 172.319 160.808 172.424 160.808 172.555V176.009Z" fill="#9D9D9D"/>
<path d="M169.567 172.05H166.138C165.902 172.05 165.709 172.252 165.709 172.497V176.066C165.709 176.312 165.904 176.512 166.138 176.512H169.567C169.802 176.512 169.995 176.312 169.995 176.066V172.497C169.995 172.252 169.802 172.05 169.567 172.05ZM169.738 176.009C169.738 176.138 169.635 176.245 169.512 176.245H166.193C166.067 176.245 165.966 176.138 165.966 176.009V172.555C165.966 172.424 166.067 172.319 166.193 172.319H169.512C169.636 172.319 169.738 172.424 169.738 172.555V176.009Z" fill="#9D9D9D"/>
<path fill-rule="evenodd" clip-rule="evenodd" d="M167.83 173.209C167.099 173.209 166.485 173.718 166.323 174.401C166.378 174.345 166.476 174.308 166.588 174.308C166.754 174.308 166.889 174.389 166.902 174.493C166.918 174.391 167.052 174.312 167.215 174.312C167.377 174.312 167.515 174.393 167.529 174.496C167.544 174.395 167.679 174.315 167.841 174.315C168.003 174.315 168.141 174.396 168.155 174.5C168.17 174.398 168.305 174.319 168.467 174.319C168.629 174.319 168.771 174.401 168.781 174.507C168.791 174.401 168.928 174.319 169.095 174.319C169.19 174.319 169.276 174.346 169.333 174.389C169.167 173.713 168.557 173.211 167.829 173.211L167.83 173.209Z" fill="#9D9D9D"/>
<path d="M167.923 173.131C167.923 173.091 167.891 173.058 167.851 173.058C167.811 173.058 167.778 173.091 167.778 173.131L167.775 175.732C167.775 175.772 167.808 175.804 167.847 175.804C167.887 175.804 167.92 175.772 167.92 175.732L167.923 173.131Z" fill="#9D9D9D"/>
<path d="M167.391 175.558C167.418 175.53 167.42 175.484 167.391 175.456C167.363 175.428 167.318 175.427 167.289 175.456C167.216 175.528 167.178 175.623 167.178 175.718C167.178 175.813 167.213 175.908 167.285 175.982C167.358 176.055 167.453 176.092 167.548 176.092C167.642 176.092 167.737 176.058 167.812 175.986C167.848 175.951 167.875 175.908 167.894 175.863C167.913 175.818 167.924 175.768 167.922 175.718C167.922 175.678 167.889 175.647 167.849 175.647C167.81 175.647 167.779 175.68 167.779 175.72C167.779 175.751 167.774 175.78 167.762 175.81C167.749 175.837 167.732 175.863 167.711 175.885C167.667 175.929 167.608 175.951 167.549 175.951C167.491 175.951 167.434 175.927 167.389 175.882C167.346 175.837 167.323 175.778 167.323 175.72C167.323 175.661 167.348 175.604 167.392 175.559L167.391 175.558Z" fill="#9D9D9D"/>
<path d="M155.569 142.498H147.399V177.427H155.569V142.498Z" fill="#CCC2BC"/>
<path d="M197.877 177.854H155.569V212.783H197.877V177.854Z" fill="#F5E4D5"/>
<path d="M181.474 200.807H171.974V212.782H181.474V200.807Z" fill="#CCC2BC"/>
<path d="M181.474 177.854H171.974V189.829H181.474V177.854Z" fill="#CCC2BC"/>
<path fill-rule="evenodd" clip-rule="evenodd" d="M164.887 209.142C164.887 209.142 164.887 209.14 164.886 209.142C164.887 209.147 164.889 209.15 164.887 209.142ZM164.415 210.091H164.489C164.591 210.085 164.672 210.06 164.737 209.999L164.86 209.818C164.882 209.787 164.912 209.747 164.925 209.708C164.938 209.675 164.939 209.637 164.924 209.601L164.755 209.275L164.731 209.226L164.777 209.197L164.856 209.145L164.179 209.016L163.963 209.652L164.041 209.602L164.092 209.568L164.125 209.62L164.422 210.091H164.415ZM163.566 210.091H164.272L164.049 209.735L163.951 209.799L163.944 209.804H163.937C163.925 209.811 163.909 209.813 163.894 209.811C163.873 209.809 163.854 209.799 163.839 209.782C163.827 209.766 163.818 209.747 163.818 209.721C163.818 209.699 163.821 209.67 163.835 209.633L164.075 208.928L164.092 208.878L164.144 208.888L164.875 209.028C164.96 209.045 164.998 209.078 165.007 209.118C165.017 209.163 164.989 209.197 164.953 209.225L164.95 209.228L164.884 209.27L165.029 209.549C165.062 209.62 165.058 209.689 165.038 209.749C165.019 209.804 164.986 209.853 164.956 209.891L164.396 210.782C164.31 210.936 164.204 210.986 164.08 210.981H163.437V210.237C163.437 210.122 163.482 210.098 163.566 210.094V210.091Z" fill="#9D9D9D"/>
<path d="M162.214 208.504C162.214 208.504 162.214 208.506 162.214 208.507C162.217 208.502 162.219 208.5 162.214 208.504ZM163.387 208.426L163.169 208.89L163.276 208.939L163.283 208.942L163.288 208.945C163.299 208.954 163.309 208.966 163.316 208.978C163.325 208.997 163.328 209.018 163.321 209.04C163.316 209.059 163.302 209.077 163.281 209.09C163.262 209.102 163.237 209.114 163.197 209.123L162.472 209.302L162.421 209.315L162.402 209.266L162.124 208.575C162.093 208.493 162.102 208.443 162.129 208.416C162.162 208.383 162.207 208.388 162.248 208.404H162.253L162.324 208.438L162.481 208.166C162.522 208.1 162.583 208.066 162.645 208.05C162.702 208.036 162.759 208.038 162.807 208.041H163.792L163.338 208.174L162.802 208.162H162.798C162.76 208.159 162.714 208.157 162.674 208.167C162.64 208.176 162.607 208.193 162.586 208.226L162.403 208.545L162.376 208.592L162.326 208.569L162.24 208.53L162.498 209.17L163.15 209.008L163.066 208.97L163.009 208.944L163.035 208.888L163.28 208.369L163.388 208.421L163.387 208.426Z" fill="#9D9D9D"/>
<path fill-rule="evenodd" clip-rule="evenodd" d="M163.728 209.103L163.23 208.327C163.166 208.238 163.094 208.181 162.997 208.163L163.325 208.055L163.856 208.032C164.034 208.02 164.132 208.082 164.194 208.191L164.541 208.733L163.915 209.135C163.816 209.197 163.773 209.172 163.725 209.103H163.728Z" fill="#9D9D9D"/>
<path fill-rule="evenodd" clip-rule="evenodd" d="M162.947 211.122H162.948C162.943 211.122 162.94 211.122 162.947 211.122ZM162.367 210.232L162.329 210.296C162.283 210.386 162.264 210.47 162.283 210.556L162.377 210.753V210.756C162.393 210.793 162.414 210.834 162.44 210.865C162.462 210.893 162.493 210.913 162.533 210.917L162.9 210.936L162.955 210.939V210.994L162.962 211.089L163.418 210.57L162.979 210.061L162.985 210.153L162.988 210.215H162.926L162.369 210.234L162.367 210.232ZM162.797 209.501L162.438 210.11L162.857 210.097L162.852 209.98V209.972V209.965C162.855 209.951 162.86 209.937 162.869 209.925C162.881 209.909 162.898 209.896 162.923 209.892C162.942 209.889 162.962 209.892 162.986 209.904C163.005 209.915 163.028 209.934 163.054 209.965L163.54 210.529L163.575 210.568L163.54 210.608L163.049 211.169C162.99 211.233 162.943 211.248 162.905 211.236C162.86 211.222 162.845 211.181 162.84 211.136V211.131L162.836 211.053L162.522 211.036C162.445 211.029 162.388 210.991 162.346 210.941C162.308 210.896 162.284 210.844 162.265 210.8L161.781 209.863C161.691 209.711 161.701 209.594 161.769 209.49L162.095 208.937L162.736 209.314C162.835 209.373 162.833 209.425 162.795 209.497L162.797 209.501Z" fill="#9D9D9D"/>
<path d="M165.102 207.407H161.672C161.436 207.407 161.243 207.609 161.243 207.854V211.423C161.243 211.669 161.438 211.869 161.672 211.869H165.102C165.336 211.869 165.529 211.669 165.529 211.423V207.854C165.529 207.609 165.336 207.407 165.102 207.407ZM165.272 211.366C165.272 211.495 165.169 211.602 165.046 211.602H161.727C161.601 211.602 161.5 211.495 161.5 211.366V207.912C161.5 207.781 161.601 207.676 161.727 207.676H165.046C165.171 207.676 165.272 207.781 165.272 207.912V211.366Z" fill="#9D9D9D"/>
<path d="M160.038 211.346H157.804C157.761 211.346 157.727 211.312 157.727 211.269C157.727 211.225 157.761 211.191 157.804 211.191H160.038C160.081 211.191 160.116 211.225 160.116 211.269C160.116 211.312 160.081 211.346 160.038 211.346Z" fill="#9D9D9D"/>
<path fill-rule="evenodd" clip-rule="evenodd" d="M158.579 208.528V210.86H158.106V208.526H157.873L158.351 207.929L158.826 208.53L158.579 208.528Z" fill="#9D9D9D"/>
<path fill-rule="evenodd" clip-rule="evenodd" d="M159.738 208.53V210.862H159.266V208.528L159.035 208.526L159.511 207.929L159.987 208.53H159.738Z" fill="#9D9D9D"/>
<path d="M160.637 207.407H157.208C156.971 207.407 156.778 207.609 156.778 207.854V211.423C156.778 211.669 156.973 211.869 157.208 211.869H160.637C160.872 211.869 161.065 211.669 161.065 211.423V207.854C161.065 207.609 160.872 207.407 160.637 207.407ZM160.808 211.366C160.808 211.495 160.704 211.602 160.582 211.602H157.263C157.137 211.602 157.035 211.495 157.035 211.366V207.912C157.035 207.781 157.137 207.676 157.263 207.676H160.582C160.706 207.676 160.808 207.781 160.808 207.912V211.366Z" fill="#9D9D9D"/>
<path d="M169.567 207.407H166.138C165.902 207.407 165.709 207.609 165.709 207.854V211.423C165.709 211.669 165.904 211.869 166.138 211.869H169.567C169.802 211.869 169.995 211.669 169.995 211.423V207.854C169.995 207.609 169.802 207.407 169.567 207.407ZM169.738 211.366C169.738 211.495 169.635 211.602 169.512 211.602H166.193C166.067 211.602 165.966 211.495 165.966 211.366V207.912C165.966 207.781 166.067 207.676 166.193 207.676H169.512C169.636 207.676 169.738 207.781 169.738 207.912V211.366Z" fill="#9D9D9D"/>
<path fill-rule="evenodd" clip-rule="evenodd" d="M167.83 208.566C167.099 208.566 166.485 209.075 166.323 209.758C166.378 209.701 166.476 209.665 166.588 209.665C166.754 209.665 166.889 209.746 166.902 209.849C166.918 209.748 167.052 209.668 167.215 209.668C167.377 209.668 167.515 209.749 167.529 209.853C167.544 209.751 167.679 209.672 167.841 209.672C168.003 209.672 168.141 209.753 168.155 209.856C168.17 209.754 168.305 209.675 168.467 209.675C168.629 209.675 168.771 209.758 168.781 209.863C168.791 209.758 168.928 209.675 169.095 209.675C169.19 209.675 169.276 209.703 169.333 209.746C169.167 209.07 168.557 208.568 167.829 208.568L167.83 208.566Z" fill="#9D9D9D"/>
<path d="M167.923 208.486C167.923 208.446 167.891 208.414 167.851 208.414C167.811 208.414 167.778 208.446 167.778 208.486L167.775 211.087C167.775 211.127 167.808 211.16 167.847 211.16C167.887 211.16 167.92 211.127 167.92 211.087L167.923 208.486Z" fill="#9D9D9D"/>
<path d="M167.391 210.913C167.418 210.886 167.42 210.841 167.391 210.811C167.363 210.784 167.318 210.782 167.289 210.811C167.216 210.884 167.178 210.979 167.178 211.074C167.178 211.168 167.213 211.263 167.285 211.338C167.358 211.41 167.453 211.448 167.548 211.448C167.642 211.448 167.737 211.413 167.812 211.341C167.848 211.306 167.875 211.263 167.894 211.219C167.913 211.174 167.924 211.124 167.922 211.074C167.922 211.034 167.889 211.003 167.849 211.003C167.81 211.003 167.779 211.036 167.779 211.075C167.779 211.106 167.774 211.136 167.762 211.165C167.749 211.193 167.732 211.218 167.711 211.241C167.667 211.284 167.608 211.306 167.549 211.306C167.491 211.306 167.434 211.284 167.389 211.237C167.346 211.193 167.323 211.134 167.323 211.075C167.323 211.017 167.348 210.96 167.392 210.915L167.391 210.913Z" fill="#9D9D9D"/>
<path d="M155.569 177.854H147.399V212.783H155.569V177.854Z" fill="#CCC2BC"/>
<path d="M154.706 174.986H104.227V180.332H154.706V174.986Z" fill="#E0DBDC"/>
<path d="M154.705 142.498H112.397V177.427H154.705V142.498Z" fill="#F5E4D5"/>
<path d="M138.302 165.45H128.802V177.425H138.302V165.45Z" fill="#CCC2BC"/>
<path d="M138.302 142.498H128.802V154.473H138.302V142.498Z" fill="#CCC2BC"/>
<path fill-rule="evenodd" clip-rule="evenodd" d="M121.714 173.785C121.714 173.785 121.714 173.784 121.712 173.785C121.714 173.791 121.715 173.794 121.714 173.785ZM121.241 174.734H121.315C121.417 174.729 121.498 174.703 121.564 174.643L121.686 174.462C121.709 174.431 121.738 174.391 121.752 174.351C121.764 174.318 121.765 174.28 121.75 174.244L121.581 173.918L121.555 173.87L121.602 173.841L121.681 173.789L121.003 173.659L120.787 174.296L120.865 174.246L120.917 174.211L120.949 174.263L121.246 174.734H121.241ZM120.392 174.734H121.098L120.875 174.379L120.777 174.443L120.77 174.448H120.763C120.751 174.455 120.736 174.456 120.72 174.455C120.699 174.453 120.68 174.443 120.665 174.425C120.653 174.41 120.644 174.391 120.644 174.365C120.644 174.343 120.648 174.313 120.661 174.277L120.901 173.572L120.918 173.521L120.97 173.532L121.702 173.672C121.786 173.689 121.824 173.722 121.833 173.761C121.843 173.806 121.815 173.841 121.779 173.868L121.776 173.872L121.71 173.913L121.855 174.193C121.888 174.263 121.884 174.332 121.864 174.393C121.845 174.448 121.812 174.496 121.783 174.534L121.222 175.426C121.136 175.579 121.031 175.629 120.906 175.624H120.263V174.881C120.263 174.765 120.308 174.741 120.392 174.738V174.734Z" fill="#9D9D9D"/>
<path d="M119.042 173.147C119.042 173.147 119.042 173.149 119.042 173.151C119.045 173.146 119.047 173.144 119.042 173.147ZM120.215 173.07L119.997 173.534L120.104 173.582L120.111 173.586L120.116 173.589C120.127 173.598 120.137 173.61 120.144 173.622C120.153 173.641 120.156 173.661 120.149 173.684C120.144 173.703 120.132 173.72 120.11 173.734C120.091 173.746 120.065 173.758 120.025 173.767L119.301 173.946L119.249 173.958L119.23 173.91L118.952 173.218C118.921 173.137 118.93 173.087 118.957 173.059C118.99 173.027 119.035 173.032 119.076 173.047H119.081L119.152 173.082L119.309 172.809C119.351 172.744 119.411 172.709 119.473 172.694C119.53 172.68 119.587 172.682 119.635 172.685H120.62L120.166 172.818L119.63 172.806H119.627C119.589 172.802 119.542 172.801 119.502 172.811C119.468 172.82 119.435 172.837 119.414 172.87L119.232 173.189L119.204 173.235L119.154 173.213L119.068 173.173L119.326 173.813L119.978 173.651L119.894 173.613L119.837 173.587L119.863 173.532L120.108 173.013L120.217 173.065L120.215 173.07Z" fill="#9D9D9D"/>
<path fill-rule="evenodd" clip-rule="evenodd" d="M120.555 173.748L120.056 172.972C119.992 172.882 119.92 172.825 119.823 172.808L120.151 172.699L120.682 172.677C120.86 172.665 120.958 172.727 121.02 172.835L121.367 173.377L120.741 173.779C120.643 173.841 120.599 173.817 120.551 173.748H120.555Z" fill="#9D9D9D"/>
<path fill-rule="evenodd" clip-rule="evenodd" d="M119.773 175.766H119.775C119.77 175.766 119.766 175.766 119.773 175.766ZM119.193 174.876L119.155 174.939C119.109 175.029 119.09 175.114 119.109 175.2L119.204 175.397V175.4C119.219 175.436 119.24 175.478 119.266 175.509C119.288 175.536 119.319 175.557 119.359 175.56L119.726 175.579L119.782 175.583V175.638L119.789 175.733L120.244 175.214L119.806 174.705L119.811 174.796L119.814 174.858H119.752L119.195 174.877L119.193 174.876ZM119.623 174.144L119.264 174.753L119.683 174.741L119.678 174.624V174.615V174.608C119.682 174.594 119.687 174.581 119.695 174.569C119.707 174.553 119.725 174.539 119.749 174.536C119.768 174.532 119.789 174.536 119.813 174.548C119.832 174.558 119.854 174.577 119.88 174.608L120.366 175.172L120.401 175.212L120.366 175.252L119.875 175.812C119.816 175.876 119.77 175.892 119.732 175.88C119.687 175.866 119.671 175.823 119.666 175.779V175.774L119.663 175.697L119.349 175.679C119.271 175.673 119.214 175.635 119.171 175.585C119.133 175.54 119.109 175.488 119.09 175.443L118.605 174.506C118.515 174.355 118.526 174.239 118.593 174.134L118.919 173.58L119.561 173.958C119.659 174.017 119.657 174.068 119.619 174.141L119.623 174.144Z" fill="#9D9D9D"/>
<path d="M121.929 172.05H118.5C118.264 172.05 118.07 172.252 118.07 172.497V176.066C118.07 176.312 118.265 176.512 118.5 176.512H121.929C122.164 176.512 122.357 176.312 122.357 176.066V172.497C122.357 172.252 122.164 172.05 121.929 172.05ZM122.1 176.009C122.1 176.138 121.997 176.245 121.874 176.245H118.555C118.429 176.245 118.327 176.138 118.327 176.009V172.555C118.327 172.424 118.429 172.319 118.555 172.319H121.874C121.998 172.319 122.1 172.424 122.1 172.555V176.009Z" fill="#9D9D9D"/>
<path d="M116.865 175.99H114.631C114.588 175.99 114.553 175.956 114.553 175.913C114.553 175.869 114.588 175.835 114.631 175.835H116.865C116.908 175.835 116.942 175.869 116.942 175.913C116.942 175.956 116.908 175.99 116.865 175.99Z" fill="#9D9D9D"/>
<path fill-rule="evenodd" clip-rule="evenodd" d="M115.405 173.171V175.504H114.934V173.17H114.702L115.179 172.573L115.654 173.173L115.405 173.171Z" fill="#9D9D9D"/>
<path fill-rule="evenodd" clip-rule="evenodd" d="M116.566 173.173V175.505H116.094V173.171H115.861L116.339 172.573L116.813 173.173H116.566Z" fill="#9D9D9D"/>
<path d="M117.465 172.05H114.036C113.799 172.05 113.606 172.252 113.606 172.497V176.066C113.606 176.312 113.801 176.512 114.036 176.512H117.465C117.7 176.512 117.893 176.312 117.893 176.066V172.497C117.893 172.252 117.7 172.05 117.465 172.05ZM117.636 176.009C117.636 176.138 117.532 176.245 117.41 176.245H114.091C113.965 176.245 113.863 176.138 113.863 176.009V172.555C113.863 172.424 113.965 172.319 114.091 172.319H117.41C117.534 172.319 117.636 172.424 117.636 172.555V176.009Z" fill="#9D9D9D"/>
<path d="M126.394 172.05H122.964C122.728 172.05 122.535 172.252 122.535 172.497V176.066C122.535 176.312 122.73 176.512 122.964 176.512H126.394C126.628 176.512 126.822 176.312 126.822 176.066V172.497C126.822 172.252 126.628 172.05 126.394 172.05ZM126.565 176.009C126.565 176.138 126.461 176.245 126.339 176.245H123.02C122.894 176.245 122.792 176.138 122.792 176.009V172.555C122.792 172.424 122.894 172.319 123.02 172.319H126.339C126.463 172.319 126.565 172.424 126.565 172.555V176.009Z" fill="#9D9D9D"/>
<path fill-rule="evenodd" clip-rule="evenodd" d="M124.658 173.209C123.927 173.209 123.313 173.718 123.151 174.401C123.206 174.345 123.304 174.308 123.416 174.308C123.582 174.308 123.716 174.389 123.73 174.493C123.746 174.391 123.88 174.312 124.042 174.312C124.204 174.312 124.342 174.393 124.356 174.496C124.372 174.395 124.506 174.315 124.669 174.315C124.831 174.315 124.969 174.396 124.982 174.5C124.998 174.398 125.133 174.319 125.295 174.319C125.457 174.319 125.598 174.401 125.609 174.507C125.619 174.401 125.755 174.319 125.923 174.319C126.017 174.319 126.104 174.346 126.161 174.389C125.995 173.713 125.384 173.211 124.656 173.211L124.658 173.209Z" fill="#9D9D9D"/>
<path d="M124.751 173.131C124.751 173.091 124.719 173.058 124.679 173.058C124.639 173.058 124.606 173.091 124.606 173.131L124.603 175.732C124.603 175.772 124.636 175.804 124.675 175.804C124.715 175.804 124.748 175.772 124.748 175.732L124.751 173.131Z" fill="#9D9D9D"/>
<path d="M124.218 175.558C124.246 175.53 124.248 175.484 124.218 175.456C124.191 175.428 124.146 175.427 124.117 175.456C124.044 175.528 124.006 175.623 124.006 175.718C124.006 175.813 124.041 175.908 124.113 175.982C124.186 176.055 124.281 176.092 124.375 176.092C124.47 176.092 124.565 176.058 124.639 175.986C124.676 175.951 124.703 175.908 124.722 175.863C124.741 175.818 124.751 175.768 124.75 175.718C124.75 175.678 124.717 175.647 124.677 175.647C124.638 175.647 124.607 175.68 124.607 175.72C124.607 175.751 124.601 175.78 124.589 175.81C124.577 175.837 124.56 175.863 124.539 175.885C124.494 175.929 124.436 175.951 124.377 175.951C124.318 175.951 124.262 175.927 124.217 175.882C124.174 175.837 124.151 175.778 124.151 175.72C124.151 175.661 124.174 175.604 124.22 175.559L124.218 175.558Z" fill="#9D9D9D"/>
<path d="M112.397 142.498H104.227V177.427H112.397V142.498Z" fill="#CCC2BC"/>
<path d="M154.705 177.854H112.397V212.783H154.705V177.854Z" fill="#F5E4D5"/>
<path d="M138.302 200.807H128.802V212.782H138.302V200.807Z" fill="#CCC2BC"/>
<path d="M138.302 177.854H128.802V189.829H138.302V177.854Z" fill="#CCC2BC"/>
<path fill-rule="evenodd" clip-rule="evenodd" d="M121.714 209.142C121.714 209.142 121.714 209.14 121.712 209.142C121.714 209.147 121.716 209.15 121.714 209.142ZM121.241 210.091H121.315C121.417 210.085 121.498 210.06 121.564 209.999L121.686 209.818C121.709 209.787 121.738 209.747 121.752 209.708C121.764 209.675 121.766 209.637 121.75 209.601L121.581 209.275L121.555 209.226L121.602 209.197L121.681 209.145L121.003 209.016L120.787 209.652L120.865 209.602L120.917 209.568L120.95 209.62L121.246 210.091H121.241ZM120.392 210.091H121.098L120.875 209.735L120.777 209.799L120.77 209.804H120.763C120.751 209.811 120.736 209.813 120.72 209.811C120.699 209.809 120.681 209.799 120.665 209.782C120.653 209.766 120.644 209.747 120.644 209.721C120.644 209.699 120.648 209.67 120.662 209.633L120.901 208.928L120.919 208.878L120.97 208.888L121.702 209.028C121.786 209.045 121.824 209.078 121.833 209.118C121.843 209.163 121.816 209.197 121.779 209.225L121.776 209.228L121.71 209.27L121.855 209.549C121.888 209.62 121.885 209.689 121.864 209.749C121.845 209.804 121.812 209.853 121.783 209.891L121.222 210.782C121.136 210.936 121.031 210.986 120.906 210.981H120.263V210.237C120.263 210.122 120.308 210.098 120.392 210.094V210.091Z" fill="#9D9D9D"/>
<path d="M119.042 208.504C119.042 208.504 119.042 208.506 119.042 208.507C119.045 208.502 119.047 208.5 119.042 208.504ZM120.215 208.426L119.998 208.89L120.105 208.939L120.111 208.942L120.117 208.945C120.127 208.954 120.137 208.966 120.144 208.978C120.153 208.997 120.156 209.018 120.149 209.04C120.144 209.059 120.132 209.077 120.11 209.09C120.091 209.102 120.065 209.114 120.025 209.123L119.301 209.302L119.249 209.315L119.23 209.266L118.952 208.575C118.921 208.493 118.93 208.443 118.957 208.416C118.99 208.383 119.035 208.388 119.076 208.404H119.082L119.152 208.438L119.309 208.166C119.351 208.1 119.411 208.066 119.473 208.05C119.53 208.036 119.587 208.038 119.635 208.041H120.62L120.167 208.174L119.63 208.162H119.627C119.589 208.159 119.542 208.157 119.502 208.167C119.468 208.176 119.435 208.193 119.415 208.226L119.232 208.545L119.204 208.592L119.154 208.569L119.068 208.53L119.327 209.17L119.979 209.008L119.894 208.97L119.837 208.944L119.863 208.888L120.108 208.369L120.217 208.421L120.215 208.426Z" fill="#9D9D9D"/>
<path fill-rule="evenodd" clip-rule="evenodd" d="M120.555 209.103L120.056 208.327C119.992 208.238 119.92 208.181 119.823 208.163L120.151 208.055L120.682 208.032C120.86 208.02 120.958 208.082 121.021 208.191L121.367 208.733L120.741 209.135C120.643 209.197 120.6 209.172 120.551 209.103H120.555Z" fill="#9D9D9D"/>
<path fill-rule="evenodd" clip-rule="evenodd" d="M119.773 211.122H119.775C119.77 211.122 119.766 211.122 119.773 211.122ZM119.194 210.232L119.156 210.296C119.109 210.386 119.09 210.47 119.109 210.556L119.204 210.753V210.756C119.22 210.793 119.24 210.834 119.266 210.865C119.289 210.893 119.32 210.913 119.359 210.917L119.727 210.936L119.782 210.939V210.994L119.789 211.089L120.244 210.57L119.806 210.061L119.811 210.153L119.815 210.215H119.753L119.195 210.234L119.194 210.232ZM119.623 209.501L119.264 210.11L119.684 210.097L119.678 209.98V209.972V209.965C119.682 209.951 119.687 209.937 119.696 209.925C119.708 209.909 119.725 209.896 119.749 209.892C119.768 209.889 119.789 209.892 119.813 209.904C119.832 209.915 119.854 209.934 119.88 209.965L120.367 210.529L120.401 210.568L120.367 210.608L119.875 211.169C119.816 211.233 119.77 211.248 119.732 211.236C119.687 211.222 119.671 211.181 119.666 211.136V211.131L119.663 211.053L119.349 211.036C119.271 211.029 119.214 210.991 119.171 210.941C119.133 210.896 119.109 210.844 119.09 210.8L118.605 209.863C118.516 209.711 118.526 209.594 118.593 209.49L118.919 208.937L119.561 209.314C119.659 209.373 119.658 209.425 119.62 209.497L119.623 209.501Z" fill="#9D9D9D"/>
<path d="M121.929 207.407H118.5C118.264 207.407 118.071 207.609 118.071 207.854V211.423C118.071 211.669 118.265 211.869 118.5 211.869H121.929C122.164 211.869 122.357 211.669 122.357 211.423V207.854C122.357 207.609 122.164 207.407 121.929 207.407ZM122.1 211.366C122.1 211.495 121.997 211.602 121.874 211.602H118.555C118.429 211.602 118.328 211.495 118.328 211.366V207.912C118.328 207.781 118.429 207.676 118.555 207.676H121.874C121.998 207.676 122.1 207.781 122.1 207.912V211.366Z" fill="#9D9D9D"/>
<path d="M116.865 211.346H114.631C114.588 211.346 114.553 211.312 114.553 211.269C114.553 211.225 114.588 211.191 114.631 211.191H116.865C116.908 211.191 116.942 211.225 116.942 211.269C116.942 211.312 116.908 211.346 116.865 211.346Z" fill="#9D9D9D"/>
<path fill-rule="evenodd" clip-rule="evenodd" d="M115.406 208.528V210.86H114.935V208.526H114.702L115.18 207.929L115.654 208.53L115.406 208.528Z" fill="#9D9D9D"/>
<path fill-rule="evenodd" clip-rule="evenodd" d="M116.566 208.53V210.862H116.094V208.528L115.861 208.526L116.339 207.929L116.813 208.53H116.566Z" fill="#9D9D9D"/>
<path d="M117.465 207.407H114.036C113.8 207.407 113.606 207.609 113.606 207.854V211.423C113.606 211.669 113.801 211.869 114.036 211.869H117.465C117.7 211.869 117.893 211.669 117.893 211.423V207.854C117.893 207.609 117.7 207.407 117.465 207.407ZM117.636 211.366C117.636 211.495 117.532 211.602 117.41 211.602H114.091C113.965 211.602 113.863 211.495 113.863 211.366V207.912C113.863 207.781 113.965 207.676 114.091 207.676H117.41C117.534 207.676 117.636 207.781 117.636 207.912V211.366Z" fill="#9D9D9D"/>
<path d="M126.394 207.407H122.964C122.728 207.407 122.535 207.609 122.535 207.854V211.423C122.535 211.669 122.73 211.869 122.964 211.869H126.394C126.628 211.869 126.822 211.669 126.822 211.423V207.854C126.822 207.609 126.628 207.407 126.394 207.407ZM126.565 211.366C126.565 211.495 126.461 211.602 126.339 211.602H123.02C122.894 211.602 122.792 211.495 122.792 211.366V207.912C122.792 207.781 122.894 207.676 123.02 207.676H126.339C126.463 207.676 126.565 207.781 126.565 207.912V211.366Z" fill="#9D9D9D"/>
<path fill-rule="evenodd" clip-rule="evenodd" d="M124.659 208.566C123.927 208.566 123.313 209.075 123.151 209.758C123.206 209.701 123.304 209.665 123.417 209.665C123.582 209.665 123.717 209.746 123.73 209.849C123.746 209.748 123.881 209.668 124.043 209.668C124.205 209.668 124.343 209.749 124.357 209.853C124.372 209.751 124.507 209.672 124.669 209.672C124.831 209.672 124.969 209.753 124.983 209.856C124.998 209.754 125.133 209.675 125.295 209.675C125.457 209.675 125.599 209.758 125.609 209.863C125.619 209.758 125.756 209.675 125.923 209.675C126.018 209.675 126.104 209.703 126.161 209.746C125.995 209.07 125.385 208.568 124.657 208.568L124.659 208.566Z" fill="#9D9D9D"/>
<path d="M124.752 208.486C124.752 208.446 124.719 208.414 124.679 208.414C124.639 208.414 124.607 208.446 124.607 208.486L124.603 211.087C124.603 211.127 124.636 211.16 124.676 211.16C124.715 211.16 124.748 211.127 124.748 211.087L124.752 208.486Z" fill="#9D9D9D"/>
<path d="M124.219 210.913C124.246 210.886 124.248 210.841 124.219 210.811C124.191 210.784 124.146 210.782 124.117 210.811C124.044 210.884 124.006 210.979 124.006 211.074C124.006 211.168 124.041 211.263 124.113 211.338C124.186 211.41 124.281 211.448 124.376 211.448C124.47 211.448 124.565 211.413 124.639 211.341C124.676 211.306 124.703 211.263 124.722 211.219C124.741 211.174 124.752 211.124 124.75 211.074C124.75 211.034 124.717 211.003 124.677 211.003C124.638 211.003 124.607 211.036 124.607 211.075C124.607 211.106 124.601 211.136 124.589 211.165C124.577 211.193 124.56 211.218 124.539 211.241C124.495 211.284 124.436 211.306 124.377 211.306C124.319 211.306 124.262 211.284 124.217 211.237C124.174 211.193 124.151 211.134 124.151 211.075C124.151 211.017 124.174 210.96 124.22 210.915L124.219 210.913Z" fill="#9D9D9D"/>
<path d="M112.397 177.854H104.227V212.783H112.397V177.854Z" fill="#CCC2BC"/>
</g>
<rect x="8.5" y="152.5" width="16" height="35" rx="8" stroke="#FFD9CE"/>
<rect x="201.5" y="9.5" width="16" height="27" rx="8" stroke="#FFD9CE"/>
<rect x="286.5" y="93.5" width="16" height="20" rx="8" stroke="#EEF1FF"/>
<rect x="6" y="65" width="8" height="8" rx="4" fill="#E2E7FF"/>
<path d="M81.7177 10.1671C81.3192 8.67994 82.68 7.31911 84.1671 7.71759L93.6138 10.2488C95.101 10.6473 95.5991 12.5062 94.5104 13.5949L87.595 20.5104C86.5063 21.599 84.6474 21.1009 84.2489 19.6138L81.7177 10.1671Z" fill="#A0ADF8"/>
<path d="M296.411 47.3859C297.783 46.6873 299.397 47.7359 299.316 49.2734L299.042 54.4623C298.961 55.9998 297.246 56.873 295.955 56.0342L291.598 53.2029C290.307 52.3641 290.408 50.4422 291.78 49.7436L296.411 47.3859Z" fill="#FFCEC0"/>
<line x1="16" y1="225.5" x2="286" y2="225.5" stroke="#E2E4E5"/>
<g style="mix-blend-mode:multiply">
<path d="M250.819 226C276.513 226 297.343 223.533 297.343 220.49C297.343 217.447 276.513 214.98 250.819 214.98C225.124 214.98 204.294 217.447 204.294 220.49C204.294 223.533 225.124 226 250.819 226Z" fill="#FCFCFC"/>
</g>
<path d="M249.603 46.887L248.827 65.7197L263.076 66.307L263.852 47.4743L249.603 46.887Z" fill="#FAAF9E"/>
<path d="M242.721 42.2509C242.723 42.2777 242.727 42.3044 242.734 42.3334C242.774 42.534 242.885 42.7547 243.021 42.9977C243.26 43.4256 243.565 43.9227 243.668 44.5201C243.868 45.726 243.329 47.8592 243.378 48.5546C243.605 51.7065 245.596 59.4635 248.202 59.5215C253.703 59.6441 256.672 57.7583 259.16 54.3568C260.002 53.2044 260.39 51.2072 260.932 49.8831C262.813 45.2735 263.303 40.5145 262.606 35.5839C262.454 34.5095 262.218 33.3972 261.538 32.5502C258.413 28.6583 250.542 30.972 248.652 31.6586C245.647 32.753 243.659 35.3587 243.26 37.8753C243.142 38.6377 242.54 40.2983 242.721 42.2509Z" fill="#FEBAA5"/>
<path d="M254.01 33.9753C255 33.9419 256.17 34.1447 256.614 35.0296C257.002 35.8053 256.65 36.7259 256.338 37.5351C256.025 38.3442 255.78 39.3361 256.322 40.0138C256.868 40.7003 257.963 40.707 258.551 41.3579C259.2 42.0734 258.983 43.2637 259.559 44.0394C260.149 44.8329 261.299 44.8797 262.289 44.853C263.143 44.8307 264.025 44.7995 264.797 44.4339C266.558 43.598 267.073 41.5629 267.291 39.6861C267.703 36.1241 267.293 33.0302 264.714 29.8895C262.013 26.5994 256.647 25.933 249.639 27.7541C247.002 28.4406 243.512 30.6897 243.206 33.398C243.16 33.8104 243.681 35.6293 243.917 35.9703C244.791 34.6195 245.161 34.5615 245.803 34.5682C246.643 34.5771 246.84 35.2057 247.68 35.2147C248.353 35.2213 249.011 35.3105 249.633 35.0274C251.019 34.3966 252.481 34.031 254.01 33.9775V33.9753Z" fill="#15181D"/>
<path d="M261.723 48.1972C261.707 48.0144 261.696 47.8227 261.689 47.6243C261.603 45.1679 262.14 41.5702 264.547 41.4855C265.969 41.4365 266.553 42.074 266.598 43.3312C266.66 45.1345 264.645 50.0495 262.844 50.1141C262.015 50.1431 261.808 49.3273 261.779 48.4981C261.761 48.0055 261.812 47.495 261.794 46.9913C261.79 46.8753 261.783 46.7594 261.77 46.6435L261.723 48.1994V48.1972Z" fill="#FEBAA5"/>
<path d="M252.035 52.6641L246.224 52.8647C246.224 52.8647 246.572 54.6969 248.768 54.8953C251.447 55.1383 252.033 52.6641 252.033 52.6641H252.035Z" fill="white"/>
<path d="M248.302 46.2288C248.143 47.7423 246.761 49.4698 248.119 50.7225C248.369 50.961 248.71 51.117 249.037 51.0881C249.106 51.0814 249.046 50.9967 249.053 51.019C247.517 50.007 248.69 47.4971 248.652 46.2399C248.62 45.3907 248.21 44.3987 248.099 44.4656C248.007 44.5213 248.435 45.1165 248.302 46.2288Z" fill="#FAAB9B"/>
<path d="M252.125 45.4242C252.154 45.8923 252.419 46.2557 252.715 46.2356C253.012 46.2155 253.228 45.8232 253.199 45.3551C253.17 44.887 252.905 44.5237 252.608 44.5438C252.312 44.5638 252.096 44.9561 252.125 45.4242Z" fill="#251611"/>
<path d="M244.35 45.4482C244.379 45.9163 244.644 46.2796 244.941 46.2595C245.237 46.2395 245.453 45.8472 245.424 45.3791C245.395 44.911 245.13 44.5476 244.834 44.5677C244.537 44.5877 244.321 44.9801 244.35 45.4482Z" fill="#251611"/>
<path d="M242.731 42.3344C242.772 42.535 242.883 42.7557 243.019 42.9987C243.612 42.9452 244.388 42.9251 245.406 42.9652C246.122 42.9942 246.207 42.2453 245.493 42.1918C244.459 42.1137 243.514 42.1873 242.731 42.3344Z" fill="#15181D"/>
<path d="M251.372 43.1503C250.861 43.1726 250.83 42.4258 251.338 42.3768C253.558 42.165 255.172 43.3464 254.74 43.6696C254.327 43.9772 254.486 43.0165 251.372 43.1503Z" fill="#15181D"/>
<path d="M245.128 76.3427C239.738 85.7759 223.312 107.424 223.312 107.424L215.689 98.5795C215.689 98.5795 228.644 71.0844 233.118 65.708C234.926 63.5347 239.368 62.3198 239.368 62.3198L245.128 76.3405V76.3427Z" fill="#FA3719"/>
<path d="M269.689 123.631L239.114 124.261C235.197 103.079 233.548 65.3168 234.758 64.3985C238.601 62.0201 244.109 60.4375 248.968 60.0786C248.968 60.0786 249.728 64.374 254.779 64.501C262.36 64.6905 262.993 60.9635 262.993 60.9635C269.438 63.4266 273.153 66.632 275.177 69.4584C275.177 69.4584 268.918 99.3564 268.301 106.447C267.683 113.538 269.692 123.631 269.692 123.631H269.689Z" fill="#FC5126"/>
<path d="M266.91 43.5771C268.189 34.2152 267.251 30.778 264.182 28.2013C260.209 24.8666 260.178 24.9446 255.437 23.1592C254.191 25.6446 256.741 36.5869 259.766 38.0625C262.568 39.4311 265.038 40.3852 266.91 43.5771Z" fill="#E5483F"/>
<path d="M259.766 38.0636C259.322 27.0365 259.169 23.7554 255.212 23.1201C250.498 22.3645 245.808 25.2979 244.223 28.4542C242.977 30.9396 243.122 35.8189 243.256 39.1803C248.955 32.0184 259.766 38.0613 259.766 38.0613V38.0636Z" fill="#A7171F"/>
<path d="M238.869 31.3183C238.037 31.4654 235.006 31.8043 235.443 35.9748C235.882 40.1765 239.635 39.4543 242.544 40.1275C242.522 40.123 244.254 37.466 248.255 35.9213C248.126 35.5178 247.279 34.8848 246.967 34.595C242.823 30.7499 241.387 30.8747 238.871 31.3183H238.869Z" fill="#A7171F"/>
<path d="M253.495 33.8347C251.128 32.7759 248.623 32.0648 246.122 31.3783C244.383 30.9013 241.806 30.5001 240.117 31.1331C242.027 31.0885 244.495 32.1295 245.872 33.4714C247.25 34.8132 248.447 36.3825 250.09 37.3833C251.505 38.2437 251.884 38.2415 253.542 38.2281C258.054 38.1924 258.809 38.1345 259.766 38.0632C259.764 37.9584 257.294 35.5332 253.495 33.8347Z" fill="#FF685D"/>
<path d="M263.618 213.791C266.286 212.935 267.828 212.686 270.543 213.831C270.853 213.963 270.878 214.393 270.989 214.823C270.989 214.99 270.835 215.528 270.668 215.528H263.417C263.25 215.528 262.824 215.191 262.853 215.028C262.991 214.268 263.134 213.945 263.618 213.789V213.791Z" fill="#2D3A64"/>
<path d="M270.695 209.41H263.241V216.768H270.695V209.41Z" fill="white"/>
<path d="M270.969 215.533C271.509 216.852 272.153 220.085 272.153 220.78C272.153 225.403 267.077 225.452 264.106 225.452C262.931 225.452 259.866 225.278 259.866 224.119C259.866 224.039 259.828 223.551 259.866 223.359C260.227 221.529 262.225 215.58 263.301 215.58C265.006 215.58 268.397 215.515 270.969 215.533Z" fill="#1A223B"/>
<path d="M270.969 214.772C271.509 216.092 272.153 219.324 272.153 220.019C272.153 224.642 267.077 224.691 264.106 224.691C262.931 224.691 259.866 224.517 259.866 223.358C259.866 222.507 262.153 214.504 263.301 214.819C265.011 215.287 267.862 215.53 270.969 214.772Z" fill="#2D3A64"/>
<path d="M266.582 218.961C268.426 218.961 269.921 217.646 269.921 216.025C269.921 214.404 268.426 213.089 266.582 213.089C264.738 213.089 263.243 214.404 263.243 216.025C263.243 217.646 264.738 218.961 266.582 218.961Z" fill="#2D3A64"/>
<path d="M243.857 205.908H233.66V213.266H243.857V205.908Z" fill="white"/>
<path d="M244.002 212.272C243.966 213.242 244.002 215.398 244.002 217.437C236.914 219.127 234.183 222.86 225.454 222.86C224.737 222.86 219.643 222.571 219.643 220.95C219.643 216.476 232.897 213.483 233.659 213.483C236.883 213.483 240.066 212.335 244.002 212.272Z" fill="#1A223B"/>
<path d="M244.002 210.89C243.966 211.859 244.002 214.777 244.002 216.817C236.914 218.506 234.183 222.24 225.454 222.24C224.737 222.24 219.643 221.95 219.643 220.33C219.643 215.856 232.966 211.186 233.659 211.505C236 212.586 240.037 213.266 244.002 210.89Z" fill="#2D3A64"/>
<path d="M228.671 215.771C229.442 217.106 231.715 217.238 233.748 216.063C235.781 214.888 235.946 212.225 235.175 210.89C234.718 210.096 233.287 210.145 232.139 211.451C231.345 212.205 231.428 212.035 229.076 212.916C228.396 213.892 228.202 214.962 228.671 215.773V215.771Z" fill="#2D3A64"/>
<path d="M260.936 81.07C261.705 72.4013 262.485 66.2179 271.422 65.2884C270.298 64.4748 268.163 63.4227 266.774 62.5913C258.754 65.732 256.712 72.3812 256.458 81.07H260.936Z" fill="#30419F"/>
<path d="M241.446 82.3224L236.97 82.2577C237.199 77.6526 236.419 68.5804 237.779 62.8139C239.029 62.3324 240.639 61.5166 242.134 61.2959C240.529 67.8136 241.314 76.8969 241.443 82.3201L241.446 82.3224Z" fill="#30419F"/>
<path d="M270.871 122.497C267.991 108.625 272.534 90.7575 272.534 90.7575C272.534 90.7575 271.714 90.8377 270.838 90.8645C270.251 94.8433 269.616 104.462 266.458 104.056C261.605 103.432 261.975 86.1813 262.18 81.2573C262.209 80.5463 261.641 79.9556 260.93 79.9556H235.173C234.805 79.9556 234.515 80.2654 234.542 80.6332C234.825 84.5407 235.438 104.653 237.984 122.617L270.873 122.497H270.871Z" fill="#30419F"/>
<path d="M231.221 90.1579C232.516 90.0844 233.831 90.5525 234.79 91.4262C235.035 91.6492 235.262 91.9099 235.358 92.2265C235.452 92.543 235.38 92.9308 235.115 93.127C234.955 93.2451 234.75 93.283 234.553 93.3098C233.822 93.4123 233.08 93.4368 232.342 93.3833C231.598 93.3298 230.86 93.2006 230.144 92.9955C229.786 92.8929 229.433 92.7726 229.088 92.6322C228.765 92.5029 228.372 92.3714 228.091 92.1618C227.519 91.7316 228.693 91.0228 228.992 90.8467C229.592 90.4901 230.267 90.2582 230.962 90.1802C231.049 90.1713 231.136 90.1624 231.223 90.1579H231.221Z" fill="#FAA48A"/>
<path d="M224.995 96.3902L222.708 96.9073L224.13 95.026L224.445 94.8276L225.31 96.1896L224.995 96.3902Z" fill="#E6E6E6"/>
<path d="M224.995 96.3892L224.574 95.725L224.13 95.0251L237.077 86.8155C238.082 86.178 238.945 87.5422 237.942 88.1775L224.995 96.387V96.3892Z" fill="#1A305C"/>
<path d="M226.763 91.6911C225.925 91.7357 225.381 92.4802 225.323 92.926C225.274 93.3049 226.139 94.0093 229.106 94.2143C228.365 94.357 227.209 94.7181 227.202 95.4715C227.195 96.2294 228.082 96.5169 228.767 96.6529C228.031 96.9605 227.719 96.8602 227.692 97.5356C227.681 97.812 228.27 98.5342 228.88 98.5387C228.045 98.7861 227.739 98.9934 227.784 99.6175C227.822 100.155 230.592 102.569 232.65 102.843C235.079 103.166 236.002 103.182 238.285 103.358C239.216 99.0224 239.725 97.8076 239.876 97.092C239.014 96.6707 238.641 95.5005 238.291 95.0413C237.257 93.6861 236.114 91.7847 234.542 91.6354C230.759 91.2787 226.854 91.6866 226.761 91.6911H226.763Z" fill="#FEBAA5"/>
<path d="M276.784 68.6541C276.784 68.6541 282.859 70.5421 281.686 78.9767C280.772 85.5569 273.74 104.307 267.438 107.992C263.236 110.448 237.837 103.603 237.837 103.603L239.622 96.2651C239.622 96.2651 260 97.8589 260.693 96.9071C261.658 95.5786 263.022 89.3797 266.83 79.1751C267.385 77.6906 271.602 63.7993 276.787 68.6541H276.784Z" fill="#FB7752"/>
<path d="M263.64 122.618C263.64 122.618 255.856 142.325 251.567 155.61C250.125 160.074 249.078 163.815 248.855 165.836C247.963 173.877 248.61 178.968 248.095 187.041C247.58 195.115 246.291 210.952 246.291 210.952L232.725 211.22C232.725 211.22 232.991 177.347 234.31 161.1C235.601 145.178 237.982 122.62 237.982 122.62H263.64V122.618Z" fill="#30419F"/>
<path d="M263.64 122.617C263.64 122.617 255.856 142.324 251.568 155.609C248.73 147.525 245.674 138.038 244.727 122.497L263.64 122.617Z" fill="#254787"/>
<path d="M270.808 122.19C270.808 122.19 273.662 132.219 273.461 140.658C273.347 145.397 273.882 148.849 274.616 187.3C274.769 195.394 271.274 214.383 271.274 214.383H263.009C263.009 214.383 258.393 178.87 257.98 173.427C256.799 157.83 247.14 149.982 244.729 122.498C249.476 121.047 267.249 122.718 270.811 122.192L270.808 122.19Z" fill="#30419F"/>
<path d="M210.373 100.875C210.56 100.79 210.765 100.665 210.796 100.46C210.834 100.224 210.622 100.03 210.433 99.885C209.559 99.2141 208.685 98.5431 207.811 97.8722C207.334 97.5066 206.773 97.1188 206.184 97.2392C205.605 97.3573 205.217 97.9792 205.237 98.5721C205.259 99.165 205.616 99.7045 206.073 100.081C206.347 100.309 206.655 100.473 206.967 100.641C207.183 100.757 207.375 100.904 207.575 101.042C208.034 101.361 208.643 101.307 209.169 101.227C209.584 101.164 209.989 101.046 210.373 100.875Z" fill="#FAB099"/>
<path d="M204.337 83.9445C204.337 84.776 205.554 85.4491 207.054 85.4491C208.554 85.4491 209.771 84.776 209.771 83.9445C209.771 83.1131 208.554 82.4399 207.054 82.4399C205.554 82.4399 204.337 83.1131 204.337 83.9445Z" fill="#CC2D25"/>
<path d="M213.892 86.0951L212.86 84.1826C212.782 84.0377 212.631 83.9463 212.466 83.9463H202.33C202.112 83.9463 201.974 84.1781 202.076 84.372L203.006 86.0951H213.89H213.892Z" fill="#E5483F"/>
<path d="M216.186 84.7988H200.344C199.731 84.7988 199.35 85.4609 199.656 85.9914L216.467 115.098C216.585 115.305 216.792 115.446 217.026 115.486L233.572 118.194C234.228 118.301 234.718 117.608 234.397 117.026L216.881 85.2112C216.741 84.9571 216.476 84.7988 216.186 84.7988Z" fill="#6A7DEB"/>
<path d="M215.522 104.041C215.738 103.689 215.883 103.06 215.635 102.728C215.388 102.396 215.013 102.349 214.681 102.585C214.844 102.242 215.022 101.674 214.86 101.268C214.695 100.862 214.331 100.664 213.894 100.637C214.371 100.243 214.657 99.4913 214.436 99.1258C214.115 98.6019 213.478 98.6332 212.989 98.8315C213.257 98.5462 213.117 98.1227 212.994 98.0001C212.809 97.8129 211.726 97.8352 211.351 98.0112C206.169 100.421 206.044 100.584 205.466 101.232C205.012 101.743 204.784 102.523 205.11 103.125C205.435 103.726 206.418 103.909 206.811 103.348C206.354 104.259 206.351 105.273 206.677 105.697C206.893 105.978 207.464 106.127 208.186 105.991C208.003 106.624 207.941 107.081 208.444 107.614C208.95 108.147 209.813 108.287 210.348 107.552C210.348 108.414 210.419 108.931 211.117 109.257C211.935 109.638 212.553 108.624 213.027 107.971C213.676 107.077 214.171 106.248 215.519 104.043L215.522 104.041Z" fill="#FEBAA5"/>
<g style="mix-blend-mode:multiply">
<path d="M56.4715 226.9C87.3706 226.9 112.419 225.463 112.419 223.69C112.419 221.918 87.3706 220.481 56.4715 220.481C25.5725 220.481 0.523926 221.918 0.523926 223.69C0.523926 225.463 25.5725 226.9 56.4715 226.9Z" fill="#FCFCFC"/>
</g>
<path d="M48.5006 69.0301L50.3628 71.9889L52.2479 74.9568C53.5124 76.9294 54.7722 78.9088 56.0504 80.8675C57.3241 82.8285 58.6184 84.7734 59.9104 86.7046C61.2047 88.6311 62.5151 90.5415 63.8416 92.3646C64.1727 92.8198 64.5037 93.2681 64.8348 93.7049C65.1658 94.1417 65.4946 94.567 65.8164 94.9624C66.1337 95.3556 66.4555 95.7326 66.6854 95.9878C66.7475 96.059 66.782 96.0958 66.8211 96.1441C66.8211 96.1487 66.7912 96.1326 66.7889 96.1372C66.7981 96.1464 66.7958 96.1533 66.8119 96.1694C66.8717 96.2338 67.0257 96.3487 67.1981 96.4637C67.3682 96.5809 67.5682 96.7051 67.7797 96.8315C67.989 96.9579 68.2166 97.0844 68.4442 97.2131C68.9039 97.4683 69.389 97.7212 69.8856 97.9741C70.8788 98.4776 71.9087 98.9672 72.9524 99.45C75.0422 100.413 77.1779 101.365 79.3298 102.285L82.5667 103.664L85.8059 105.018L85.8473 105.034C87.4727 105.715 88.2382 107.581 87.56 109.207C86.9485 110.671 85.3691 111.437 83.8748 111.078L82.1184 110.657L80.3758 110.223C79.2148 109.931 78.0561 109.634 76.8974 109.322C75.7388 109.011 74.5824 108.694 73.4237 108.365C72.265 108.037 71.1041 107.701 69.9408 107.338C68.7775 106.977 67.6096 106.6 66.4234 106.186C65.8302 105.979 65.2325 105.761 64.6187 105.522C64.3106 105.4 64.0026 105.278 63.683 105.14C63.3634 105.004 63.0393 104.859 62.6921 104.692C62.345 104.524 61.9864 104.342 61.5542 104.08C61.4461 104.016 61.3243 103.935 61.2116 103.862C61.0898 103.779 60.9449 103.673 60.8277 103.588C60.6415 103.446 60.4461 103.296 60.292 103.167C59.6414 102.634 59.1356 102.167 58.6437 101.701C58.154 101.236 57.6988 100.781 57.2505 100.326C56.8045 99.873 56.3677 99.4201 55.9424 98.9695C54.2388 97.1649 52.6273 95.3602 51.0341 93.544C49.4409 91.7324 47.8937 89.8978 46.3488 88.0655C44.8108 86.2287 43.2797 84.3918 41.7716 82.5388L39.514 79.7525L38.3921 78.3524L37.2679 76.934C34.9069 73.9568 35.408 69.6301 38.3875 67.2691C41.3646 64.9081 45.6913 65.4092 48.0523 68.3887C48.2064 68.5841 48.3489 68.7841 48.4776 68.9887L48.5006 69.0255V69.0301Z" fill="#FECDAC"/>
<path d="M102.582 111.807C100.832 110.947 97.7515 110.21 94.8594 108.044C94.418 107.713 93.9697 106.954 94.2915 106.816C94.926 106.54 95.6801 106.752 96.3583 106.625C97.3399 106.444 99.1125 105.416 98.9423 104.264C98.8481 103.63 98.3745 103.697 97.7813 103.91C95.0456 104.899 94.1743 104.182 92.1811 104.159C91.204 104.147 91.5443 104.439 88.8936 104.867C88.397 104.947 87.7786 105.202 87.2912 105.117C87.0222 105.071 85.3646 104.835 84.7876 104.628C83.3439 107.205 83.3278 110.952 83.3278 110.952C84.2818 111.262 84.8382 111.081 85.6451 111.915C86.2911 112.584 86.3417 112.84 87.0751 113.421C88.0866 114.221 90.1396 115.644 92.673 116.419C93.9628 116.814 94.7237 115.424 93.4409 114.92C93.142 114.803 92.8777 114.686 92.6639 114.541C92.8616 114.64 93.3604 114.833 95.8088 115.594C96.7698 115.893 97.7814 114.545 96.487 114.051C95.8088 113.794 95.287 113.515 94.7605 113.191C95.1789 113.465 97.0457 114.212 98.632 114.663C99.9033 115.026 100.873 113.389 99.7815 112.971C98.7055 112.559 97.7147 112.113 96.6204 111.435C96.6204 111.435 96.6204 111.433 96.625 111.43C97.0963 111.725 99.3975 112.828 101.552 113.522C102.529 113.837 103.825 112.417 102.579 111.805L102.582 111.807Z" fill="#FECDAC"/>
<path d="M18.5191 199.178L14.1936 204.928L20.8646 209.946L25.1901 204.196L18.5191 199.178Z" fill="white"/>
<path d="M32.3322 223.368C31.8104 223.653 31.1161 223.72 30.4701 223.679C29.6861 223.624 23.8421 219.469 20.3799 217.513C19.2258 216.858 18.4189 216.676 18.2855 216.439C18.0855 216.083 17.7039 215.035 16.7797 214.49C15.8486 213.943 14.9084 214.159 14.9084 214.159C14.9084 214.159 8.13562 210.136 8.1793 208.466C8.19999 207.772 7.7241 207.823 8.54713 206.922C8.78163 206.664 9.03451 206.409 9.2874 206.168C10.8898 204.657 13.8968 201.62 15.5245 202.51C16.0923 202.816 17.3361 206.105 20.0236 206.535C21.603 206.788 22.2283 205.855 24.1318 205.818C26.2124 205.788 26.0124 207.28 26.0009 209.565C26.0009 209.703 26.0009 209.844 26.0009 209.988C26.0055 210.623 26.0354 211.313 26.1342 212.041C26.1526 212.177 26.1733 212.315 26.1986 212.455C26.2928 213.007 26.4331 213.579 26.6331 214.166C26.64 214.186 26.6492 214.209 26.6561 214.228C26.7021 214.359 26.7549 214.487 26.817 214.616C27.0584 215.136 27.4055 215.644 27.8125 216.14C27.9021 216.251 27.9941 216.359 28.0883 216.467C29.1183 217.639 30.4402 218.736 31.4724 219.724C32.5943 220.8 33.376 221.754 33.0725 222.543C32.9277 222.922 32.6633 223.187 32.3322 223.366V223.368Z" fill="#2D3A64"/>
<path d="M32.3324 223.37C31.7623 223.951 30.1323 225.434 28.5437 224.338C23.4331 220.809 18.426 217.558 14.3292 214.535C14.3292 214.535 7.25074 210.017 7.34729 209.197C7.45075 208.309 8.14043 207.259 9.28762 206.169C9.72212 206.353 10.152 206.647 10.5429 207.04C12.2832 208.79 14.0097 210.535 15.8673 212.162C19.541 215.383 23.5044 218.275 27.6954 220.793C29.2127 221.703 30.7599 222.563 32.3347 223.368L32.3324 223.37Z" fill="#1A223B"/>
<path d="M51.9009 166.934C49.1882 172.847 38.0336 192.025 27.9434 208.594C23.1685 206.895 18.8487 205.416 14.2163 202.168C14.5589 201.393 14.9175 200.605 15.2945 199.805C22.3477 184.714 33.8242 164.975 34.5575 162.235C35.8243 157.497 33.9851 128.831 34.461 120.775C45.657 117.722 55.6299 121.851 62.6417 119.865C60.1588 135.493 56.3931 157.147 51.9032 166.936L51.9009 166.934Z" fill="#3C4EB1"/>
<path d="M60.1383 51.0268C60.0831 51.8682 60.1061 52.7901 60.1521 53.3419C60.1728 53.5764 60.1958 53.7419 60.2211 53.8109C60.4947 54.5787 60.8947 55.8386 60.6878 56.3535C60.5222 56.7604 60.2579 57.057 59.9176 57.2754C58.7428 58.0364 56.7289 57.8823 55.3496 58.4364C54.1357 58.9284 52.8184 60.11 53.3058 63.3447C53.5334 64.8459 53.8621 68.9358 54.115 71.0393C53.6253 70.9221 49.6849 71.46 49.1814 71.1221C31.8266 71.0393 36.9693 67.9288 36.9762 67.9173C37.7027 66.3931 42.2891 57.0547 42.1029 55.4661C42.0983 55.4431 42.0937 55.4201 42.0914 55.3972C41.5857 51.8131 37.6774 49.7141 36.2957 46.3668C34.9463 43.1046 36.3785 39.1504 39.0568 36.8491C41.7374 34.5478 45.395 33.6834 48.924 33.6306C50.8827 33.6007 52.9058 33.8168 54.6185 34.7616C56.4853 35.7939 57.4462 37.5802 58.06 39.5113C58.175 39.8745 58.2784 40.2401 58.3727 40.6079C58.7382 42.0356 58.621 42.4747 58.8049 43.8655C59.0716 45.9001 61.5522 47.137 61.7246 48.0543C61.9637 49.3026 60.4418 49.321 60.3406 49.652C60.2326 50.0038 60.1682 50.5004 60.136 51.0268H60.1383Z" fill="#F3AE84"/>
<path d="M56.3381 45.2332C56.4002 45.562 56.7198 45.7781 57.0485 45.716C57.3773 45.6539 57.5934 45.3344 57.5313 45.0056C57.4692 44.6769 57.1497 44.4608 56.8209 44.5228C56.4922 44.5849 56.2761 44.9045 56.3381 45.2332Z" fill="#5A392A"/>
<path d="M54.5723 43.3538C54.0665 43.6941 53.5952 44.8482 53.7171 44.8803C53.7171 44.8803 54.5309 44.1815 55.5608 43.8964C56.1746 43.7263 56.8115 43.655 57.4391 43.5538C57.7173 43.5102 58.0483 43.4481 58.2161 43.1929C58.3472 42.9952 58.3564 42.7124 58.1288 42.5975C57.7701 42.4159 55.3562 42.8251 54.5723 43.3538Z" fill="#15181D"/>
<g style="mix-blend-mode:multiply">
<path d="M48.3171 52.7334C49.062 54.5565 50.6689 55.8853 52.3357 56.9336C53.2852 57.529 54.2921 58.067 55.3473 58.4394C56.7244 57.8854 58.7406 58.0394 59.9154 57.2785C59.6487 57.2762 59.2004 57.4072 59.0027 57.4187C58.644 57.444 58.2854 57.4486 57.9245 57.4394C56.4738 57.398 55.0347 57.0807 53.6898 56.5359C51.6391 55.706 49.8137 54.3611 48.3125 52.7357L48.3171 52.7334Z" fill="#F2E9E6"/>
</g>
<path d="M53.3748 38.6748C52.4069 38.5415 51.3747 38.4173 50.4873 38.8288C49.0941 39.4748 48.5654 41.1991 48.5424 42.7348C48.5194 44.2705 48.8458 45.8315 48.4964 47.3258C48.4458 47.5419 48.3424 47.7925 48.124 47.8316C47.8665 47.8776 47.678 47.604 47.5676 47.3672C47.1791 46.5143 46.8687 45.5878 46.1974 44.9372C45.5238 44.2866 44.3261 44.0475 43.6847 44.7303C43.1145 45.3349 43.2639 46.3304 43.6617 47.0591C44.0594 47.7879 44.6617 48.404 44.9698 49.1765C45.425 50.3237 45.1445 51.6571 44.5261 52.7238C43.9077 53.7905 42.9881 54.6457 42.0823 55.4825C40.3604 53.1537 36.8843 49.6363 36.0222 46.7764C35.1854 44.0038 35.5831 42.5578 36.1578 39.7185C36.3969 38.5369 37.0337 37.2288 38.22 37.0104C37.7648 35.808 38.3534 34.401 39.3281 33.5619C40.3029 32.7228 41.588 32.3458 42.8478 32.0814C45.9836 31.4239 49.3033 31.348 52.3495 32.3458C53.8254 32.8285 54.6622 34.1481 56.0278 34.8861C56.791 35.2999 57.2118 35.1413 57.8095 35.7735C58.4072 36.4034 58.7107 37.2954 58.5728 38.1529C58.3796 39.3461 58.4348 39.7737 57.4187 39.3737C56.1726 38.8817 54.6967 38.8564 53.3748 38.6748Z" fill="#15181D"/>
<path d="M60.152 53.3441C60.0163 53.2981 57.2874 52.3302 56.4713 50.4888C57.4737 51.006 59.437 51.0405 60.1382 51.0267C60.1313 51.121 60.1267 51.2175 60.1221 51.3141C60.0945 51.9118 60.1037 52.5234 60.129 52.9946C60.1359 53.1234 60.1428 53.2383 60.152 53.3441Z" fill="#ED9D6D"/>
<path d="M60.1292 52.9949C59.8257 52.8937 58.0969 52.2638 57.021 50.8315C58.005 51.3373 59.4717 51.335 60.1223 51.3166C60.0947 51.9144 60.1039 52.5259 60.1292 52.9972V52.9949Z" fill="white"/>
<path d="M47.3192 30.0191L46.064 30.0811C45.7835 30.0949 45.5421 29.8765 45.5283 29.5984C45.5145 29.3179 45.7329 29.0788 46.0111 29.0627L47.2663 29.0006C47.5468 28.9868 47.7859 29.2052 47.802 29.4834C47.8158 29.7639 47.5974 30.003 47.3192 30.0191Z" fill="#41396B"/>
<path d="M60.7244 41.3365C59.5152 35.2902 53.4597 29.1566 47.0111 29.4784C40.3464 29.8095 35.1967 36.6052 34.8887 43.0262C34.8887 43.0262 60.5313 41.3802 60.7244 41.3365Z" fill="#E5483F"/>
<path d="M59.1519 37.3687C61.2302 37.1848 69.941 37.1043 68.6673 38.9067C67.9891 39.8653 66.4833 40.978 64.897 41.2999C62.5866 41.7712 50.5354 42.0149 50.5354 42.0149C50.5354 42.0149 58.1151 40.4746 59.1519 37.3687Z" fill="#A7171F"/>
<path d="M61.0992 117.474C61.2624 119.194 62.7889 120.941 62.6142 121.468C57.0691 123.394 39.6682 124.346 35.1967 123.898C34.4611 122.661 33.8335 113.04 34.0794 110.683C35.3784 98.5308 28.0217 88.9257 30.9345 73.9733C31.6793 70.1777 34.022 64.3061 38.298 62.1934C44.5857 59.0783 57.4162 69.4466 58.9841 76.7895C59.7796 80.523 59.1497 91.9144 60.821 98.3998C61.2417 100.05 61.644 101.671 62.0004 103.241C62.0004 103.241 62.0004 103.248 62.0096 103.248C63.3591 109.101 60.7842 114.217 61.0992 117.474Z" fill="#FC5126"/>
<path d="M39.4754 60.2038L38.8639 61.9257C38.8639 61.9257 50.3725 63.735 54.7222 70.0204C54.7222 70.0204 55.2003 66.1627 49.9886 62.3143C48.0529 60.8843 43.3906 59.8291 41.1261 59.3831C40.418 59.2429 39.6892 59.6061 39.4754 60.2038Z" fill="#FFC194"/>
<path d="M76.4692 210.32L76.6714 217.513L85.0156 217.279L84.8135 210.086L76.4692 210.32Z" fill="white"/>
<path d="M102.354 220.63C102.124 221.178 101.623 221.665 101.089 222.033C100.441 222.479 93.2821 222.872 89.3578 223.502C88.0451 223.709 87.3025 224.07 87.0519 223.969C86.6749 223.815 85.7231 223.233 84.6587 223.382C83.5897 223.534 82.9873 224.29 82.9873 224.29C82.9873 224.29 75.1823 225.366 74.1777 224.033C73.7616 223.477 73.419 223.815 73.5018 222.596C73.5271 222.249 73.5639 221.893 73.6122 221.543C73.9248 219.364 74.3823 215.115 76.21 214.796C76.8445 214.681 79.8676 216.476 82.2356 215.138C83.6264 214.352 83.5345 213.232 85.0012 212.016C86.6082 210.697 87.383 211.986 88.7991 213.782C88.8842 213.89 88.9715 214 89.0612 214.113C89.4612 214.605 89.9141 215.127 90.4452 215.635C90.544 215.729 90.6475 215.826 90.7532 215.918C91.1694 216.29 91.636 216.651 92.1602 216.984C92.1786 216.998 92.1993 217.007 92.2177 217.019C92.3349 217.092 92.4568 217.159 92.5855 217.221C93.0982 217.476 93.6867 217.658 94.3143 217.794C94.4523 217.823 94.5925 217.851 94.735 217.876C96.2708 218.152 97.9881 218.187 99.4134 218.315C100.961 218.458 102.168 218.715 102.42 219.522C102.545 219.911 102.501 220.281 102.356 220.628L102.354 220.63Z" fill="#2D3A64"/>
<path d="M102.352 220.63C102.269 221.442 101.917 223.617 99.9929 223.748C93.7972 224.173 87.8567 224.755 82.7668 224.943C82.7668 224.943 74.4146 225.824 73.9801 225.123C73.5088 224.364 73.3916 223.113 73.61 221.545C74.0652 221.419 74.5825 221.38 75.1342 221.447C77.5849 221.729 80.0241 222.017 82.4909 222.134C87.3716 222.362 92.273 222.155 97.1192 221.511C98.8733 221.276 100.618 220.984 102.352 220.633V220.63Z" fill="#1A223B"/>
<path d="M81.16 162.991C82.6727 168.753 86.0752 193.002 88.7305 212.219C83.9579 213.923 79.6749 215.509 74.0332 215.921C73.8079 215.102 73.5872 214.268 73.3734 213.408C69.2974 197.255 64.4971 171.465 63.9293 168.688C61.9752 159.141 34.2795 140.705 33.3324 119.019C33.199 115.996 32.1645 106.343 31.2748 91.9442C32.3691 91.9373 34.9255 91.8707 35.4658 91.9442C39.0752 110.63 39.4798 115.182 48.8665 114.904C62.0763 114.511 50.2527 83.5346 53.0437 83.4863C55.0346 83.4519 56.4783 83.6358 59.6417 83.4909C61.9338 97.4824 63.2488 111.182 62.6442 120.336C62.4005 124.031 78.884 154.324 81.1623 162.996L81.16 162.991Z" fill="#30419F"/>
<path d="M119.89 79.6895H63.9866V126.676H119.89V79.6895Z" fill="#6A7DEB"/>
<path d="M98.1148 110.567H85.7648V126.676H98.1148V110.567Z" fill="#30419F"/>
<path d="M98.1148 79.6895H85.7648V95.7983H98.1148V79.6895Z" fill="#30419F"/>
<path fill-rule="evenodd" clip-rule="evenodd" d="M106.791 122.059C106.791 122.059 106.789 122.059 106.789 122.061C106.786 122.07 106.789 122.065 106.791 122.059ZM107.922 122.771L107.97 122.693L108.046 122.744L108.159 122.82L107.839 121.877L106.839 122.068L106.956 122.144L107.023 122.187L106.986 122.259L106.738 122.741C106.713 122.794 106.717 122.849 106.733 122.9C106.754 122.957 106.793 123.015 106.825 123.059V123.063L107.007 123.332C107.101 123.422 107.223 123.461 107.372 123.468H107.481L107.917 122.769L107.922 122.771ZM108.924 123.684V124.787H107.977C107.795 124.794 107.639 124.721 107.513 124.493L106.687 123.169C106.646 123.114 106.598 123.043 106.568 122.96C106.536 122.87 106.531 122.767 106.579 122.663L106.793 122.249L106.697 122.187L106.69 122.183C106.637 122.141 106.595 122.091 106.611 122.024C106.623 121.967 106.678 121.918 106.805 121.893L107.883 121.686L107.959 121.672L107.984 121.746L108.338 122.792C108.359 122.847 108.366 122.891 108.363 122.923C108.363 122.962 108.35 122.992 108.331 123.013C108.308 123.04 108.281 123.054 108.251 123.056C108.228 123.059 108.207 123.056 108.186 123.049H108.177L108.166 123.04L108.021 122.946L107.692 123.472H108.731C108.855 123.477 108.92 123.514 108.922 123.684H108.924Z" fill="#30419F"/>
<path d="M110.727 121.118C110.727 121.118 110.727 121.118 110.727 121.114C110.72 121.107 110.723 121.111 110.727 121.118ZM109.162 120.92L109.523 121.691L109.562 121.773L109.479 121.81L109.355 121.865L110.316 122.104L110.695 121.155L110.569 121.212L110.495 121.247L110.456 121.178L110.187 120.707C110.155 120.656 110.109 120.631 110.058 120.619C109.998 120.606 109.932 120.608 109.874 120.612H109.87L109.079 120.629L108.41 120.433H109.861C109.93 120.426 110.015 120.424 110.1 120.445C110.192 120.468 110.281 120.518 110.341 120.615L110.571 121.019L110.674 120.971H110.681C110.743 120.946 110.808 120.939 110.858 120.987C110.9 121.029 110.911 121.1 110.865 121.222L110.456 122.247L110.426 122.318L110.35 122.3L109.284 122.033C109.226 122.022 109.187 122.003 109.159 121.985C109.127 121.964 109.109 121.937 109.102 121.909C109.09 121.875 109.095 121.842 109.109 121.817C109.118 121.796 109.134 121.78 109.15 121.767L109.157 121.76L109.169 121.755L109.325 121.684L109.003 120.996L109.164 120.92H109.162Z" fill="#30419F"/>
<path fill-rule="evenodd" clip-rule="evenodd" d="M108.497 122.003L109.23 120.851C109.325 120.72 109.43 120.635 109.573 120.61L109.088 120.449L108.304 120.417C108.044 120.398 107.897 120.493 107.805 120.651L107.292 121.454L108.214 122.049C108.359 122.141 108.423 122.104 108.495 122.003H108.497Z" fill="#30419F"/>
<path fill-rule="evenodd" clip-rule="evenodd" d="M109.644 124.996C109.644 124.996 109.644 124.996 109.649 124.996C109.658 124.994 109.653 124.994 109.644 124.996ZM109.678 123.653H109.589L109.593 123.559L109.6 123.424L108.954 124.178L109.626 124.948L109.633 124.807L109.637 124.727L109.718 124.722L110.258 124.693C110.318 124.688 110.361 124.656 110.396 124.617C110.435 124.571 110.465 124.509 110.485 124.456V124.451L110.628 124.159C110.658 124.03 110.628 123.906 110.559 123.773L110.504 123.679L109.683 123.653H109.678ZM109.95 122.322L110.895 121.764L111.375 122.587C111.474 122.741 111.49 122.913 111.359 123.138L110.644 124.527C110.616 124.591 110.582 124.67 110.527 124.736C110.465 124.81 110.38 124.865 110.267 124.876L109.805 124.902L109.8 125.017V125.024C109.791 125.09 109.768 125.152 109.704 125.173C109.649 125.191 109.58 125.168 109.492 125.072L108.768 124.242L108.718 124.184L108.768 124.125L109.485 123.288C109.522 123.242 109.554 123.214 109.584 123.198C109.619 123.18 109.649 123.175 109.676 123.18C109.711 123.187 109.738 123.205 109.754 123.228C109.768 123.247 109.777 123.267 109.78 123.288V123.297V123.309L109.77 123.481L110.389 123.499L109.86 122.598C109.803 122.488 109.8 122.414 109.945 122.327L109.95 122.322Z" fill="#30419F"/>
<path d="M106.472 119.485C106.124 119.485 105.842 119.784 105.842 120.147V125.437C105.842 125.802 106.124 126.099 106.472 126.099H111.525C111.872 126.099 112.159 125.802 112.159 125.437V120.147C112.159 119.784 111.872 119.485 111.525 119.485H106.472ZM106.219 120.232C106.219 120.037 106.37 119.883 106.552 119.883H111.442C111.628 119.883 111.778 120.039 111.778 120.232V125.352C111.778 125.543 111.628 125.701 111.442 125.701H106.552C106.37 125.701 106.219 125.543 106.219 125.352V120.232Z" fill="#30419F"/>
<path d="M113.934 125.327H117.224C117.288 125.327 117.339 125.275 117.339 125.21C117.339 125.146 117.286 125.095 117.224 125.095H113.934C113.87 125.095 113.819 125.148 113.819 125.21C113.819 125.272 113.872 125.327 113.934 125.327Z" fill="#30419F"/>
<path fill-rule="evenodd" clip-rule="evenodd" d="M116.084 121.148V124.606H116.778V121.146H117.121L116.417 120.261L115.718 121.15L116.084 121.148Z" fill="#30419F"/>
<path fill-rule="evenodd" clip-rule="evenodd" d="M114.375 121.15V124.608H115.07V121.148L115.412 121.146L114.709 120.261L114.01 121.15H114.375Z" fill="#30419F"/>
<path d="M113.051 119.485C112.704 119.485 112.421 119.784 112.421 120.147V125.437C112.421 125.802 112.704 126.099 113.051 126.099H118.104C118.452 126.099 118.739 125.802 118.739 125.437V120.147C118.739 119.784 118.452 119.485 118.104 119.485H113.051ZM112.798 120.232C112.798 120.037 112.95 119.883 113.132 119.883H118.022C118.208 119.883 118.357 120.039 118.357 120.232V125.352C118.357 125.543 118.208 125.701 118.022 125.701H113.132C112.95 125.701 112.798 125.543 112.798 125.352V120.232Z" fill="#30419F"/>
<path d="M48.6134 73.2014L48.9721 74.8268L49.3468 76.4728L50.117 79.765C50.6388 81.9582 51.1607 84.1514 51.7102 86.3262C52.2596 88.5033 52.8298 90.6666 53.4206 92.8024C53.7172 93.8691 54.0229 94.9266 54.3402 95.9658C54.6574 97.0026 54.9862 98.0256 55.3287 98.9889C55.4988 99.4717 55.6736 99.9384 55.846 100.368C56.0161 100.794 56.1954 101.194 56.3081 101.44C56.3403 101.511 56.3518 101.536 56.3656 101.58C56.3564 101.571 56.3334 101.552 56.3288 101.555C56.3334 101.566 56.3288 101.571 56.3403 101.587C56.3771 101.658 56.4989 101.805 56.6276 101.95C56.8943 102.251 57.2461 102.598 57.6116 102.945C58.3519 103.644 59.1726 104.359 60.0094 105.065C60.8485 105.773 61.7107 106.477 62.5843 107.176C64.3269 108.582 66.1086 109.976 67.9064 111.353L70.6099 113.42L73.3204 115.466L73.348 115.486C74.7527 116.548 75.0332 118.548 73.971 119.953C73.0124 121.224 71.2835 121.574 69.9226 120.843C65.8258 118.654 61.8302 116.399 57.8231 113.98C56.8254 113.371 55.8276 112.751 54.8276 112.104C53.8252 111.456 52.8275 110.792 51.7975 110.045C51.2803 109.668 50.7607 109.277 50.1951 108.796C49.9078 108.55 49.6204 108.297 49.2756 107.943C49.1882 107.854 49.0939 107.75 49.0066 107.654C48.91 107.546 48.802 107.415 48.7031 107.293C48.5537 107.104 48.3927 106.897 48.2732 106.73C47.7628 106.019 47.395 105.415 47.0479 104.821C46.7053 104.231 46.3972 103.665 46.103 103.102C45.5167 101.98 44.9857 100.886 44.4753 99.7935C43.9672 98.7038 43.4799 97.6187 43.0063 96.5336C42.0568 94.368 41.1694 92.2024 40.305 90.0367C39.4429 87.8688 38.5969 85.7032 37.7853 83.5284L36.5807 80.2592L35.9875 78.6178L35.3967 76.9533C34.1231 73.3715 35.9967 69.4357 39.5785 68.1621C43.1603 66.8885 47.0961 68.7621 48.3698 72.3439C48.4617 72.6014 48.5376 72.8612 48.5974 73.1233L48.6134 73.2014Z" fill="#FECDAC"/>
<path d="M40.4152 91.2037C44.8499 89.0703 53.5124 85.3942 53.5285 85.385C51.864 79.2905 48.6524 64.246 39.3301 67.9405C28.4835 72.2395 38.0702 85.8241 40.4152 91.2037Z" fill="#FB7752"/>
<path d="M87.6822 126.145C86.2063 124.874 83.4085 123.387 81.1532 120.563C80.8083 120.134 80.5647 119.285 80.9118 119.232C81.5946 119.127 82.2728 119.517 82.9602 119.568C83.9556 119.639 85.9281 119.087 86.0546 117.931C86.1235 117.292 85.6454 117.239 85.0177 117.297C82.121 117.566 81.4566 116.655 79.5347 116.131C78.5921 115.874 78.8496 116.244 76.1759 115.991C75.6748 115.943 75.0126 116.037 74.5621 115.832C74.3138 115.72 72.7689 115.076 72.2631 114.731C70.2193 116.862 69.2629 120.488 69.2629 120.488C70.109 121.028 70.6929 120.991 71.2653 122.003C71.7228 122.812 71.7067 123.072 72.2723 123.819C73.0493 124.849 74.6793 126.738 76.9369 128.127C78.0864 128.833 79.1715 127.679 78.0565 126.867C77.7967 126.679 77.5714 126.499 77.399 126.304C77.5645 126.449 78.0013 126.761 80.1784 128.113C81.0336 128.644 82.3509 127.594 81.2222 126.789C80.6313 126.368 80.1945 125.971 79.7669 125.525C80.1049 125.895 81.7233 127.086 83.1464 127.922C84.2867 128.594 85.6362 127.251 84.6844 126.573C83.7464 125.904 82.9004 125.223 82.0107 124.292C82.0107 124.292 82.013 124.292 82.0153 124.29C82.3969 124.692 84.3487 126.341 86.2592 127.552C87.1259 128.104 88.7375 127.053 87.6868 126.148L87.6822 126.145Z" fill="#FECDAC"/>
<path d="M32.2793 92.134C31.2701 83.2531 28.9458 67.4132 38.7394 65.5073C50.4986 63.2176 57.1725 73.8963 57.6277 83.683L55.3173 83.5519C54.8782 74.1032 48.3905 64.2682 38.9877 66.8982C29.4332 69.5696 34.3645 84.9865 35.5002 92.1363H32.2793V92.134Z" fill="#3C4EB1"/>
<defs>
<linearGradient id="paint0_linear_104_579" x1="156.5" y1="34" x2="156.5" y2="277" gradientUnits="userSpaceOnUse">
<stop stop-color="#DDE2FF"/>
<stop offset="1" stop-color="#F3F5FF" stop-opacity="0"/>
</linearGradient>
</defs>
</svg>
